<?xml version="1.0" encoding="UTF-8" standalone="no"?>
<!DOCTYPE svg PUBLIC "-//W3C//DTD SVG 1.1//EN"
 "http://www.w3.org/Graphics/SVG/1.1/DTD/svg11.dtd">
<!-- Generated by graphviz version 2.26.3 (20100126.1600)
 -->
<!-- Title: G Pages: 1 -->
<svg width="530pt" height="304pt"
 viewBox="0.00 0.00 530.00 304.00" xmlns="http://www.w3.org/2000/svg" xmlns:xlink="http://www.w3.org/1999/xlink">
<g id="graph1" class="graph" transform="scale(1 1) rotate(0) translate(4 300)">
<title>G</title>
<polygon fill="white" stroke="white" points="-4,5 -4,-300 527,-300 527,5 -4,5"/>
<g id="graph2" class="cluster"><title>cluster_0</title>
<polygon fill="none" stroke="lightblue" points="8,-8 8,-288 514,-288 514,-8 8,-8"/>
<text text-anchor="middle" x="261" y="-271.4" font-family="Times Roman,serif" font-size="14.00">ALT(p, q)</text>
</g>
<g id="graph5" class="cluster"><title>cluster0_0</title>
<polygon fill="none" stroke="lightblue" points="16,-16 16,-255 214,-255 214,-16 16,-16"/>
<text text-anchor="middle" x="115" y="-238.4" font-family="Times Roman,serif" font-size="14.00">OR(NEG(p), NULL(p))</text>
</g>
<!-- _p0_0 -->
<g id="node3" class="node"><title>_p0_0</title>
<ellipse fill="none" stroke="black" cx="488" cy="-123" rx="18" ry="18"/>
<text text-anchor="middle" x="488" y="-118.9" font-family="Times Roman,serif" font-size="14.00">ALT(p, q)</text>
</g>
<!-- _p1_0 -->
<g id="node4" class="node"><title>_p1_0</title>
<ellipse fill="none" stroke="black" cx="332" cy="-96" rx="18" ry="18"/>
<text text-anchor="middle" x="332" y="-91.9" font-family="Times Roman,serif" font-size="14.00">p</text>
</g>
<!-- _t0_0 -->
<g id="node7" class="node"><title>_t0_0</title>
<polygon fill="none" stroke="black" points="433,-141 387,-141 387,-105 433,-105 433,-141"/>
<text text-anchor="middle" x="410" y="-118.9" font-family="Times Roman,serif" font-size="14.00">XOR</text>
</g>
<!-- _p1_0&#45;&gt;_t0_0 -->
<g id="edge21" class="edge"><title>_p1_0&#45;&gt;_t0_0</title>
<path fill="none" stroke="black" d="M349.311,-101.992C357.372,-104.783 367.246,-108.2 376.669,-111.462"/>
<polygon fill="black" stroke="black" points="375.635,-114.808 386.23,-114.772 377.925,-108.193 375.635,-114.808"/>
</g>
<!-- _p2_0 -->
<g id="node5" class="node"><title>_p2_0</title>
<ellipse fill="none" stroke="black" cx="332" cy="-150" rx="18" ry="18"/>
<text text-anchor="middle" x="332" y="-145.9" font-family="Times Roman,serif" font-size="14.00">q</text>
</g>
<!-- _p2_0&#45;&gt;_t0_0 -->
<g id="edge27" class="edge"><title>_p2_0&#45;&gt;_t0_0</title>
<path fill="none" stroke="black" d="M349.311,-144.008C357.372,-141.217 367.246,-137.8 376.669,-134.538"/>
<polygon fill="black" stroke="black" points="377.925,-137.807 386.23,-131.228 375.635,-131.192 377.925,-137.807"/>
</g>
<!-- _t0_0&#45;&gt;_p0_0 -->
<g id="edge19" class="edge"><title>_t0_0&#45;&gt;_p0_0</title>
<path fill="none" stroke="black" d="M433.826,-123C441.891,-123 450.98,-123 459.378,-123"/>
<polygon fill="black" stroke="black" points="459.515,-126.5 469.515,-123 459.515,-119.5 459.515,-126.5"/>
</g>
<!-- _t1_0 -->
<g id="node8" class="node"><title>_t1_0</title>
<polygon fill="none" stroke="black" points="278,-114 242,-114 242,-78 278,-78 278,-114"/>
<text text-anchor="middle" x="260" y="-91.9" font-family="Times Roman,serif" font-size="14.00">p</text>
</g>
<!-- _t1_0&#45;&gt;_p1_0 -->
<g id="edge23" class="edge"><title>_t1_0&#45;&gt;_p1_0</title>
<path fill="none" stroke="black" d="M278.169,-96C285.869,-96 295.026,-96 303.583,-96"/>
<polygon fill="black" stroke="black" points="303.587,-99.5001 313.587,-96 303.587,-92.5001 303.587,-99.5001"/>
</g>
<!-- _t2_0 -->
<g id="node9" class="node"><title>_t2_0</title>
<polygon fill="none" stroke="black" points="278,-168 242,-168 242,-132 278,-132 278,-168"/>
<text text-anchor="middle" x="260" y="-145.9" font-family="Times Roman,serif" font-size="14.00">q</text>
</g>
<!-- _t2_0&#45;&gt;_p2_0 -->
<g id="edge29" class="edge"><title>_t2_0&#45;&gt;_p2_0</title>
<path fill="none" stroke="black" d="M278.169,-150C285.869,-150 295.026,-150 303.583,-150"/>
<polygon fill="black" stroke="black" points="303.587,-153.5 313.587,-150 303.587,-146.5 303.587,-153.5"/>
</g>
<!-- _p0_00 -->
<g id="node11" class="node"><title>_p0_00</title>
<ellipse fill="none" stroke="black" cx="188" cy="-96" rx="18" ry="18"/>
<text text-anchor="middle" x="188" y="-91.9" font-family="Times Roman,serif" font-size="14.00">OR(NEG(p), NULL(p))</text>
</g>
<!-- _p0_00&#45;&gt;_t1_0 -->
<g id="edge25" class="edge"><title>_p0_00&#45;&gt;_t1_0</title>
<path fill="none" stroke="black" d="M206.169,-96C213.869,-96 223.026,-96 231.583,-96"/>
<polygon fill="black" stroke="black" points="231.587,-99.5001 241.587,-96 231.587,-92.5001 231.587,-99.5001"/>
</g>
<!-- _p1_00 -->
<g id="node12" class="node"><title>_p1_00</title>
<ellipse fill="none" stroke="black" cx="42" cy="-96" rx="18" ry="18"/>
<text text-anchor="middle" x="42" y="-91.9" font-family="Times Roman,serif" font-size="14.00">NEG(p)</text>
</g>
<!-- _t0_00 -->
<g id="node14" class="node"><title>_t0_00</title>
<polygon fill="none" stroke="black" points="134,-114 96,-114 96,-78 134,-78 134,-114"/>
<text text-anchor="middle" x="115" y="-91.9" font-family="Times Roman,serif" font-size="14.00">OR</text>
</g>
<!-- _p1_00&#45;&gt;_t0_00 -->
<g id="edge8" class="edge"><title>_p1_00&#45;&gt;_t0_00</title>
<path fill="none" stroke="black" d="M60.0449,-96C67.7893,-96 77.0378,-96 85.7189,-96"/>
<polygon fill="black" stroke="black" points="85.8872,-99.5001 95.8872,-96 85.8871,-92.5001 85.8872,-99.5001"/>
</g>
<!-- _p2_00 -->
<g id="node13" class="node"><title>_p2_00</title>
<ellipse fill="none" stroke="black" cx="42" cy="-42" rx="18" ry="18"/>
<text text-anchor="middle" x="42" y="-37.9" font-family="Times Roman,serif" font-size="14.00">NULL(p)</text>
</g>
<!-- _p2_00&#45;&gt;_t0_00 -->
<g id="edge10" class="edge"><title>_p2_00&#45;&gt;_t0_00</title>
<path fill="none" stroke="black" d="M56.7726,-52.9277C65.6485,-59.4934 77.2196,-68.0528 87.706,-75.8099"/>
<polygon fill="black" stroke="black" points="85.6902,-78.6723 95.8112,-81.8055 89.8531,-73.0446 85.6902,-78.6723"/>
</g>
<!-- _t0_00&#45;&gt;_p0_00 -->
<g id="edge6" class="edge"><title>_t0_00&#45;&gt;_p0_00</title>
<path fill="none" stroke="black" d="M134.18,-96C141.903,-96 150.972,-96 159.442,-96"/>
<polygon fill="black" stroke="black" points="159.703,-99.5001 169.703,-96 159.703,-92.5001 159.703,-99.5001"/>
</g>
<!-- _p0_01 -->
<g id="node19" class="node"><title>_p0_01</title>
<ellipse fill="none" stroke="black" cx="188" cy="-150" rx="18" ry="18"/>
<text text-anchor="middle" x="188" y="-145.9" font-family="Times Roman,serif" font-size="14.00">OR(NEG(q), NULL(q))</text>
</g>
<!-- _p0_01&#45;&gt;_t2_0 -->
<g id="edge31" class="edge"><title>_p0_01&#45;&gt;_t2_0</title>
<path fill="none" stroke="black" d="M206.169,-150C213.869,-150 223.026,-150 231.583,-150"/>
<polygon fill="black" stroke="black" points="231.587,-153.5 241.587,-150 231.587,-146.5 231.587,-153.5"/>
</g>
<!-- _p1_01 -->
<g id="node20" class="node"><title>_p1_01</title>
<ellipse fill="none" stroke="black" cx="42" cy="-204" rx="18" ry="18"/>
<text text-anchor="middle" x="42" y="-199.9" font-family="Times Roman,serif" font-size="14.00">NEG(q)</text>
</g>
<!-- _t0_01 -->
<g id="node22" class="node"><title>_t0_01</title>
<polygon fill="none" stroke="black" points="134,-168 96,-168 96,-132 134,-132 134,-168"/>
<text text-anchor="middle" x="115" y="-145.9" font-family="Times Roman,serif" font-size="14.00">OR</text>
</g>
<!-- _p1_01&#45;&gt;_t0_01 -->
<g id="edge15" class="edge"><title>_p1_01&#45;&gt;_t0_01</title>
<path fill="none" stroke="black" d="M56.7726,-193.072C65.6485,-186.507 77.2196,-177.947 87.706,-170.19"/>
<polygon fill="black" stroke="black" points="89.8531,-172.955 95.8112,-164.194 85.6902,-167.328 89.8531,-172.955"/>
</g>
<!-- _p2_01 -->
<g id="node21" class="node"><title>_p2_01</title>
<ellipse fill="none" stroke="black" cx="42" cy="-150" rx="18" ry="18"/>
<text text-anchor="middle" x="42" y="-145.9" font-family="Times Roman,serif" font-size="14.00">NULL(q)</text>
</g>
<!-- _p2_01&#45;&gt;_t0_01 -->
<g id="edge17" class="edge"><title>_p2_01&#45;&gt;_t0_01</title>
<path fill="none" stroke="black" d="M60.0449,-150C67.7893,-150 77.0378,-150 85.7189,-150"/>
<polygon fill="black" stroke="black" points="85.8872,-153.5 95.8872,-150 85.8871,-146.5 85.8872,-153.5"/>
</g>
<!-- _t0_01&#45;&gt;_p0_01 -->
<g id="edge13" class="edge"><title>_t0_01&#45;&gt;_p0_01</title>
<path fill="none" stroke="black" d="M134.18,-150C141.903,-150 150.972,-150 159.442,-150"/>
<polygon fill="black" stroke="black" points="159.703,-153.5 169.703,-150 159.703,-146.5 159.703,-153.5"/>
</g>
</g>
</svg>
