<?xml version="1.0" encoding="UTF-8" standalone="no"?>
<!DOCTYPE svg PUBLIC "-//W3C//DTD SVG 1.1//EN"
 "http://www.w3.org/Graphics/SVG/1.1/DTD/svg11.dtd">
<!-- Generated by graphviz version 2.26.3 (20100126.1600)
 -->
<!-- Title: G Pages: 1 -->
<svg width="542pt" height="507pt"
 viewBox="0.00 0.00 542.00 507.00" xmlns="http://www.w3.org/2000/svg" xmlns:xlink="http://www.w3.org/1999/xlink">
<g id="graph1" class="graph" transform="scale(1 1) rotate(0) translate(4 503)">
<title>G</title>
<polygon fill="white" stroke="white" points="-4,5 -4,-503 539,-503 539,5 -4,5"/>
<g id="graph2" class="cluster"><title>cluster_0</title>
<polygon fill="none" stroke="lightblue" points="8,-8 8,-491 526,-491 526,-8 8,-8"/>
<text text-anchor="middle" x="267" y="-474.4" font-family="Times Roman,serif" font-size="14.00">CAUSES(OCCURS(p), q)</text>
</g>
<g id="graph4" class="cluster"><title>cluster0_0</title>
<polygon fill="none" stroke="lightblue" points="16,-16 16,-414 518,-414 518,-16 16,-16"/>
<text text-anchor="middle" x="267" y="-397.4" font-family="Times Roman,serif" font-size="14.00">OCCURS(p)</text>
</g>
<g id="graph6" class="cluster"><title>cluster00_0</title>
<polygon fill="none" stroke="lightblue" points="24,-24 24,-317 510,-317 510,-24 24,-24"/>
<text text-anchor="middle" x="267" y="-300.4" font-family="Times Roman,serif" font-size="14.00">OR(NEG(p), NULL(p))</text>
</g>
<!-- _p0_0 -->
<g id="node3" class="node"><title>_p0_0</title>
<ellipse fill="none" stroke="black" cx="123" cy="-440" rx="18" ry="18"/>
<text text-anchor="middle" x="123" y="-435.9" font-family="Times Roman,serif" font-size="14.00">q</text>
</g>
<!-- _p0_00 -->
<g id="node5" class="node"><title>_p0_00</title>
<ellipse fill="none" stroke="black" cx="340" cy="-353" rx="18" ry="18"/>
<text text-anchor="middle" x="340" y="-348.9" font-family="Times Roman,serif" font-size="14.00">OCCURS(p)</text>
</g>
<!-- _t0_01 -->
<g id="node19" class="node"><title>_t0_01</title>
<polygon fill="none" stroke="black" points="68,-284 32,-284 32,-248 68,-248 68,-284"/>
<text text-anchor="middle" x="50" y="-261.9" font-family="Times Roman,serif" font-size="14.00">q</text>
</g>
<!-- _p0_00&#45;&gt;_t0_01 -->
<g id="edge18" class="edge"><title>_p0_00&#45;&gt;_t0_01</title>
<path fill="none" stroke="black" d="M323.299,-360.408C305.144,-367.474 275.332,-376.193 250,-370 183.061,-353.636 113.589,-310.583 76.7353,-285.295"/>
<polygon fill="black" stroke="black" points="78.2967,-282.118 68.09,-279.276 74.297,-287.863 78.2967,-282.118"/>
</g>
<!-- _t0_00 -->
<g id="node7" class="node"><title>_t0_00</title>
<polygon fill="none" stroke="black" points="286,-361 250,-361 250,-325 286,-325 286,-361"/>
<text text-anchor="middle" x="268" y="-338.9" font-family="Times Roman,serif" font-size="14.00">p</text>
</g>
<!-- _t0_00&#45;&gt;_p0_00 -->
<g id="edge13" class="edge"><title>_t0_00&#45;&gt;_p0_00</title>
<path fill="none" stroke="black" d="M286.169,-345.523C293.988,-346.609 303.308,-347.904 311.978,-349.108"/>
<polygon fill="black" stroke="black" points="311.7,-352.603 322.087,-350.512 312.663,-345.67 311.7,-352.603"/>
</g>
<!-- _p0_000 -->
<g id="node9" class="node"><title>_p0_000</title>
<ellipse fill="none" stroke="black" cx="196" cy="-239" rx="18" ry="18"/>
<text text-anchor="middle" x="196" y="-234.9" font-family="Times Roman,serif" font-size="14.00">OR(NEG(p), NULL(p))</text>
</g>
<!-- _p0_000&#45;&gt;_t0_00 -->
<g id="edge15" class="edge"><title>_p0_000&#45;&gt;_t0_00</title>
<path fill="none" stroke="black" d="M207.741,-252.727C209.894,-255.417 212.069,-258.255 214,-261 230.076,-283.852 231.881,-293.542 247.133,-316.558"/>
<polygon fill="black" stroke="black" points="244.319,-318.643 252.86,-324.912 250.092,-314.685 244.319,-318.643"/>
</g>
<!-- _p1_000 -->
<g id="node10" class="node"><title>_p1_000</title>
<ellipse fill="none" stroke="black" cx="50" cy="-212" rx="18" ry="18"/>
<text text-anchor="middle" x="50" y="-207.9" font-family="Times Roman,serif" font-size="14.00">NEG(p)</text>
</g>
<!-- _t0_000 -->
<g id="node12" class="node"><title>_t0_000</title>
<polygon fill="none" stroke="black" points="142,-230 104,-230 104,-194 142,-194 142,-230"/>
<text text-anchor="middle" x="123" y="-207.9" font-family="Times Roman,serif" font-size="14.00">OR</text>
</g>
<!-- _p1_000&#45;&gt;_t0_000 -->
<g id="edge9" class="edge"><title>_p1_000&#45;&gt;_t0_000</title>
<path fill="none" stroke="black" d="M68.0449,-212C75.7893,-212 85.0378,-212 93.7189,-212"/>
<polygon fill="black" stroke="black" points="93.8872,-215.5 103.887,-212 93.8871,-208.5 93.8872,-215.5"/>
</g>
<!-- _p2_000 -->
<g id="node11" class="node"><title>_p2_000</title>
<ellipse fill="none" stroke="black" cx="50" cy="-158" rx="18" ry="18"/>
<text text-anchor="middle" x="50" y="-153.9" font-family="Times Roman,serif" font-size="14.00">NULL(p)</text>
</g>
<!-- _p2_000&#45;&gt;_t0_000 -->
<g id="edge11" class="edge"><title>_p2_000&#45;&gt;_t0_000</title>
<path fill="none" stroke="black" d="M64.7726,-168.928C73.6485,-175.493 85.2196,-184.053 95.706,-191.81"/>
<polygon fill="black" stroke="black" points="93.6902,-194.672 103.811,-197.806 97.8531,-189.045 93.6902,-194.672"/>
</g>
<!-- _t0_000&#45;&gt;_p0_000 -->
<g id="edge7" class="edge"><title>_t0_000&#45;&gt;_p0_000</title>
<path fill="none" stroke="black" d="M142.18,-219.094C150.405,-222.136 160.159,-225.744 169.088,-229.046"/>
<polygon fill="black" stroke="black" points="168.101,-232.413 178.694,-232.599 170.529,-225.848 168.101,-232.413"/>
</g>
<!-- _t0_01&#45;&gt;_p0_0 -->
<g id="edge20" class="edge"><title>_t0_01&#45;&gt;_p0_0</title>
<path fill="none" stroke="black" d="M54.1456,-284.256C61.3496,-313.78 77.9496,-373.217 104,-418 104.054,-418.093 104.108,-418.185 104.163,-418.278"/>
<polygon fill="black" stroke="black" points="101.455,-420.509 110.101,-426.631 107.16,-416.453 101.455,-420.509"/>
</g>
<!-- _p0_1 -->
<g id="node23" class="node"><title>_p0_1</title>
<ellipse fill="none" stroke="black" cx="484" cy="-77" rx="18" ry="18"/>
<text text-anchor="middle" x="484" y="-72.9" font-family="Times Roman,serif" font-size="14.00">r</text>
</g>
<!-- _p0_10 -->
<g id="node25" class="node"><title>_p0_10</title>
<ellipse fill="none" stroke="black" cx="340" cy="-77" rx="18" ry="18"/>
<text text-anchor="middle" x="340" y="-72.9" font-family="Times Roman,serif" font-size="14.00">OCCURS(q)</text>
</g>
<!-- _t0_11 -->
<g id="node38" class="node"><title>_t0_11</title>
<polygon fill="none" stroke="black" points="430,-95 394,-95 394,-59 430,-59 430,-95"/>
<text text-anchor="middle" x="412" y="-72.9" font-family="Times Roman,serif" font-size="14.00">r</text>
</g>
<!-- _p0_10&#45;&gt;_t0_11 -->
<g id="edge36" class="edge"><title>_p0_10&#45;&gt;_t0_11</title>
<path fill="none" stroke="black" d="M358.169,-77C365.869,-77 375.026,-77 383.583,-77"/>
<polygon fill="black" stroke="black" points="383.587,-80.5001 393.587,-77 383.587,-73.5001 383.587,-80.5001"/>
</g>
<!-- _t0_10 -->
<g id="node26" class="node"><title>_t0_10</title>
<polygon fill="none" stroke="black" points="286,-95 250,-95 250,-59 286,-59 286,-95"/>
<text text-anchor="middle" x="268" y="-72.9" font-family="Times Roman,serif" font-size="14.00">q</text>
</g>
<!-- _t0_10&#45;&gt;_p0_10 -->
<g id="edge31" class="edge"><title>_t0_10&#45;&gt;_p0_10</title>
<path fill="none" stroke="black" d="M286.169,-77C293.869,-77 303.026,-77 311.583,-77"/>
<polygon fill="black" stroke="black" points="311.587,-80.5001 321.587,-77 311.587,-73.5001 311.587,-80.5001"/>
</g>
<!-- _p0_100 -->
<g id="node28" class="node"><title>_p0_100</title>
<ellipse fill="none" stroke="black" cx="196" cy="-77" rx="18" ry="18"/>
<text text-anchor="middle" x="196" y="-72.9" font-family="Times Roman,serif" font-size="14.00">OR(NEG(q), NULL(q))</text>
</g>
<!-- _p0_100&#45;&gt;_t0_10 -->
<g id="edge33" class="edge"><title>_p0_100&#45;&gt;_t0_10</title>
<path fill="none" stroke="black" d="M214.169,-77C221.869,-77 231.026,-77 239.583,-77"/>
<polygon fill="black" stroke="black" points="239.587,-80.5001 249.587,-77 239.587,-73.5001 239.587,-80.5001"/>
</g>
<!-- _p1_100 -->
<g id="node29" class="node"><title>_p1_100</title>
<ellipse fill="none" stroke="black" cx="50" cy="-104" rx="18" ry="18"/>
<text text-anchor="middle" x="50" y="-99.9" font-family="Times Roman,serif" font-size="14.00">NEG(q)</text>
</g>
<!-- _t0_100 -->
<g id="node31" class="node"><title>_t0_100</title>
<polygon fill="none" stroke="black" points="142,-95 104,-95 104,-59 142,-59 142,-95"/>
<text text-anchor="middle" x="123" y="-72.9" font-family="Times Roman,serif" font-size="14.00">OR</text>
</g>
<!-- _p1_100&#45;&gt;_t0_100 -->
<g id="edge27" class="edge"><title>_p1_100&#45;&gt;_t0_100</title>
<path fill="none" stroke="black" d="M66.9312,-97.7378C75.0351,-94.7404 84.9663,-91.0672 94.207,-87.6495"/>
<polygon fill="black" stroke="black" points="95.6791,-90.8368 103.844,-84.0851 93.2508,-84.2715 95.6791,-90.8368"/>
</g>
<!-- _p2_100 -->
<g id="node30" class="node"><title>_p2_100</title>
<ellipse fill="none" stroke="black" cx="50" cy="-50" rx="18" ry="18"/>
<text text-anchor="middle" x="50" y="-45.9" font-family="Times Roman,serif" font-size="14.00">NULL(q)</text>
</g>
<!-- _p2_100&#45;&gt;_t0_100 -->
<g id="edge29" class="edge"><title>_p2_100&#45;&gt;_t0_100</title>
<path fill="none" stroke="black" d="M66.9312,-56.2622C75.0351,-59.2596 84.9663,-62.9328 94.207,-66.3505"/>
<polygon fill="black" stroke="black" points="93.2508,-69.7285 103.844,-69.9149 95.6791,-63.1632 93.2508,-69.7285"/>
</g>
<!-- _t0_100&#45;&gt;_p0_100 -->
<g id="edge25" class="edge"><title>_t0_100&#45;&gt;_p0_100</title>
<path fill="none" stroke="black" d="M142.18,-77C149.903,-77 158.972,-77 167.442,-77"/>
<polygon fill="black" stroke="black" points="167.703,-80.5001 177.703,-77 167.703,-73.5001 167.703,-80.5001"/>
</g>
<!-- _t0_11&#45;&gt;_p0_1 -->
<g id="edge38" class="edge"><title>_t0_11&#45;&gt;_p0_1</title>
<path fill="none" stroke="black" d="M430.169,-77C437.869,-77 447.026,-77 455.583,-77"/>
<polygon fill="black" stroke="black" points="455.587,-80.5001 465.587,-77 455.587,-73.5001 455.587,-80.5001"/>
</g>
</g>
</svg>
