<?xml version="1.0" encoding="UTF-8" standalone="no"?>
<!DOCTYPE svg PUBLIC "-//W3C//DTD SVG 1.1//EN"
 "http://www.w3.org/Graphics/SVG/1.1/DTD/svg11.dtd">
<!-- Generated by graphviz version 2.26.3 (20100126.1600)
 -->
<!-- Title: G Pages: 1 -->
<svg width="626pt" height="516pt"
 viewBox="0.00 0.00 626.00 516.18" xmlns="http://www.w3.org/2000/svg" xmlns:xlink="http://www.w3.org/1999/xlink">
<g id="graph1" class="graph" transform="scale(1 1) rotate(0) translate(4 512.185)">
<title>G</title>
<polygon fill="white" stroke="white" points="-4,5 -4,-512.185 623,-512.185 623,5 -4,5"/>
<g id="graph4" class="cluster"><title>cluster_0</title>
<polygon fill="none" stroke="lightblue" points="92,-17.185 92,-500.185 610,-500.185 610,-17.185 92,-17.185"/>
<text text-anchor="middle" x="351" y="-483.585" font-family="Times Roman,serif" font-size="14.00">CAUSES(OCCURS(p), q)</text>
</g>
<g id="graph5" class="cluster"><title>cluster0_0</title>
<polygon fill="none" stroke="lightblue" points="100,-25.185 100,-423.185 602,-423.185 602,-25.185 100,-25.185"/>
<text text-anchor="middle" x="351" y="-406.585" font-family="Times Roman,serif" font-size="14.00">OCCURS(p)</text>
</g>
<g id="graph6" class="cluster"><title>cluster00_0</title>
<polygon fill="none" stroke="lightblue" points="108,-33.185 108,-326.185 594,-326.185 594,-33.185 108,-33.185"/>
<text text-anchor="middle" x="351" y="-309.585" font-family="Times Roman,serif" font-size="14.00">OR(NEG(p), NULL(p))</text>
</g>
<!-- _p0 -->
<g id="node2" class="node"><title>_p0</title>
<ellipse fill="black" stroke="black" cx="76" cy="-144.185" rx="3" ry="3.5"/>
</g>
<!-- _t0_01 -->
<g id="node21" class="node"><title>_t0_01</title>
<polygon fill="none" stroke="black" points="152,-293.185 116,-293.185 116,-257.185 152,-257.185 152,-293.185"/>
<text text-anchor="middle" x="134" y="-271.085" font-family="Times Roman,serif" font-size="14.00">q</text>
</g>
<!-- _p0&#45;&gt;_t0_01 -->
<g id="edge42" class="edge"><title>_p0&#45;&gt;_t0_01</title>
<path fill="none" stroke="black" d="M76.1444,-147.422C76.8948,-163.074 80.7555,-230.874 92,-248.185 97.6662,-256.908 107.249,-263.386 115.831,-267.807"/>
</g>
<!-- _t0_10 -->
<g id="node28" class="node"><title>_t0_10</title>
<polygon fill="none" stroke="black" points="370,-77.185 334,-77.185 334,-41.185 370,-41.185 370,-77.185"/>
<text text-anchor="middle" x="352" y="-55.085" font-family="Times Roman,serif" font-size="14.00">q</text>
</g>
<!-- _p0&#45;&gt;_t0_10 -->
<g id="edge44" class="edge"><title>_p0&#45;&gt;_t0_10</title>
<path fill="none" stroke="black" d="M76.1976,-141.183C77.3519,-124.093 83.4679,-39.5849 92,-32.185 161.166,27.8024 208.894,-11.1498 298,-32.185 310.649,-35.1711 323.714,-41.5991 333.824,-47.4341"/>
</g>
<!-- _t0 -->
<g id="node4" class="node"><title>_t0</title>
<polygon fill="none" stroke="black" points="36,-162.185 1.42109e-14,-162.185 0,-126.185 36,-126.185 36,-162.185"/>
<text text-anchor="middle" x="18" y="-140.085" font-family="Times Roman,serif" font-size="14.00">q</text>
</g>
<!-- _t0&#45;&gt;_p0 -->
<g id="edge40" class="edge"><title>_t0&#45;&gt;_p0</title>
<path fill="none" stroke="black" d="M36.0336,-144.185C48.8032,-144.185 64.8995,-144.185 72.1495,-144.185"/>
</g>
<!-- _p0_0 -->
<g id="node6" class="node"><title>_p0_0</title>
<ellipse fill="none" stroke="black" cx="207" cy="-449.185" rx="18" ry="18"/>
<text text-anchor="middle" x="207" y="-445.085" font-family="Times Roman,serif" font-size="14.00">q</text>
</g>
<!-- _p0_00 -->
<g id="node8" class="node"><title>_p0_00</title>
<ellipse fill="none" stroke="black" cx="424" cy="-362.185" rx="18" ry="18"/>
<text text-anchor="middle" x="424" y="-358.085" font-family="Times Roman,serif" font-size="14.00">OCCURS(p)</text>
</g>
<!-- _p0_00&#45;&gt;_t0_01 -->
<g id="edge18" class="edge"><title>_p0_00&#45;&gt;_t0_01</title>
<path fill="none" stroke="black" d="M407.299,-369.593C389.144,-376.659 359.332,-385.378 334,-379.185 267.061,-362.821 197.589,-319.768 160.735,-294.48"/>
<polygon fill="black" stroke="black" points="162.297,-291.303 152.09,-288.461 158.297,-297.048 162.297,-291.303"/>
</g>
<!-- _t0_00 -->
<g id="node9" class="node"><title>_t0_00</title>
<polygon fill="none" stroke="black" points="370,-370.185 334,-370.185 334,-334.185 370,-334.185 370,-370.185"/>
<text text-anchor="middle" x="352" y="-348.085" font-family="Times Roman,serif" font-size="14.00">p</text>
</g>
<!-- _t0_00&#45;&gt;_p0_00 -->
<g id="edge13" class="edge"><title>_t0_00&#45;&gt;_p0_00</title>
<path fill="none" stroke="black" d="M370.169,-354.708C377.988,-355.794 387.308,-357.089 395.978,-358.293"/>
<polygon fill="black" stroke="black" points="395.7,-361.788 406.087,-359.697 396.663,-354.855 395.7,-361.788"/>
</g>
<!-- _p0_000 -->
<g id="node11" class="node"><title>_p0_000</title>
<ellipse fill="none" stroke="black" cx="280" cy="-248.185" rx="18" ry="18"/>
<text text-anchor="middle" x="280" y="-244.085" font-family="Times Roman,serif" font-size="14.00">OR(NEG(p), NULL(p))</text>
</g>
<!-- _p0_000&#45;&gt;_t0_00 -->
<g id="edge15" class="edge"><title>_p0_000&#45;&gt;_t0_00</title>
<path fill="none" stroke="black" d="M291.741,-261.912C293.894,-264.602 296.069,-267.44 298,-270.185 314.076,-293.037 315.881,-302.727 331.133,-325.743"/>
<polygon fill="black" stroke="black" points="328.319,-327.828 336.86,-334.097 334.092,-323.87 328.319,-327.828"/>
</g>
<!-- _p1_000 -->
<g id="node12" class="node"><title>_p1_000</title>
<ellipse fill="none" stroke="black" cx="134" cy="-221.185" rx="18" ry="18"/>
<text text-anchor="middle" x="134" y="-217.085" font-family="Times Roman,serif" font-size="14.00">NEG(p)</text>
</g>
<!-- _t0_000 -->
<g id="node14" class="node"><title>_t0_000</title>
<polygon fill="none" stroke="black" points="226,-239.185 188,-239.185 188,-203.185 226,-203.185 226,-239.185"/>
<text text-anchor="middle" x="207" y="-217.085" font-family="Times Roman,serif" font-size="14.00">OR</text>
</g>
<!-- _p1_000&#45;&gt;_t0_000 -->
<g id="edge9" class="edge"><title>_p1_000&#45;&gt;_t0_000</title>
<path fill="none" stroke="black" d="M152.045,-221.185C159.789,-221.185 169.038,-221.185 177.719,-221.185"/>
<polygon fill="black" stroke="black" points="177.887,-224.685 187.887,-221.185 177.887,-217.685 177.887,-224.685"/>
</g>
<!-- _p2_000 -->
<g id="node13" class="node"><title>_p2_000</title>
<ellipse fill="none" stroke="black" cx="134" cy="-167.185" rx="18" ry="18"/>
<text text-anchor="middle" x="134" y="-163.085" font-family="Times Roman,serif" font-size="14.00">NULL(p)</text>
</g>
<!-- _p2_000&#45;&gt;_t0_000 -->
<g id="edge11" class="edge"><title>_p2_000&#45;&gt;_t0_000</title>
<path fill="none" stroke="black" d="M148.773,-178.113C157.649,-184.678 169.22,-193.238 179.706,-200.995"/>
<polygon fill="black" stroke="black" points="177.69,-203.857 187.811,-206.99 181.853,-198.23 177.69,-203.857"/>
</g>
<!-- _t0_000&#45;&gt;_p0_000 -->
<g id="edge7" class="edge"><title>_t0_000&#45;&gt;_p0_000</title>
<path fill="none" stroke="black" d="M226.18,-228.279C234.405,-231.321 244.159,-234.929 253.088,-238.231"/>
<polygon fill="black" stroke="black" points="252.101,-241.598 262.694,-241.784 254.529,-235.033 252.101,-241.598"/>
</g>
<!-- _t0_01&#45;&gt;_p0_0 -->
<g id="edge20" class="edge"><title>_t0_01&#45;&gt;_p0_0</title>
<path fill="none" stroke="black" d="M138.146,-293.441C145.35,-322.965 161.95,-382.402 188,-427.185 188.054,-427.278 188.108,-427.37 188.163,-427.463"/>
<polygon fill="black" stroke="black" points="185.455,-429.694 194.101,-435.816 191.16,-425.638 185.455,-429.694"/>
</g>
<!-- _p0_1 -->
<g id="node25" class="node"><title>_p0_1</title>
<ellipse fill="none" stroke="black" cx="568" cy="-59.185" rx="18" ry="18"/>
<text text-anchor="middle" x="568" y="-55.085" font-family="Times Roman,serif" font-size="14.00">r</text>
</g>
<!-- _p0_10 -->
<g id="node27" class="node"><title>_p0_10</title>
<ellipse fill="none" stroke="black" cx="424" cy="-59.185" rx="18" ry="18"/>
<text text-anchor="middle" x="424" y="-55.085" font-family="Times Roman,serif" font-size="14.00">OCCURS(q)</text>
</g>
<!-- _t0_11 -->
<g id="node40" class="node"><title>_t0_11</title>
<polygon fill="none" stroke="black" points="514,-77.185 478,-77.185 478,-41.185 514,-41.185 514,-77.185"/>
<text text-anchor="middle" x="496" y="-55.085" font-family="Times Roman,serif" font-size="14.00">r</text>
</g>
<!-- _p0_10&#45;&gt;_t0_11 -->
<g id="edge36" class="edge"><title>_p0_10&#45;&gt;_t0_11</title>
<path fill="none" stroke="black" d="M442.169,-59.185C449.869,-59.185 459.026,-59.185 467.583,-59.185"/>
<polygon fill="black" stroke="black" points="467.587,-62.6851 477.587,-59.185 467.587,-55.6851 467.587,-62.6851"/>
</g>
<!-- _t0_10&#45;&gt;_p0_10 -->
<g id="edge31" class="edge"><title>_t0_10&#45;&gt;_p0_10</title>
<path fill="none" stroke="black" d="M370.169,-59.185C377.869,-59.185 387.026,-59.185 395.583,-59.185"/>
<polygon fill="black" stroke="black" points="395.587,-62.6851 405.587,-59.185 395.587,-55.6851 395.587,-62.6851"/>
</g>
<!-- _p0_100 -->
<g id="node30" class="node"><title>_p0_100</title>
<ellipse fill="none" stroke="black" cx="280" cy="-59.185" rx="18" ry="18"/>
<text text-anchor="middle" x="280" y="-55.085" font-family="Times Roman,serif" font-size="14.00">OR(NEG(q), NULL(q))</text>
</g>
<!-- _p0_100&#45;&gt;_t0_10 -->
<g id="edge33" class="edge"><title>_p0_100&#45;&gt;_t0_10</title>
<path fill="none" stroke="black" d="M298.169,-59.185C305.869,-59.185 315.026,-59.185 323.583,-59.185"/>
<polygon fill="black" stroke="black" points="323.587,-62.6851 333.587,-59.185 323.587,-55.6851 323.587,-62.6851"/>
</g>
<!-- _p1_100 -->
<g id="node31" class="node"><title>_p1_100</title>
<ellipse fill="none" stroke="black" cx="134" cy="-113.185" rx="18" ry="18"/>
<text text-anchor="middle" x="134" y="-109.085" font-family="Times Roman,serif" font-size="14.00">NEG(q)</text>
</g>
<!-- _t0_100 -->
<g id="node33" class="node"><title>_t0_100</title>
<polygon fill="none" stroke="black" points="226,-77.185 188,-77.185 188,-41.185 226,-41.185 226,-77.185"/>
<text text-anchor="middle" x="207" y="-55.085" font-family="Times Roman,serif" font-size="14.00">OR</text>
</g>
<!-- _p1_100&#45;&gt;_t0_100 -->
<g id="edge27" class="edge"><title>_p1_100&#45;&gt;_t0_100</title>
<path fill="none" stroke="black" d="M148.773,-102.257C157.649,-95.6915 169.22,-87.1321 179.706,-79.375"/>
<polygon fill="black" stroke="black" points="181.853,-82.1403 187.811,-73.3794 177.69,-76.5127 181.853,-82.1403"/>
</g>
<!-- _p2_100 -->
<g id="node32" class="node"><title>_p2_100</title>
<ellipse fill="none" stroke="black" cx="134" cy="-59.185" rx="18" ry="18"/>
<text text-anchor="middle" x="134" y="-55.085" font-family="Times Roman,serif" font-size="14.00">NULL(q)</text>
</g>
<!-- _p2_100&#45;&gt;_t0_100 -->
<g id="edge29" class="edge"><title>_p2_100&#45;&gt;_t0_100</title>
<path fill="none" stroke="black" d="M152.045,-59.185C159.789,-59.185 169.038,-59.185 177.719,-59.185"/>
<polygon fill="black" stroke="black" points="177.887,-62.6851 187.887,-59.185 177.887,-55.6851 177.887,-62.6851"/>
</g>
<!-- _t0_100&#45;&gt;_p0_100 -->
<g id="edge25" class="edge"><title>_t0_100&#45;&gt;_p0_100</title>
<path fill="none" stroke="black" d="M226.18,-59.185C233.903,-59.185 242.972,-59.185 251.442,-59.185"/>
<polygon fill="black" stroke="black" points="251.703,-62.6851 261.703,-59.185 251.703,-55.6851 251.703,-62.6851"/>
</g>
<!-- _t0_11&#45;&gt;_p0_1 -->
<g id="edge38" class="edge"><title>_t0_11&#45;&gt;_p0_1</title>
<path fill="none" stroke="black" d="M514.169,-59.185C521.869,-59.185 531.026,-59.185 539.583,-59.185"/>
<polygon fill="black" stroke="black" points="539.587,-62.6851 549.587,-59.185 539.587,-55.6851 539.587,-62.6851"/>
</g>
</g>
</svg>
