<?xml version="1.0" encoding="UTF-8" standalone="no"?>
<!DOCTYPE svg PUBLIC "-//W3C//DTD SVG 1.1//EN"
 "http://www.w3.org/Graphics/SVG/1.1/DTD/svg11.dtd">
<!-- Generated by graphviz version 2.26.3 (20100126.1600)
 -->
<!-- Title: G Pages: 1 -->
<svg width="352pt" height="271pt"
 viewBox="0.00 0.00 352.00 271.00" xmlns="http://www.w3.org/2000/svg" xmlns:xlink="http://www.w3.org/1999/xlink">
<g id="graph1" class="graph" transform="scale(1 1) rotate(0) translate(4 267)">
<title>G</title>
<polygon fill="white" stroke="white" points="-4,5 -4,-267 349,-267 349,5 -4,5"/>
<g id="graph4" class="cluster"><title>cluster_0</title>
<polygon fill="none" stroke="lightblue" points="56,-8 56,-234 336,-234 336,-8 56,-8"/>
<text text-anchor="middle" x="196" y="-217.4" font-family="Times Roman,serif" font-size="14.00">IMPLIES(p, q)</text>
</g>
<g id="graph5" class="cluster"><title>cluster0_0</title>
<polygon fill="none" stroke="lightblue" points="174,-16 174,-201 226,-201 226,-16 174,-16"/>
<text text-anchor="middle" x="200" y="-184.4" font-family="Times Roman,serif" font-size="14.00">p</text>
</g>
<g id="graph6" class="cluster"><title>cluster0_1</title>
<polygon fill="none" stroke="lightblue" points="64,-124 64,-201 154,-201 154,-124 64,-124"/>
<text text-anchor="middle" x="109" y="-184.4" font-family="Times Roman,serif" font-size="14.00">q</text>
</g>
<!-- _p0 -->
<g id="node2" class="node"><title>_p0</title>
<ellipse fill="none" stroke="black" cx="18" cy="-245" rx="18" ry="18"/>
<text text-anchor="middle" x="18" y="-240.9" font-family="Times Roman,serif" font-size="14.00">q</text>
</g>
<!-- _t0 -->
<g id="node4" class="node"><title>_t0</title>
<polygon fill="black" stroke="black" points="112,-248.5 106,-248.5 106,-241.5 112,-241.5 112,-248.5"/>
</g>
<!-- _p0&#45;&gt;_t0 -->
<g id="edge22" class="edge"><title>_p0&#45;&gt;_t0</title>
<path fill="none" stroke="black" d="M36.4152,-245C58.4354,-245 93.7627,-245 105.256,-245"/>
</g>
<!-- _p0_01 -->
<g id="node10" class="node"><title>_p0_01</title>
<ellipse fill="none" stroke="black" cx="200" cy="-150" rx="18" ry="18"/>
<text text-anchor="middle" x="200" y="-145.9" font-family="Times Roman,serif" font-size="14.00">q</text>
</g>
<!-- _t0&#45;&gt;_p0_01 -->
<g id="edge24" class="edge"><title>_t0&#45;&gt;_p0_01</title>
<path fill="none" stroke="black" d="M109.78,-241.907C114.276,-231.792 137.258,-213.254 154,-196 165.096,-184.565 176.596,-170.815 185.322,-161.049"/>
</g>
<!-- _t0&#45;&gt;_p0_01 -->
<g id="edge26" class="edge"><title>_t0&#45;&gt;_p0_01</title>
<path fill="none" stroke="black" d="M112.906,-246.822C120.934,-244.339 139.733,-228.703 154,-214 168.476,-199.081 183.641,-180.221 192.436,-166.412"/>
</g>
<!-- _t0_0 -->
<g id="node6" class="node"><title>_t0_0</title>
<polygon fill="none" stroke="black" points="145,-168 73,-168 73,-132 145,-132 145,-168"/>
<text text-anchor="middle" x="109" y="-145.9" font-family="Times Roman,serif" font-size="14.00">IMPLIES</text>
</g>
<!-- _t0_0&#45;&gt;_p0_01 -->
<g id="edge7" class="edge"><title>_t0_0&#45;&gt;_p0_01</title>
<path fill="none" stroke="black" d="M145.751,-136.724C155.678,-136.21 166.183,-136.581 175.277,-137.838"/>
<polygon fill="black" stroke="black" points="174.709,-141.293 185.186,-139.721 176.015,-134.416 174.709,-141.293"/>
</g>
<!-- _t0_0&#45;&gt;_p0_01 -->
<g id="edge11" class="edge"><title>_t0_0&#45;&gt;_p0_01</title>
<path fill="none" stroke="black" d="M145.751,-150C154.394,-150 163.475,-150 171.682,-150"/>
<polygon fill="black" stroke="black" points="171.856,-153.5 181.856,-150 171.856,-146.5 171.856,-153.5"/>
</g>
<!-- _t0_0&#45;&gt;_p0_01 -->
<g id="edge15" class="edge"><title>_t0_0&#45;&gt;_p0_01</title>
<path fill="none" stroke="black" d="M145.751,-163.276C155.678,-163.79 166.183,-163.419 175.277,-162.162"/>
<polygon fill="black" stroke="black" points="176.015,-165.584 185.186,-160.279 174.709,-158.707 176.015,-165.584"/>
</g>
<!-- _p0_00 -->
<g id="node8" class="node"><title>_p0_00</title>
<ellipse fill="none" stroke="black" cx="200" cy="-96" rx="18" ry="18"/>
<text text-anchor="middle" x="200" y="-91.9" font-family="Times Roman,serif" font-size="14.00">p</text>
</g>
<!-- _p0_00&#45;&gt;_t0_0 -->
<g id="edge9" class="edge"><title>_p0_00&#45;&gt;_t0_0</title>
<path fill="none" stroke="black" d="M184.462,-105.221C174.476,-111.146 161.025,-119.128 148.245,-126.712"/>
<polygon fill="black" stroke="black" points="146.369,-123.755 139.555,-131.869 149.941,-129.775 146.369,-123.755"/>
</g>
<!-- _t0_1 -->
<g id="node15" class="node"><title>_t0_1</title>
<polygon fill="none" stroke="black" points="327,-114 255,-114 255,-78 327,-78 327,-114"/>
<text text-anchor="middle" x="291" y="-91.9" font-family="Times Roman,serif" font-size="14.00">IMPLIES</text>
</g>
<!-- _p0_01&#45;&gt;_t0_1 -->
<g id="edge18" class="edge"><title>_p0_01&#45;&gt;_t0_1</title>
<path fill="none" stroke="black" d="M215.851,-140.594C225.864,-134.652 239.269,-126.698 251.984,-119.152"/>
<polygon fill="black" stroke="black" points="253.813,-122.137 260.627,-114.023 250.241,-116.117 253.813,-122.137"/>
</g>
<!-- _p0_11 -->
<g id="node19" class="node"><title>_p0_11</title>
<ellipse fill="none" stroke="black" cx="200" cy="-42" rx="18" ry="18"/>
<text text-anchor="middle" x="200" y="-37.9" font-family="Times Roman,serif" font-size="14.00">r</text>
</g>
<!-- _t0_1&#45;&gt;_p0_11 -->
<g id="edge20" class="edge"><title>_t0_1&#45;&gt;_p0_11</title>
<path fill="none" stroke="black" d="M260.627,-77.9766C248.916,-71.027 235.696,-63.1821 224.596,-56.5955"/>
<polygon fill="black" stroke="black" points="226.237,-53.4994 215.851,-51.4061 222.665,-59.5193 226.237,-53.4994"/>
</g>
</g>
</svg>
