<?xml version="1.0" encoding="UTF-8" standalone="no"?>
<!DOCTYPE svg PUBLIC "-//W3C//DTD SVG 1.1//EN"
 "http://www.w3.org/Graphics/SVG/1.1/DTD/svg11.dtd">
<!-- Generated by graphviz version 2.26.3 (20100126.1600)
 -->
<!-- Title: G Pages: 1 -->
<svg width="350pt" height="250pt"
 viewBox="0.00 0.00 350.00 250.00" xmlns="http://www.w3.org/2000/svg" xmlns:xlink="http://www.w3.org/1999/xlink">
<g id="graph1" class="graph" transform="scale(1 1) rotate(0) translate(4 246)">
<title>G</title>
<polygon fill="white" stroke="white" points="-4,5 -4,-246 347,-246 347,5 -4,5"/>
<g id="graph2" class="cluster"><title>cluster_0</title>
<polygon fill="none" stroke="lightblue" points="8,-8 8,-234 334,-234 334,-8 8,-8"/>
<text text-anchor="middle" x="171" y="-217.4" font-family="Times Roman,serif" font-size="14.00">IMPLIES(AND(p, q), r)</text>
</g>
<g id="graph4" class="cluster"><title>cluster0_0</title>
<polygon fill="none" stroke="lightblue" points="16,-16 16,-201 224,-201 224,-16 16,-16"/>
<text text-anchor="middle" x="120" y="-184.4" font-family="Times Roman,serif" font-size="14.00">AND(p, q)</text>
</g>
<!-- _t0_0 -->
<g id="node3" class="node"><title>_t0_0</title>
<polygon fill="none" stroke="black" points="325,-140 253,-140 253,-104 325,-104 325,-140"/>
<text text-anchor="middle" x="289" y="-117.9" font-family="Times Roman,serif" font-size="14.00">IMPLIES</text>
</g>
<!-- _p0_01 -->
<g id="node14" class="node"><title>_p0_01</title>
<ellipse fill="none" stroke="black" cx="42" cy="-150" rx="18" ry="18"/>
<text text-anchor="middle" x="42" y="-145.9" font-family="Times Roman,serif" font-size="14.00">r</text>
</g>
<!-- _t0_0&#45;&gt;_p0_01 -->
<g id="edge15" class="edge"><title>_t0_0&#45;&gt;_p0_01</title>
<path fill="none" stroke="black" d="M252.414,-126.147C202.817,-131.77 115.295,-141.691 70.3629,-146.785"/>
<polygon fill="black" stroke="black" points="69.7046,-143.337 60.1625,-147.941 70.4931,-150.292 69.7046,-143.337"/>
</g>
<!-- _p0_00 -->
<g id="node6" class="node"><title>_p0_00</title>
<ellipse fill="none" stroke="black" cx="198" cy="-100" rx="18" ry="18"/>
<text text-anchor="middle" x="198" y="-95.9" font-family="Times Roman,serif" font-size="14.00">AND(p, q)</text>
</g>
<!-- _p0_00&#45;&gt;_t0_0 -->
<g id="edge13" class="edge"><title>_p0_00&#45;&gt;_t0_0</title>
<path fill="none" stroke="black" d="M215.546,-104.242C223.289,-106.114 232.795,-108.412 242.369,-110.727"/>
<polygon fill="black" stroke="black" points="241.756,-114.179 252.298,-113.127 243.401,-107.375 241.756,-114.179"/>
</g>
<!-- _p1_00 -->
<g id="node7" class="node"><title>_p1_00</title>
<ellipse fill="none" stroke="black" cx="42" cy="-96" rx="18" ry="18"/>
<text text-anchor="middle" x="42" y="-91.9" font-family="Times Roman,serif" font-size="14.00">p</text>
</g>
<!-- _t0_00 -->
<g id="node9" class="node"><title>_t0_00</title>
<polygon fill="none" stroke="black" points="144,-114 96,-114 96,-78 144,-78 144,-114"/>
<text text-anchor="middle" x="120" y="-91.9" font-family="Times Roman,serif" font-size="14.00">AND</text>
</g>
<!-- _p1_00&#45;&gt;_t0_00 -->
<g id="edge8" class="edge"><title>_p1_00&#45;&gt;_t0_00</title>
<path fill="none" stroke="black" d="M60.0908,-96C67.7246,-96 76.8758,-96 85.7012,-96"/>
<polygon fill="black" stroke="black" points="85.8012,-99.5001 95.8012,-96 85.8012,-92.5001 85.8012,-99.5001"/>
</g>
<!-- _p2_00 -->
<g id="node8" class="node"><title>_p2_00</title>
<ellipse fill="none" stroke="black" cx="42" cy="-42" rx="18" ry="18"/>
<text text-anchor="middle" x="42" y="-37.9" font-family="Times Roman,serif" font-size="14.00">q</text>
</g>
<!-- _p2_00&#45;&gt;_t0_00 -->
<g id="edge10" class="edge"><title>_p2_00&#45;&gt;_t0_00</title>
<path fill="none" stroke="black" d="M57.0392,-52.4117C65.7021,-58.4092 76.9403,-66.1894 87.5197,-73.5137"/>
<polygon fill="black" stroke="black" points="85.587,-76.4325 95.8012,-79.247 89.5715,-70.6772 85.587,-76.4325"/>
</g>
<!-- _t0_00&#45;&gt;_p0_00 -->
<g id="edge6" class="edge"><title>_t0_00&#45;&gt;_p0_00</title>
<path fill="none" stroke="black" d="M144.252,-97.2437C152.302,-97.6565 161.335,-98.1197 169.664,-98.5469"/>
<polygon fill="black" stroke="black" points="169.546,-102.045 179.712,-99.0622 169.905,-95.0545 169.546,-102.045"/>
</g>
</g>
</svg>
