<?xml version="1.0" encoding="UTF-8" standalone="no"?>
<!DOCTYPE svg PUBLIC "-//W3C//DTD SVG 1.1//EN"
 "http://www.w3.org/Graphics/SVG/1.1/DTD/svg11.dtd">
<!-- Generated by graphviz version 2.26.3 (20100126.1600)
 -->
<!-- Title: G Pages: 1 -->
<svg width="390pt" height="379pt"
 viewBox="0.00 0.00 390.00 379.00" xmlns="http://www.w3.org/2000/svg" xmlns:xlink="http://www.w3.org/1999/xlink">
<g id="graph1" class="graph" transform="scale(1 1) rotate(0) translate(4 375)">
<title>G</title>
<polygon fill="white" stroke="white" points="-4,5 -4,-375 387,-375 387,5 -4,5"/>
<g id="graph2" class="cluster"><title>cluster_0</title>
<polygon fill="none" stroke="lightblue" points="8,-8 8,-363 374,-363 374,-8 8,-8"/>
<text text-anchor="middle" x="191" y="-346.4" font-family="Times Roman,serif" font-size="14.00">CAUSES(OCCURS(p, q), r)</text>
</g>
<g id="graph4" class="cluster"><title>cluster0_0</title>
<polygon fill="none" stroke="lightblue" points="16,-16 16,-286 366,-286 366,-16 16,-16"/>
<text text-anchor="middle" x="191" y="-269.4" font-family="Times Roman,serif" font-size="14.00">OCCURS(p, q)</text>
</g>
<g id="graph6" class="cluster"><title>cluster00_0</title>
<polygon fill="none" stroke="lightblue" points="24,-68 24,-253 222,-253 222,-68 24,-68"/>
<text text-anchor="middle" x="123" y="-236.4" font-family="Times Roman,serif" font-size="14.00">OR(NEG(p), NULL(p))</text>
</g>
<!-- _p0_0 -->
<g id="node3" class="node"><title>_p0_0</title>
<ellipse fill="none" stroke="black" cx="123" cy="-312" rx="18" ry="18"/>
<text text-anchor="middle" x="123" y="-307.9" font-family="Times Roman,serif" font-size="14.00">r</text>
</g>
<!-- _p0_00 -->
<g id="node5" class="node"><title>_p0_00</title>
<ellipse fill="none" stroke="black" cx="340" cy="-151" rx="18" ry="18"/>
<text text-anchor="middle" x="340" y="-146.9" font-family="Times Roman,serif" font-size="14.00">OCCURS(p, q)</text>
</g>
<!-- _t0_01 -->
<g id="node21" class="node"><title>_t0_01</title>
<polygon fill="none" stroke="black" points="68,-220 32,-220 32,-184 68,-184 68,-220"/>
<text text-anchor="middle" x="50" y="-197.9" font-family="Times Roman,serif" font-size="14.00">r</text>
</g>
<!-- _p0_00&#45;&gt;_t0_01 -->
<g id="edge20" class="edge"><title>_p0_00&#45;&gt;_t0_01</title>
<path fill="none" stroke="black" d="M322.056,-152.584C282.373,-156.305 184.318,-166.699 104,-185 95.4158,-186.956 86.2273,-189.625 77.9084,-192.268"/>
<polygon fill="black" stroke="black" points="76.6983,-188.981 68.2917,-195.429 78.8846,-195.631 76.6983,-188.981"/>
</g>
<!-- _p1_00 -->
<g id="node6" class="node"><title>_p1_00</title>
<ellipse fill="none" stroke="black" cx="196" cy="-42" rx="18" ry="18"/>
<text text-anchor="middle" x="196" y="-37.9" font-family="Times Roman,serif" font-size="14.00">q</text>
</g>
<!-- _t0_00 -->
<g id="node8" class="node"><title>_t0_00</title>
<polygon fill="none" stroke="black" points="286,-140 250,-140 250,-104 286,-104 286,-140"/>
<text text-anchor="middle" x="268" y="-117.9" font-family="Times Roman,serif" font-size="14.00">p</text>
</g>
<!-- _p1_00&#45;&gt;_t0_00 -->
<g id="edge15" class="edge"><title>_p1_00&#45;&gt;_t0_00</title>
<path fill="none" stroke="black" d="M210.218,-53.1598C214.176,-56.4952 218.379,-60.2627 222,-64 231.501,-73.8076 241.04,-85.4651 248.947,-95.7475"/>
<polygon fill="black" stroke="black" points="246.352,-98.118 255.17,-103.99 251.938,-93.9004 246.352,-98.118"/>
</g>
<!-- _t0_00&#45;&gt;_p0_00 -->
<g id="edge13" class="edge"><title>_t0_00&#45;&gt;_p0_00</title>
<path fill="none" stroke="black" d="M286.169,-129.318C294.49,-132.67 304.512,-136.706 313.641,-140.383"/>
<polygon fill="black" stroke="black" points="312.49,-143.693 323.074,-144.182 315.106,-137.2 312.49,-143.693"/>
</g>
<!-- _p0_000 -->
<g id="node10" class="node"><title>_p0_000</title>
<ellipse fill="none" stroke="black" cx="196" cy="-122" rx="18" ry="18"/>
<text text-anchor="middle" x="196" y="-117.9" font-family="Times Roman,serif" font-size="14.00">OR(NEG(p), NULL(p))</text>
</g>
<!-- _p0_000&#45;&gt;_t0_00 -->
<g id="edge17" class="edge"><title>_p0_000&#45;&gt;_t0_00</title>
<path fill="none" stroke="black" d="M214.169,-122C221.869,-122 231.026,-122 239.583,-122"/>
<polygon fill="black" stroke="black" points="239.587,-125.5 249.587,-122 239.587,-118.5 239.587,-125.5"/>
</g>
<!-- _p1_000 -->
<g id="node11" class="node"><title>_p1_000</title>
<ellipse fill="none" stroke="black" cx="50" cy="-148" rx="18" ry="18"/>
<text text-anchor="middle" x="50" y="-143.9" font-family="Times Roman,serif" font-size="14.00">NEG(p)</text>
</g>
<!-- _t0_000 -->
<g id="node13" class="node"><title>_t0_000</title>
<polygon fill="none" stroke="black" points="142,-140 104,-140 104,-104 142,-104 142,-140"/>
<text text-anchor="middle" x="123" y="-117.9" font-family="Times Roman,serif" font-size="14.00">OR</text>
</g>
<!-- _p1_000&#45;&gt;_t0_000 -->
<g id="edge9" class="edge"><title>_p1_000&#45;&gt;_t0_000</title>
<path fill="none" stroke="black" d="M67.3,-141.838C75.3503,-138.971 85.1427,-135.483 94.2582,-132.237"/>
<polygon fill="black" stroke="black" points="95.5234,-135.502 103.769,-128.849 93.1747,-128.907 95.5234,-135.502"/>
</g>
<!-- _p2_000 -->
<g id="node12" class="node"><title>_p2_000</title>
<ellipse fill="none" stroke="black" cx="50" cy="-94" rx="18" ry="18"/>
<text text-anchor="middle" x="50" y="-89.9" font-family="Times Roman,serif" font-size="14.00">NULL(p)</text>
</g>
<!-- _p2_000&#45;&gt;_t0_000 -->
<g id="edge11" class="edge"><title>_p2_000&#45;&gt;_t0_000</title>
<path fill="none" stroke="black" d="M66.9312,-100.494C75.1213,-103.636 85.1778,-107.493 94.5017,-111.069"/>
<polygon fill="black" stroke="black" points="93.2538,-114.339 103.844,-114.652 95.7607,-107.803 93.2538,-114.339"/>
</g>
<!-- _t0_000&#45;&gt;_p0_000 -->
<g id="edge7" class="edge"><title>_t0_000&#45;&gt;_p0_000</title>
<path fill="none" stroke="black" d="M142.18,-122C149.903,-122 158.972,-122 167.442,-122"/>
<polygon fill="black" stroke="black" points="167.703,-125.5 177.703,-122 167.703,-118.5 167.703,-125.5"/>
</g>
<!-- _t0_01&#45;&gt;_p0_0 -->
<g id="edge22" class="edge"><title>_t0_01&#45;&gt;_p0_0</title>
<path fill="none" stroke="black" d="M59.9443,-220.077C70.21,-238.262 87.0717,-266.849 104,-290 104.063,-290.087 104.127,-290.173 104.191,-290.26"/>
<polygon fill="black" stroke="black" points="101.627,-292.66 110.587,-298.314 107.109,-288.306 101.627,-292.66"/>
</g>
</g>
</svg>
