<?xml version="1.0" encoding="UTF-8" standalone="no"?>
<!DOCTYPE svg PUBLIC "-//W3C//DTD SVG 1.1//EN"
 "http://www.w3.org/Graphics/SVG/1.1/DTD/svg11.dtd">
<!-- Generated by graphviz version 2.26.3 (20100126.1600)
 -->
<!-- Title: G Pages: 1 -->
<svg width="60pt" height="350pt"
 viewBox="0.00 0.00 59.79 350.00" xmlns="http://www.w3.org/2000/svg" xmlns:xlink="http://www.w3.org/1999/xlink">
<g id="graph1" class="graph" transform="scale(1 1) rotate(0) translate(4 346)">
<title>G</title>
<polygon fill="white" stroke="white" points="-4,5 -4,-346 56.7916,-346 56.7916,5 -4,5"/>
<!-- null -->
<g id="node2" class="node"><title>null</title>
<ellipse fill="none" stroke="black" cx="25.8489" cy="-18" rx="18" ry="18"/>
<text text-anchor="middle" x="25.8489" y="-13.9" font-family="Times Roman,serif" font-size="14.00">q</text>
</g>
<!-- null&#45;&gt;null -->
<g id="edge4" class="edge"><title>null&#45;&gt;null</title>
<path fill="none" stroke="black" d="M24.4016,-36.1527C24.1789,-45.5391 24.6614,-54 25.8489,-54 26.5725,-54 27.0343,-50.8581 27.2343,-46.2796"/>
<polygon fill="black" stroke="black" points="30.7349,-46.1739 27.2961,-36.1527 23.735,-46.1311 30.7349,-46.1739"/>
</g>
<!-- null&#45;&gt;null -->
<g id="edge6" class="edge"><title>null&#45;&gt;null</title>
<path fill="none" stroke="black" d="M23.4438,-35.9782C22.1565,-53.1996 22.9582,-72 25.8489,-72 28.2878,-72 29.2397,-58.6158 28.7043,-44.0887"/>
<ellipse fill="black" stroke="black" cx="28.4758" cy="-39.9721" rx="4" ry="4"/>
</g>
<!-- null&#45;&gt;null -->
<g id="edge24" class="edge"><title>null&#45;&gt;null</title>
<path fill="none" stroke="black" d="M21.2045,-35.6109C3.97651,-111.102 5.52464,-234 25.8489,-234 45.2998,-234 47.5535,-121.437 32.6101,-45.5913"/>
<polygon fill="black" stroke="black" points="35.992,-44.6671 30.4933,-35.6109 29.1443,-46.1195 35.992,-44.6671"/>
</g>
<!-- null&#45;&gt;null -->
<g id="edge26" class="edge"><title>null&#45;&gt;null</title>
<path fill="none" stroke="black" d="M21.1423,-35.5286C1.96751,-117.166 3.53636,-252 25.8489,-252 47.2898,-252 49.576,-127.494 32.7075,-45.3279"/>
<polygon fill="black" stroke="black" points="36.1191,-44.5451 30.5554,-35.5286 29.282,-46.0467 36.1191,-44.5451"/>
</g>
<!-- null&#45;&gt;null -->
<g id="edge28" class="edge"><title>null&#45;&gt;null</title>
<path fill="none" stroke="black" d="M21.0793,-35.4965C-0.0398331,-123.265 1.55003,-270 25.8489,-270 49.246,-270 51.5883,-133.954 32.8758,-45.5007"/>
<polygon fill="black" stroke="black" points="36.2337,-44.4809 30.6185,-35.4965 29.4054,-46.0217 36.2337,-44.4809"/>
</g>
<!-- null&#45;&gt;null -->
<g id="edge30" class="edge"><title>null&#45;&gt;null</title>
<path fill="none" stroke="black" d="M20.9988,-35.5704C-2.04516,-129.467 -0.428484,-288 25.8489,-288 51.2281,-288 53.6036,-140.119 32.9754,-45.4161"/>
<polygon fill="black" stroke="black" points="36.3617,-44.5249 30.6989,-35.5704 29.5416,-46.1019 36.3617,-44.5249"/>
</g>
<!-- null&#45;&gt;null -->
<g id="edge32" class="edge"><title>null&#45;&gt;null</title>
<path fill="none" stroke="black" d="M20.9621,-35.4947C-4.05155,-135.488 -2.42262,-306 25.8489,-306 53.2093,-306 55.6166,-146.301 33.0709,-45.3737"/>
<polygon fill="black" stroke="black" points="36.4423,-44.4213 30.7356,-35.4947 29.6301,-46.0317 36.4423,-44.4213"/>
</g>
<!-- null&#45;&gt;null -->
<g id="edge34" class="edge"><title>null&#45;&gt;null</title>
<path fill="none" stroke="black" d="M20.886,-35.5995C-6.05544,-141.702 -4.40114,-324 25.8489,-324 55.1831,-324 57.6268,-152.573 33.18,-45.4381"/>
<polygon fill="black" stroke="black" points="36.5548,-44.5027 30.8118,-35.5995 29.7492,-46.1409 36.5548,-44.5027"/>
</g>
<!-- null&#45;&gt;null -->
<g id="edge36" class="edge"><title>null&#45;&gt;null</title>
<path fill="none" stroke="black" d="M20.8428,-35.5926C-8.06006,-147.781 -6.39137,-342 25.8489,-342 57.3335,-342 59.6628,-156.778 32.8368,-43.6124"/>
<ellipse fill="black" stroke="black" cx="31.8146" cy="-39.4758" rx="4.00001" ry="4.00001"/>
</g>
<!-- null&#45;&gt;null -->
<g id="edge8" class="edge"><title>null&#45;&gt;null</title>
<path fill="none" stroke="black" d="M22.8125,-36.0781C20.1258,-60.4094 21.1379,-90 25.8489,-90 29.9157,-90 31.226,-67.9475 29.7798,-46.2636"/>
<polygon fill="black" stroke="black" points="33.2468,-45.7335 28.8852,-36.0781 26.2736,-46.346 33.2468,-45.7335"/>
</g>
<!-- null&#45;&gt;null -->
<g id="edge10" class="edge"><title>null&#45;&gt;null</title>
<path fill="none" stroke="black" d="M22.3717,-36.1124C18.0961,-67.2398 19.2551,-108 25.8489,-108 31.7472,-108 33.2967,-75.3843 30.4975,-46.2236"/>
<polygon fill="black" stroke="black" points="33.9538,-45.6431 29.326,-36.1124 27.0003,-46.4488 33.9538,-45.6431"/>
</g>
<!-- null&#45;&gt;null -->
<g id="edge12" class="edge"><title>null&#45;&gt;null</title>
<path fill="none" stroke="black" d="M22.0981,-35.7983C16.0634,-73.5488 17.3137,-126 25.8489,-126 33.6505,-126 35.3656,-82.1765 30.9941,-45.8139"/>
<polygon fill="black" stroke="black" points="34.4452,-45.2201 29.5997,-35.7983 27.5121,-46.1854 34.4452,-45.2201"/>
</g>
<!-- null&#45;&gt;null -->
<g id="edge14" class="edge"><title>null&#45;&gt;null</title>
<path fill="none" stroke="black" d="M21.8588,-35.769C14.0423,-79.9743 15.3723,-144 25.8489,-144 35.5479,-144 37.4076,-89.1254 31.4282,-45.9049"/>
<polygon fill="black" stroke="black" points="34.8458,-45.1062 29.839,-35.769 27.9303,-46.1905 34.8458,-45.1062"/>
</g>
<!-- null&#45;&gt;null -->
<g id="edge16" class="edge"><title>null&#45;&gt;null</title>
<path fill="none" stroke="black" d="M21.6936,-35.6173C12.0224,-86.1852 13.4075,-162 25.8489,-162 37.4884,-162 39.4509,-95.6432 31.7363,-45.6826"/>
<polygon fill="black" stroke="black" points="35.1495,-44.8788 30.0041,-35.6173 28.2509,-46.0661 35.1495,-44.8788"/>
</g>
<!-- null&#45;&gt;null -->
<g id="edge18" class="edge"><title>null&#45;&gt;null</title>
<path fill="none" stroke="black" d="M21.5439,-35.584C10.0076,-92.444 11.4426,-180 25.8489,-180 39.5798,-180 41.5271,-100.46 31.6906,-43.7701"/>
<ellipse fill="black" stroke="black" cx="30.8919" cy="-39.5153" rx="4.00001" ry="4.00001"/>
</g>
<!-- null&#45;&gt;null -->
<g id="edge20" class="edge"><title>null&#45;&gt;null</title>
<path fill="none" stroke="black" d="M21.4332,-35.4943C7.99415,-98.5939 9.46605,-198 25.8489,-198 41.3997,-198 43.5156,-108.433 32.1965,-45.3702"/>
<polygon fill="black" stroke="black" points="35.6194,-44.6363 30.2645,-35.4943 28.7496,-45.9802 35.6194,-44.6363"/>
</g>
<!-- null&#45;&gt;null -->
<g id="edge22" class="edge"><title>null&#45;&gt;null</title>
<path fill="none" stroke="black" d="M21.3307,-35.4653C5.98344,-104.768 7.48948,-216 25.8489,-216 43.3476,-216 45.5361,-114.952 32.4141,-45.4716"/>
<polygon fill="black" stroke="black" points="35.8004,-44.5608 30.367,-35.4653 28.9424,-45.9639 35.8004,-44.5608"/>
</g>
</g>
</svg>
