<?xml version="1.0" encoding="UTF-8" standalone="no"?>
<!DOCTYPE svg PUBLIC "-//W3C//DTD SVG 1.1//EN"
 "http://www.w3.org/Graphics/SVG/1.1/DTD/svg11.dtd">
<!-- Generated by graphviz version 2.26.3 (20100126.1600)
 -->
<!-- Title: G Pages: 1 -->
<svg width="194pt" height="98pt"
 viewBox="0.00 0.00 194.00 98.00" xmlns="http://www.w3.org/2000/svg" xmlns:xlink="http://www.w3.org/1999/xlink">
<g id="graph1" class="graph" transform="scale(1 1) rotate(0) translate(4 94)">
<title>G</title>
<polygon fill="white" stroke="white" points="-4,5 -4,-94 191,-94 191,5 -4,5"/>
<!-- pl0 -->
<g id="node2" class="node"><title>pl0</title>
<ellipse fill="none" stroke="black" cx="18" cy="-45" rx="18" ry="18"/>
<text text-anchor="middle" x="18" y="-40.9" font-family="Times Roman,serif" font-size="14.00">OR(NEG(p), NOT(r))</text>
</g>
<!-- tr0 -->
<g id="node6" class="node"><title>tr0</title>
<polygon fill="none" stroke="black" points="114,-90 72,-90 72,-54 114,-54 114,-90"/>
<text text-anchor="middle" x="93" y="-67.9" font-family="Times Roman,serif" font-size="14.00">null</text>
</g>
<!-- pl0&#45;&gt;tr0 -->
<g id="edge10" class="edge"><title>pl0&#45;&gt;tr0</title>
<path fill="none" stroke="black" d="M36.1554,-45.6577C44.6389,-47.8716 54.9414,-51.3476 64.4331,-55.1391"/>
<ellipse fill="black" stroke="black" cx="68.131" cy="-56.6858" rx="4.00002" ry="4.00002"/>
</g>
<!-- tr1 -->
<g id="node7" class="node"><title>tr1</title>
<polygon fill="none" stroke="black" points="114,-36 72,-36 72,-1.77636e-14 114,-3.55271e-15 114,-36"/>
<text text-anchor="middle" x="93" y="-13.9" font-family="Times Roman,serif" font-size="14.00">null</text>
</g>
<!-- pl0&#45;&gt;tr1 -->
<g id="edge18" class="edge"><title>pl0&#45;&gt;tr1</title>
<path fill="none" stroke="black" d="M32.8176,-34.1619C41.7305,-29.826 53.3816,-25.2691 64.0558,-21.8285"/>
<ellipse fill="black" stroke="black" cx="68.1376" cy="-20.5948" rx="4.00001" ry="4.00001"/>
</g>
<!-- pl1 -->
<g id="node3" class="node"><title>pl1</title>
<ellipse fill="none" stroke="black" cx="168" cy="-72" rx="18" ry="18"/>
<text text-anchor="middle" x="168" y="-67.9" font-family="Times Roman,serif" font-size="14.00">NEG(p)</text>
</g>
<!-- pl1&#45;&gt;tr0 -->
<g id="edge6" class="edge"><title>pl1&#45;&gt;tr0</title>
<path fill="none" stroke="black" d="M150.94,-77.7652C143.127,-78.6039 133.608,-78.9069 124.562,-78.6742"/>
<polygon fill="black" stroke="black" points="124.455,-75.1644 114.291,-78.1551 124.102,-82.1555 124.455,-75.1644"/>
</g>
<!-- pl2 -->
<g id="node4" class="node"><title>pl2</title>
<ellipse fill="none" stroke="black" cx="168" cy="-18" rx="18" ry="18"/>
<text text-anchor="middle" x="168" y="-13.9" font-family="Times Roman,serif" font-size="14.00">NOT(r)</text>
</g>
<!-- pl2&#45;&gt;tr1 -->
<g id="edge14" class="edge"><title>pl2&#45;&gt;tr1</title>
<path fill="none" stroke="black" d="M150.94,-23.7652C143.127,-24.6039 133.608,-24.9069 124.562,-24.6742"/>
<polygon fill="black" stroke="black" points="124.455,-21.1644 114.291,-24.1551 124.102,-28.1555 124.455,-21.1644"/>
</g>
<!-- tr0&#45;&gt;pl0 -->
<g id="edge8" class="edge"><title>tr0&#45;&gt;pl0</title>
<path fill="none" stroke="black" d="M71.9665,-70.5627C62.7135,-67.9693 51.7916,-64.1117 42.2024,-60.0706"/>
<polygon fill="black" stroke="black" points="43.3723,-56.7588 32.8176,-55.8381 40.4945,-63.1399 43.3723,-56.7588"/>
</g>
<!-- tr0&#45;&gt;pl1 -->
<g id="edge4" class="edge"><title>tr0&#45;&gt;pl1</title>
<path fill="none" stroke="black" d="M114.291,-65.8449C122.543,-65.2002 132.091,-65.0795 140.827,-65.4829"/>
<polygon fill="black" stroke="black" points="140.708,-68.9836 150.94,-66.2348 141.227,-62.0028 140.708,-68.9836"/>
</g>
<!-- tr1&#45;&gt;pl0 -->
<g id="edge16" class="edge"><title>tr1&#45;&gt;pl0</title>
<path fill="none" stroke="black" d="M71.8212,-31.7706C63.7413,-35.3163 54.4055,-38.8102 45.8011,-41.5368"/>
<polygon fill="black" stroke="black" points="44.78,-38.1887 36.1554,-44.3423 46.735,-44.9101 44.78,-38.1887"/>
</g>
<!-- tr1&#45;&gt;pl2 -->
<g id="edge12" class="edge"><title>tr1&#45;&gt;pl2</title>
<path fill="none" stroke="black" d="M114.291,-11.8449C122.543,-11.2002 132.091,-11.0795 140.827,-11.4829"/>
<polygon fill="black" stroke="black" points="140.708,-14.9836 150.94,-12.2348 141.227,-8.00284 140.708,-14.9836"/>
</g>
</g>
</svg>
