<?xml version="1.0" encoding="UTF-8" standalone="no"?>
<!DOCTYPE svg PUBLIC "-//W3C//DTD SVG 1.1//EN"
 "http://www.w3.org/Graphics/SVG/1.1/DTD/svg11.dtd">
<!-- Generated by graphviz version 2.26.3 (20100126.1600)
 -->
<!-- Title: G Pages: 1 -->
<svg width="194pt" height="206pt"
 viewBox="0.00 0.00 194.00 206.00" xmlns="http://www.w3.org/2000/svg" xmlns:xlink="http://www.w3.org/1999/xlink">
<g id="graph1" class="graph" transform="scale(1 1) rotate(0) translate(4 202)">
<title>G</title>
<polygon fill="white" stroke="white" points="-4,5 -4,-202 191,-202 191,5 -4,5"/>
<!-- pl0 -->
<g id="node2" class="node"><title>pl0</title>
<ellipse fill="none" stroke="black" cx="18" cy="-180" rx="18" ry="18"/>
<text text-anchor="middle" x="18" y="-175.9" font-family="Times Roman,serif" font-size="14.00">SEQ(POS(p), POS(q))</text>
</g>
<!-- tr2 -->
<g id="node9" class="node"><title>tr2</title>
<polygon fill="none" stroke="black" points="114,-198 72,-198 72,-162 114,-162 114,-198"/>
<text text-anchor="middle" x="93" y="-175.9" font-family="Times Roman,serif" font-size="14.00">null</text>
</g>
<!-- pl0&#45;&gt;tr2 -->
<g id="edge24" class="edge"><title>pl0&#45;&gt;tr2</title>
<path fill="none" stroke="black" d="M35.395,-174.199C43.8292,-173.316 54.1898,-173.049 63.7879,-173.399"/>
<ellipse fill="black" stroke="black" cx="67.9652" cy="-173.637" rx="4" ry="4"/>
</g>
<!-- pl1 -->
<g id="node3" class="node"><title>pl1</title>
<ellipse fill="none" stroke="black" cx="18" cy="-72" rx="18" ry="18"/>
<text text-anchor="middle" x="18" y="-67.9" font-family="Times Roman,serif" font-size="14.00">null</text>
</g>
<!-- tr0 -->
<g id="node7" class="node"><title>tr0</title>
<polygon fill="none" stroke="black" points="114,-90 72,-90 72,-54 114,-54 114,-90"/>
<text text-anchor="middle" x="93" y="-67.9" font-family="Times Roman,serif" font-size="14.00">null</text>
</g>
<!-- pl1&#45;&gt;tr0 -->
<g id="edge6" class="edge"><title>pl1&#45;&gt;tr0</title>
<path fill="none" stroke="black" d="M35.395,-66.1992C43.8292,-65.3159 54.1898,-65.0491 63.7879,-65.3987"/>
<ellipse fill="black" stroke="black" cx="67.9652" cy="-65.6369" rx="4" ry="4"/>
</g>
<!-- pl1&#45;&gt;tr2 -->
<g id="edge14" class="edge"><title>pl1&#45;&gt;tr2</title>
<path fill="none" stroke="black" d="M27.8243,-87.4544C38.4044,-103.924 55.892,-130.651 72,-153 72.1953,-153.271 72.3922,-153.543 72.5904,-153.816"/>
<polygon fill="black" stroke="black" points="69.7943,-155.921 78.5836,-161.837 75.4019,-151.731 69.7943,-155.921"/>
</g>
<!-- pl2 -->
<g id="node4" class="node"><title>pl2</title>
<ellipse fill="none" stroke="black" cx="168" cy="-72" rx="18" ry="18"/>
<text text-anchor="middle" x="168" y="-67.9" font-family="Times Roman,serif" font-size="14.00">POS(p)</text>
</g>
<!-- pl2&#45;&gt;tr0 -->
<g id="edge12" class="edge"><title>pl2&#45;&gt;tr0</title>
<path fill="none" stroke="black" d="M150.94,-77.7652C143.127,-78.6039 133.608,-78.9069 124.562,-78.6742"/>
<polygon fill="black" stroke="black" points="124.455,-75.1644 114.291,-78.1551 124.102,-82.1555 124.455,-75.1644"/>
</g>
<!-- pl3 -->
<g id="node5" class="node"><title>pl3</title>
<ellipse fill="none" stroke="black" cx="168" cy="-180" rx="18" ry="18"/>
<text text-anchor="middle" x="168" y="-175.9" font-family="Times Roman,serif" font-size="14.00">POS(q)</text>
</g>
<!-- pl3&#45;&gt;tr2 -->
<g id="edge20" class="edge"><title>pl3&#45;&gt;tr2</title>
<path fill="none" stroke="black" d="M150.94,-185.765C143.127,-186.604 133.608,-186.907 124.562,-186.674"/>
<polygon fill="black" stroke="black" points="124.455,-183.164 114.291,-186.155 124.102,-190.156 124.455,-183.164"/>
</g>
<!-- tr0&#45;&gt;pl1 -->
<g id="edge4" class="edge"><title>tr0&#45;&gt;pl1</title>
<path fill="none" stroke="black" d="M71.9587,-78.1354C63.7589,-78.7887 54.2494,-78.9212 45.5184,-78.5328"/>
<polygon fill="black" stroke="black" points="45.6214,-75.0312 35.395,-77.8008 45.1165,-82.013 45.6214,-75.0312"/>
</g>
<!-- tr0&#45;&gt;pl2 -->
<g id="edge10" class="edge"><title>tr0&#45;&gt;pl2</title>
<path fill="none" stroke="black" d="M114.291,-65.8449C122.543,-65.2002 132.091,-65.0795 140.827,-65.4829"/>
<polygon fill="black" stroke="black" points="140.708,-68.9836 150.94,-66.2348 141.227,-62.0028 140.708,-68.9836"/>
</g>
<!-- tr1 -->
<g id="node8" class="node"><title>tr1</title>
<polygon fill="none" stroke="black" points="114,-36 72,-36 72,-1.77636e-14 114,-3.55271e-15 114,-36"/>
<text text-anchor="middle" x="93" y="-13.9" font-family="Times Roman,serif" font-size="14.00">null</text>
</g>
<!-- tr1&#45;&gt;pl2 -->
<g id="edge8" class="edge"><title>tr1&#45;&gt;pl2</title>
<path fill="none" stroke="black" d="M114.291,-33.3298C123.938,-40.2754 135.357,-48.4969 145.18,-55.5694"/>
<polygon fill="black" stroke="black" points="143.156,-58.4252 153.317,-61.4279 147.246,-52.7445 143.156,-58.4252"/>
</g>
<!-- tr2&#45;&gt;pl0 -->
<g id="edge22" class="edge"><title>tr2&#45;&gt;pl0</title>
<path fill="none" stroke="black" d="M71.9587,-186.135C63.7589,-186.789 54.2494,-186.921 45.5184,-186.533"/>
<polygon fill="black" stroke="black" points="45.6214,-183.031 35.395,-185.801 45.1165,-190.013 45.6214,-183.031"/>
</g>
<!-- tr2&#45;&gt;pl3 -->
<g id="edge18" class="edge"><title>tr2&#45;&gt;pl3</title>
<path fill="none" stroke="black" d="M114.291,-173.845C122.543,-173.2 132.091,-173.079 140.827,-173.483"/>
<polygon fill="black" stroke="black" points="140.708,-176.984 150.94,-174.235 141.227,-170.003 140.708,-176.984"/>
</g>
<!-- tr3 -->
<g id="node10" class="node"><title>tr3</title>
<polygon fill="none" stroke="black" points="114,-144 72,-144 72,-108 114,-108 114,-144"/>
<text text-anchor="middle" x="93" y="-121.9" font-family="Times Roman,serif" font-size="14.00">null</text>
</g>
<!-- tr3&#45;&gt;pl3 -->
<g id="edge16" class="edge"><title>tr3&#45;&gt;pl3</title>
<path fill="none" stroke="black" d="M114.291,-141.33C123.938,-148.275 135.357,-156.497 145.18,-163.569"/>
<polygon fill="black" stroke="black" points="143.156,-166.425 153.317,-169.428 147.246,-160.744 143.156,-166.425"/>
</g>
</g>
</svg>
