<?xml version="1.0" encoding="UTF-8" standalone="no"?>
<!DOCTYPE svg PUBLIC "-//W3C//DTD SVG 1.1//EN"
 "http://www.w3.org/Graphics/SVG/1.1/DTD/svg11.dtd">
<!-- Generated by graphviz version 2.26.3 (20100126.1600)
 -->
<!-- Title: G Pages: 1 -->
<svg width="344pt" height="206pt"
 viewBox="0.00 0.00 344.00 206.00" xmlns="http://www.w3.org/2000/svg" xmlns:xlink="http://www.w3.org/1999/xlink">
<g id="graph1" class="graph" transform="scale(1 1) rotate(0) translate(4 202)">
<title>G</title>
<polygon fill="white" stroke="white" points="-4,5 -4,-202 341,-202 341,5 -4,5"/>
<!-- pl0 -->
<g id="node2" class="node"><title>pl0</title>
<ellipse fill="none" stroke="black" cx="18" cy="-126" rx="18" ry="18"/>
<text text-anchor="middle" x="18" y="-121.9" font-family="Times Roman,serif" font-size="14.00">SEQ(POS(q), AND(POS(p), POS(q)))</text>
</g>
<!-- tr2 -->
<g id="node11" class="node"><title>tr2</title>
<polygon fill="none" stroke="black" points="114,-144 72,-144 72,-108 114,-108 114,-144"/>
<text text-anchor="middle" x="93" y="-121.9" font-family="Times Roman,serif" font-size="14.00">null</text>
</g>
<!-- pl0&#45;&gt;tr2 -->
<g id="edge38" class="edge"><title>pl0&#45;&gt;tr2</title>
<path fill="none" stroke="black" d="M35.395,-120.199C43.8292,-119.316 54.1898,-119.049 63.7879,-119.399"/>
<ellipse fill="black" stroke="black" cx="67.9652" cy="-119.637" rx="4" ry="4"/>
</g>
<!-- pl1 -->
<g id="node3" class="node"><title>pl1</title>
<ellipse fill="none" stroke="black" cx="18" cy="-72" rx="18" ry="18"/>
<text text-anchor="middle" x="18" y="-67.9" font-family="Times Roman,serif" font-size="14.00">null</text>
</g>
<!-- tr0 -->
<g id="node9" class="node"><title>tr0</title>
<polygon fill="none" stroke="black" points="114,-90 72,-90 72,-54 114,-54 114,-90"/>
<text text-anchor="middle" x="93" y="-67.9" font-family="Times Roman,serif" font-size="14.00">null</text>
</g>
<!-- pl1&#45;&gt;tr0 -->
<g id="edge6" class="edge"><title>pl1&#45;&gt;tr0</title>
<path fill="none" stroke="black" d="M35.395,-66.1992C43.8292,-65.3159 54.1898,-65.0491 63.7879,-65.3987"/>
<ellipse fill="black" stroke="black" cx="67.9652" cy="-65.6369" rx="4" ry="4"/>
</g>
<!-- pl1&#45;&gt;tr2 -->
<g id="edge14" class="edge"><title>pl1&#45;&gt;tr2</title>
<path fill="none" stroke="black" d="M32.8176,-82.6687C41.6431,-89.023 53.1534,-97.3105 63.7416,-104.934"/>
<polygon fill="black" stroke="black" points="61.806,-107.853 71.9665,-110.856 65.8962,-102.172 61.806,-107.853"/>
</g>
<!-- pl2 -->
<g id="node4" class="node"><title>pl2</title>
<ellipse fill="none" stroke="black" cx="168" cy="-72" rx="18" ry="18"/>
<text text-anchor="middle" x="168" y="-67.9" font-family="Times Roman,serif" font-size="14.00">POS(q)</text>
</g>
<!-- pl2&#45;&gt;tr0 -->
<g id="edge12" class="edge"><title>pl2&#45;&gt;tr0</title>
<path fill="none" stroke="black" d="M150.94,-77.7652C143.127,-78.6039 133.608,-78.9069 124.562,-78.6742"/>
<polygon fill="black" stroke="black" points="124.455,-75.1644 114.291,-78.1551 124.102,-82.1555 124.455,-75.1644"/>
</g>
<!-- pl3 -->
<g id="node5" class="node"><title>pl3</title>
<ellipse fill="none" stroke="black" cx="168" cy="-126" rx="18" ry="18"/>
<text text-anchor="middle" x="168" y="-121.9" font-family="Times Roman,serif" font-size="14.00">AND(POS(p), POS(q))</text>
</g>
<!-- pl3&#45;&gt;tr2 -->
<g id="edge34" class="edge"><title>pl3&#45;&gt;tr2</title>
<path fill="none" stroke="black" d="M150.94,-131.765C143.127,-132.604 133.608,-132.907 124.562,-132.674"/>
<polygon fill="black" stroke="black" points="124.455,-129.164 114.291,-132.155 124.102,-136.156 124.455,-129.164"/>
</g>
<!-- tr3 -->
<g id="node12" class="node"><title>tr3</title>
<polygon fill="none" stroke="black" points="264,-144 222,-144 222,-108 264,-108 264,-144"/>
<text text-anchor="middle" x="243" y="-121.9" font-family="Times Roman,serif" font-size="14.00">null</text>
</g>
<!-- pl3&#45;&gt;tr3 -->
<g id="edge26" class="edge"><title>pl3&#45;&gt;tr3</title>
<path fill="none" stroke="black" d="M185.395,-120.199C193.829,-119.316 204.19,-119.049 213.788,-119.399"/>
<ellipse fill="black" stroke="black" cx="217.965" cy="-119.637" rx="4" ry="4"/>
</g>
<!-- pl4 -->
<g id="node6" class="node"><title>pl4</title>
<ellipse fill="none" stroke="black" cx="318" cy="-153" rx="18" ry="18"/>
<text text-anchor="middle" x="318" y="-148.9" font-family="Times Roman,serif" font-size="14.00">POS(p)</text>
</g>
<!-- pl4&#45;&gt;tr3 -->
<g id="edge18" class="edge"><title>pl4&#45;&gt;tr3</title>
<path fill="none" stroke="black" d="M299.958,-152.372C292.076,-150.322 282.608,-147.174 273.675,-143.693"/>
<polygon fill="black" stroke="black" points="274.87,-140.4 264.291,-139.82 272.2,-146.87 274.87,-140.4"/>
</g>
<!-- pl5 -->
<g id="node7" class="node"><title>pl5</title>
<ellipse fill="none" stroke="black" cx="318" cy="-99" rx="18" ry="18"/>
<text text-anchor="middle" x="318" y="-94.9" font-family="Times Roman,serif" font-size="14.00">POS(q)</text>
</g>
<!-- pl5&#45;&gt;tr3 -->
<g id="edge22" class="edge"><title>pl5&#45;&gt;tr3</title>
<path fill="none" stroke="black" d="M303.317,-109.773C294.978,-113.84 284.211,-118.107 274.087,-121.47"/>
<polygon fill="black" stroke="black" points="272.816,-118.199 264.291,-124.49 274.879,-124.889 272.816,-118.199"/>
</g>
<!-- tr0&#45;&gt;pl1 -->
<g id="edge4" class="edge"><title>tr0&#45;&gt;pl1</title>
<path fill="none" stroke="black" d="M71.9587,-78.1354C63.7589,-78.7887 54.2494,-78.9212 45.5184,-78.5328"/>
<polygon fill="black" stroke="black" points="45.6214,-75.0312 35.395,-77.8008 45.1165,-82.013 45.6214,-75.0312"/>
</g>
<!-- tr0&#45;&gt;pl2 -->
<g id="edge10" class="edge"><title>tr0&#45;&gt;pl2</title>
<path fill="none" stroke="black" d="M114.291,-65.8449C122.543,-65.2002 132.091,-65.0795 140.827,-65.4829"/>
<polygon fill="black" stroke="black" points="140.708,-68.9836 150.94,-66.2348 141.227,-62.0028 140.708,-68.9836"/>
</g>
<!-- tr1 -->
<g id="node10" class="node"><title>tr1</title>
<polygon fill="none" stroke="black" points="114,-36 72,-36 72,-1.77636e-14 114,-3.55271e-15 114,-36"/>
<text text-anchor="middle" x="93" y="-13.9" font-family="Times Roman,serif" font-size="14.00">null</text>
</g>
<!-- tr1&#45;&gt;pl2 -->
<g id="edge8" class="edge"><title>tr1&#45;&gt;pl2</title>
<path fill="none" stroke="black" d="M114.291,-33.3298C123.938,-40.2754 135.357,-48.4969 145.18,-55.5694"/>
<polygon fill="black" stroke="black" points="143.156,-58.4252 153.317,-61.4279 147.246,-52.7445 143.156,-58.4252"/>
</g>
<!-- tr2&#45;&gt;pl0 -->
<g id="edge36" class="edge"><title>tr2&#45;&gt;pl0</title>
<path fill="none" stroke="black" d="M71.9587,-132.135C63.7589,-132.789 54.2494,-132.921 45.5184,-132.533"/>
<polygon fill="black" stroke="black" points="45.6214,-129.031 35.395,-131.801 45.1165,-136.013 45.6214,-129.031"/>
</g>
<!-- tr2&#45;&gt;pl3 -->
<g id="edge32" class="edge"><title>tr2&#45;&gt;pl3</title>
<path fill="none" stroke="black" d="M114.291,-119.845C122.543,-119.2 132.091,-119.079 140.827,-119.483"/>
<polygon fill="black" stroke="black" points="140.708,-122.984 150.94,-120.235 141.227,-116.003 140.708,-122.984"/>
</g>
<!-- tr3&#45;&gt;pl3 -->
<g id="edge24" class="edge"><title>tr3&#45;&gt;pl3</title>
<path fill="none" stroke="black" d="M221.959,-132.135C213.759,-132.789 204.249,-132.921 195.518,-132.533"/>
<polygon fill="black" stroke="black" points="195.621,-129.031 185.395,-131.801 195.117,-136.013 195.621,-129.031"/>
</g>
<!-- tr3&#45;&gt;pl4 -->
<g id="edge16" class="edge"><title>tr3&#45;&gt;pl4</title>
<path fill="none" stroke="black" d="M264.291,-127.51C273.548,-130.119 284.437,-133.975 293.981,-138.007"/>
<polygon fill="black" stroke="black" points="292.763,-141.297 303.317,-142.227 295.646,-134.919 292.763,-141.297"/>
</g>
<!-- tr3&#45;&gt;pl5 -->
<g id="edge20" class="edge"><title>tr3&#45;&gt;pl5</title>
<path fill="none" stroke="black" d="M264.291,-112.18C272.384,-108.634 281.725,-105.143 290.323,-102.424"/>
<polygon fill="black" stroke="black" points="291.33,-105.776 299.958,-99.6281 289.379,-99.0536 291.33,-105.776"/>
</g>
<!-- tr4 -->
<g id="node13" class="node"><title>tr4</title>
<polygon fill="none" stroke="black" points="264,-198 222,-198 222,-162 264,-162 264,-198"/>
<text text-anchor="middle" x="243" y="-175.9" font-family="Times Roman,serif" font-size="14.00">null</text>
</g>
<!-- tr4&#45;&gt;pl4 -->
<g id="edge28" class="edge"><title>tr4&#45;&gt;pl4</title>
<path fill="none" stroke="black" d="M264.291,-172.335C272.724,-169.299 282.511,-165.776 291.402,-162.575"/>
<polygon fill="black" stroke="black" points="292.717,-165.822 300.94,-159.141 290.346,-159.236 292.717,-165.822"/>
</g>
<!-- tr5 -->
<g id="node14" class="node"><title>tr5</title>
<polygon fill="none" stroke="black" points="264,-90 222,-90 222,-54 264,-54 264,-90"/>
<text text-anchor="middle" x="243" y="-67.9" font-family="Times Roman,serif" font-size="14.00">null</text>
</g>
<!-- tr5&#45;&gt;pl5 -->
<g id="edge30" class="edge"><title>tr5&#45;&gt;pl5</title>
<path fill="none" stroke="black" d="M264.291,-79.6649C272.724,-82.7007 282.511,-86.2239 291.402,-89.4248"/>
<polygon fill="black" stroke="black" points="290.346,-92.7644 300.94,-92.8585 292.717,-86.1781 290.346,-92.7644"/>
</g>
</g>
</svg>
