<?xml version="1.0" encoding="UTF-8" standalone="no"?>
<!DOCTYPE svg PUBLIC "-//W3C//DTD SVG 1.1//EN"
 "http://www.w3.org/Graphics/SVG/1.1/DTD/svg11.dtd">
<!-- Generated by graphviz version 2.26.3 (20100126.1600)
 -->
<!-- Title: G Pages: 1 -->
<svg width="344pt" height="159pt"
 viewBox="0.00 0.00 344.00 159.47" xmlns="http://www.w3.org/2000/svg" xmlns:xlink="http://www.w3.org/1999/xlink">
<g id="graph1" class="graph" transform="scale(1 1) rotate(0) translate(4 155.47)">
<title>G</title>
<polygon fill="white" stroke="white" points="-4,5 -4,-155.47 341,-155.47 341,5 -4,5"/>
<!-- pl0 -->
<g id="node2" class="node"><title>pl0</title>
<ellipse fill="none" stroke="black" cx="18" cy="-114" rx="18" ry="18"/>
<text text-anchor="middle" x="18" y="-109.9" font-family="Times Roman,serif" font-size="14.00">ALT(POS(q), NEG(p))</text>
</g>
<!-- tr0 -->
<g id="node6" class="node"><title>tr0</title>
<polygon fill="none" stroke="black" points="114,-78 72,-78 72,-42 114,-42 114,-78"/>
<text text-anchor="middle" x="93" y="-55.9" font-family="Times Roman,serif" font-size="14.00">null</text>
</g>
<!-- pl0&#45;&gt;tr0 -->
<g id="edge12" class="edge"><title>pl0&#45;&gt;tr0</title>
<path fill="none" stroke="black" d="M30.05,-100.209C39.4651,-91.9626 52.9327,-81.7862 64.9966,-73.6086"/>
<ellipse fill="black" stroke="black" cx="68.5579" cy="-71.2579" rx="4.00002" ry="4.00002"/>
</g>
<!-- tr2 -->
<g id="node8" class="node"><title>tr2</title>
<polygon fill="none" stroke="black" points="264,-128 222,-128 222,-92 264,-92 264,-128"/>
<text text-anchor="middle" x="243" y="-105.9" font-family="Times Roman,serif" font-size="14.00">null</text>
</g>
<!-- pl0&#45;&gt;tr2 -->
<g id="edge22" class="edge"><title>pl0&#45;&gt;tr2</title>
<path fill="none" stroke="black" d="M35.689,-117.542C45.8643,-122.378 59.1465,-128.966 72,-132 90.5997,-136.391 181.398,-129.17 186,-128 195.603,-125.559 205.54,-121.47 214.374,-117.6"/>
<ellipse fill="black" stroke="black" cx="218.16" cy="-115.923" rx="4.00002" ry="4.00002"/>
</g>
<!-- pl1 -->
<g id="node3" class="node"><title>pl1</title>
<ellipse fill="none" stroke="black" cx="168" cy="-110" rx="18" ry="18"/>
<text text-anchor="middle" x="168" y="-105.9" font-family="Times Roman,serif" font-size="14.00">POS(q)</text>
</g>
<!-- pl1&#45;&gt;tr0 -->
<g id="edge8" class="edge"><title>pl1&#45;&gt;tr0</title>
<path fill="none" stroke="black" d="M150.702,-104.259C141.547,-99.1207 130.101,-91.7269 119.823,-84.3824"/>
<polygon fill="black" stroke="black" points="121.665,-81.3925 111.539,-78.2753 117.511,-87.0267 121.665,-81.3925"/>
</g>
<!-- pl1&#45;&gt;tr2 -->
<g id="edge26" class="edge"><title>pl1&#45;&gt;tr2</title>
<path fill="none" stroke="black" d="M186.155,-110C194.387,-110 204.331,-110 213.585,-110"/>
<ellipse fill="black" stroke="black" cx="217.821" cy="-110" rx="4" ry="4"/>
</g>
<!-- pl2 -->
<g id="node4" class="node"><title>pl2</title>
<ellipse fill="none" stroke="black" cx="318" cy="-87" rx="18" ry="18"/>
<text text-anchor="middle" x="318" y="-82.9" font-family="Times Roman,serif" font-size="14.00">NEG(p)</text>
</g>
<!-- pl2&#45;&gt;tr0 -->
<g id="edge24" class="edge"><title>pl2&#45;&gt;tr0</title>
<path fill="none" stroke="black" d="M299.907,-84.8288C261.053,-80.1664 169.347,-69.1617 122.164,-63.4997"/>
<ellipse fill="black" stroke="black" cx="118.139" cy="-63.0167" rx="4.00001" ry="4.00001"/>
</g>
<!-- pl2&#45;&gt;tr2 -->
<g id="edge18" class="edge"><title>pl2&#45;&gt;tr2</title>
<path fill="none" stroke="black" d="M302.851,-97.1909C294.627,-100.728 284.145,-104.316 274.259,-107.08"/>
<polygon fill="black" stroke="black" points="273.114,-103.76 264.291,-109.626 274.846,-110.542 273.114,-103.76"/>
</g>
<!-- tr0&#45;&gt;pl0 -->
<g id="edge10" class="edge"><title>tr0&#45;&gt;pl0</title>
<path fill="none" stroke="black" d="M75.7891,-78.1732C66.2334,-86.0676 54.163,-94.976 43.5279,-102.054"/>
<polygon fill="black" stroke="black" points="41.5498,-99.165 35.0187,-107.507 45.3267,-105.059 41.5498,-99.165"/>
</g>
<!-- tr0&#45;&gt;pl1 -->
<g id="edge6" class="edge"><title>tr0&#45;&gt;pl1</title>
<path fill="none" stroke="black" d="M114.291,-68.0392C124.712,-74.1721 137.201,-82.5194 147.512,-90.251"/>
<polygon fill="black" stroke="black" points="145.531,-93.1449 155.568,-96.5385 149.838,-87.6267 145.531,-93.1449"/>
</g>
<!-- tr1 -->
<g id="node7" class="node"><title>tr1</title>
<polygon fill="none" stroke="black" points="114,-132 72,-132 72,-96 114,-96 114,-132"/>
<text text-anchor="middle" x="93" y="-109.9" font-family="Times Roman,serif" font-size="14.00">null</text>
</g>
<!-- tr1&#45;&gt;pl1 -->
<g id="edge4" class="edge"><title>tr1&#45;&gt;pl1</title>
<path fill="none" stroke="black" d="M114.291,-112.864C122.208,-112.442 131.319,-111.956 139.762,-111.506"/>
<polygon fill="black" stroke="black" points="140.159,-114.99 149.958,-110.962 139.786,-108 140.159,-114.99"/>
</g>
<!-- tr2&#45;&gt;pl0 -->
<g id="edge20" class="edge"><title>tr2&#45;&gt;pl0</title>
<path fill="none" stroke="black" d="M225.695,-128.127C214.725,-135.372 200.008,-142.439 186,-146 181.398,-147.17 90.5997,-154.391 72,-150 59.816,-147.124 47.2467,-141.054 37.3037,-134.483"/>
<polygon fill="black" stroke="black" points="39.1293,-131.481 28.9972,-128.385 34.9867,-137.124 39.1293,-131.481"/>
</g>
<!-- tr2&#45;&gt;pl2 -->
<g id="edge16" class="edge"><title>tr2&#45;&gt;pl2</title>
<path fill="none" stroke="black" d="M264.291,-97.3156C272.296,-94.2352 281.522,-91.2738 290.043,-89.0217"/>
<polygon fill="black" stroke="black" points="291.038,-92.3827 299.958,-86.6659 289.42,-85.5723 291.038,-92.3827"/>
</g>
<!-- tr3 -->
<g id="node9" class="node"><title>tr3</title>
<polygon fill="none" stroke="black" points="264,-36 222,-36 222,-1.77636e-14 264,-3.55271e-15 264,-36"/>
<text text-anchor="middle" x="243" y="-13.9" font-family="Times Roman,serif" font-size="14.00">null</text>
</g>
<!-- tr3&#45;&gt;pl2 -->
<g id="edge14" class="edge"><title>tr3&#45;&gt;pl2</title>
<path fill="none" stroke="black" d="M262.705,-36.1289C273.322,-45.8965 286.417,-57.9432 297.197,-67.8614"/>
<polygon fill="black" stroke="black" points="294.841,-70.4494 304.57,-74.6443 299.58,-65.2979 294.841,-70.4494"/>
</g>
</g>
</svg>
