<?xml version="1.0" encoding="UTF-8" standalone="no"?>
<!DOCTYPE svg PUBLIC "-//W3C//DTD SVG 1.1//EN"
 "http://www.w3.org/Graphics/SVG/1.1/DTD/svg11.dtd">
<!-- Generated by graphviz version 2.26.3 (20100126.1600)
 -->
<!-- Title: G Pages: 1 -->
<svg width="518pt" height="325pt"
 viewBox="0.00 0.00 518.00 325.00" xmlns="http://www.w3.org/2000/svg" xmlns:xlink="http://www.w3.org/1999/xlink">
<g id="graph1" class="graph" transform="scale(1 1) rotate(0) translate(4 321)">
<title>G</title>
<polygon fill="white" stroke="white" points="-4,5 -4,-321 515,-321 515,5 -4,5"/>
<!-- pl0 -->
<g id="node2" class="node"><title>pl0</title>
<ellipse fill="none" stroke="black" cx="18" cy="-299" rx="18" ry="18"/>
<text text-anchor="middle" x="18" y="-294.9" font-family="Times Roman,serif" font-size="14.00">SEQ(ALT(q, NEG(p)), q)</text>
</g>
<!-- tr7 -->
<g id="node16" class="node"><title>tr7</title>
<polygon fill="none" stroke="black" points="114,-317 72,-317 72,-281 114,-281 114,-317"/>
<text text-anchor="middle" x="93" y="-294.9" font-family="Times Roman,serif" font-size="14.00">null</text>
</g>
<!-- pl0&#45;&gt;tr7 -->
<g id="edge50" class="edge"><title>pl0&#45;&gt;tr7</title>
<path fill="none" stroke="black" d="M35.395,-293.199C43.8292,-292.316 54.1898,-292.049 63.7879,-292.399"/>
<ellipse fill="black" stroke="black" cx="67.9652" cy="-292.637" rx="4" ry="4"/>
</g>
<!-- pl1 -->
<g id="node3" class="node"><title>pl1</title>
<ellipse fill="none" stroke="black" cx="18" cy="-191" rx="18" ry="18"/>
<text text-anchor="middle" x="18" y="-186.9" font-family="Times Roman,serif" font-size="14.00">null</text>
</g>
<!-- tr0 -->
<g id="node9" class="node"><title>tr0</title>
<polygon fill="none" stroke="black" points="114,-209 72,-209 72,-173 114,-173 114,-209"/>
<text text-anchor="middle" x="93" y="-186.9" font-family="Times Roman,serif" font-size="14.00">null</text>
</g>
<!-- pl1&#45;&gt;tr0 -->
<g id="edge6" class="edge"><title>pl1&#45;&gt;tr0</title>
<path fill="none" stroke="black" d="M35.395,-185.199C43.8292,-184.316 54.1898,-184.049 63.7879,-184.399"/>
<ellipse fill="black" stroke="black" cx="67.9652" cy="-184.637" rx="4" ry="4"/>
</g>
<!-- pl1&#45;&gt;tr7 -->
<g id="edge40" class="edge"><title>pl1&#45;&gt;tr7</title>
<path fill="none" stroke="black" d="M27.8243,-206.454C38.4044,-222.924 55.892,-249.651 72,-272 72.1953,-272.271 72.3922,-272.543 72.5904,-272.816"/>
<polygon fill="black" stroke="black" points="69.7943,-274.921 78.5836,-280.837 75.4019,-270.731 69.7943,-274.921"/>
</g>
<!-- pl2 -->
<g id="node4" class="node"><title>pl2</title>
<ellipse fill="none" stroke="black" cx="168" cy="-191" rx="18" ry="18"/>
<text text-anchor="middle" x="168" y="-186.9" font-family="Times Roman,serif" font-size="14.00">ALT(q, NEG(p))</text>
</g>
<!-- pl2&#45;&gt;tr0 -->
<g id="edge38" class="edge"><title>pl2&#45;&gt;tr0</title>
<path fill="none" stroke="black" d="M150.94,-196.765C143.127,-197.604 133.608,-197.907 124.562,-197.674"/>
<polygon fill="black" stroke="black" points="124.455,-194.164 114.291,-197.155 124.102,-201.156 124.455,-194.164"/>
</g>
<!-- tr1 -->
<g id="node10" class="node"><title>tr1</title>
<polygon fill="none" stroke="black" points="438,-182 396,-182 396,-146 438,-146 438,-182"/>
<text text-anchor="middle" x="417" y="-159.9" font-family="Times Roman,serif" font-size="14.00">null</text>
</g>
<!-- pl2&#45;&gt;tr1 -->
<g id="edge16" class="edge"><title>pl2&#45;&gt;tr1</title>
<path fill="none" stroke="black" d="M181.491,-203.273C191.142,-214.291 205.341,-229.1 222,-236 249.1,-247.225 259.812,-244.116 288,-236 326.327,-224.965 364.268,-198.818 388.976,-181.036"/>
<ellipse fill="black" stroke="black" cx="392.34" cy="-178.605" rx="4.00002" ry="4.00002"/>
</g>
<!-- tr3 -->
<g id="node12" class="node"><title>tr3</title>
<polygon fill="none" stroke="black" points="276,-128 234,-128 234,-92 276,-92 276,-128"/>
<text text-anchor="middle" x="255" y="-105.9" font-family="Times Roman,serif" font-size="14.00">null</text>
</g>
<!-- pl2&#45;&gt;tr3 -->
<g id="edge26" class="edge"><title>pl2&#45;&gt;tr3</title>
<path fill="none" stroke="black" d="M176.901,-175.086C187.39,-161.531 205.485,-142.946 222,-128 223.749,-126.417 225.575,-124.809 227.43,-123.225"/>
<ellipse fill="black" stroke="black" cx="230.696" cy="-120.541" rx="4.00002" ry="4.00002"/>
</g>
<!-- pl3 -->
<g id="node5" class="node"><title>pl3</title>
<ellipse fill="none" stroke="black" cx="492" cy="-118" rx="18" ry="18"/>
<text text-anchor="middle" x="492" y="-113.9" font-family="Times Roman,serif" font-size="14.00">q</text>
</g>
<!-- pl3&#45;&gt;tr1 -->
<g id="edge12" class="edge"><title>pl3&#45;&gt;tr1</title>
<path fill="none" stroke="black" d="M479.128,-131.134C470.374,-137.784 458.409,-145.589 447.315,-152.045"/>
<polygon fill="black" stroke="black" points="445.308,-149.158 438.291,-157.096 448.727,-155.266 445.308,-149.158"/>
</g>
<!-- pl3&#45;&gt;tr3 -->
<g id="edge30" class="edge"><title>pl3&#45;&gt;tr3</title>
<path fill="none" stroke="black" d="M473.977,-117.392C433.234,-116.016 333.735,-112.658 284.121,-110.983"/>
<ellipse fill="black" stroke="black" cx="280.03" cy="-110.845" rx="4" ry="4"/>
</g>
<!-- pl4 -->
<g id="node6" class="node"><title>pl4</title>
<ellipse fill="none" stroke="black" cx="342" cy="-164" rx="18" ry="18"/>
<text text-anchor="middle" x="342" y="-159.9" font-family="Times Roman,serif" font-size="14.00">NEG(p)</text>
</g>
<!-- pl4&#45;&gt;tr1 -->
<g id="edge28" class="edge"><title>pl4&#45;&gt;tr1</title>
<path fill="none" stroke="black" d="M360.155,-164C368.387,-164 378.331,-164 387.585,-164"/>
<ellipse fill="black" stroke="black" cx="391.821" cy="-164" rx="4" ry="4"/>
</g>
<!-- pl4&#45;&gt;tr3 -->
<g id="edge22" class="edge"><title>pl4&#45;&gt;tr3</title>
<path fill="none" stroke="black" d="M324.691,-158.773C312.876,-152.718 296.954,-143.12 283.312,-133.943"/>
<polygon fill="black" stroke="black" points="284.957,-130.825 274.742,-128.014 280.974,-136.582 284.957,-130.825"/>
</g>
<!-- pl5 -->
<g id="node7" class="node"><title>pl5</title>
<ellipse fill="none" stroke="black" cx="168" cy="-299" rx="18" ry="18"/>
<text text-anchor="middle" x="168" y="-294.9" font-family="Times Roman,serif" font-size="14.00">q</text>
</g>
<!-- pl5&#45;&gt;tr7 -->
<g id="edge46" class="edge"><title>pl5&#45;&gt;tr7</title>
<path fill="none" stroke="black" d="M150.94,-304.765C143.127,-305.604 133.608,-305.907 124.562,-305.674"/>
<polygon fill="black" stroke="black" points="124.455,-302.164 114.291,-305.155 124.102,-309.156 124.455,-302.164"/>
</g>
<!-- tr0&#45;&gt;pl1 -->
<g id="edge4" class="edge"><title>tr0&#45;&gt;pl1</title>
<path fill="none" stroke="black" d="M71.9587,-197.135C63.7589,-197.789 54.2494,-197.921 45.5184,-197.533"/>
<polygon fill="black" stroke="black" points="45.6214,-194.031 35.395,-196.801 45.1165,-201.013 45.6214,-194.031"/>
</g>
<!-- tr0&#45;&gt;pl2 -->
<g id="edge36" class="edge"><title>tr0&#45;&gt;pl2</title>
<path fill="none" stroke="black" d="M114.291,-184.845C122.543,-184.2 132.091,-184.079 140.827,-184.483"/>
<polygon fill="black" stroke="black" points="140.708,-187.984 150.94,-185.235 141.227,-181.003 140.708,-187.984"/>
</g>
<!-- tr1&#45;&gt;pl2 -->
<g id="edge14" class="edge"><title>tr1&#45;&gt;pl2</title>
<path fill="none" stroke="black" d="M403.224,-182.081C380.943,-204.582 334.759,-240.537 288,-254 259.812,-262.116 249.1,-265.225 222,-254 204.451,-246.731 189.632,-230.686 179.983,-216.386"/>
<polygon fill="black" stroke="black" points="182.907,-214.46 174.666,-207.803 176.957,-218.147 182.907,-214.46"/>
</g>
<!-- tr1&#45;&gt;pl3 -->
<g id="edge10" class="edge"><title>tr1&#45;&gt;pl3</title>
<path fill="none" stroke="black" d="M436.705,-145.891C445.494,-139.725 455.98,-133.138 465.446,-127.799"/>
<polygon fill="black" stroke="black" points="467.329,-130.76 474.472,-122.936 464.008,-124.598 467.329,-130.76"/>
</g>
<!-- tr2 -->
<g id="node11" class="node"><title>tr2</title>
<polygon fill="none" stroke="black" points="435,-90 399,-90 399,-54 435,-54 435,-90"/>
<text text-anchor="middle" x="417" y="-67.9" font-family="Times Roman,serif" font-size="14.00">q</text>
</g>
<!-- tr2&#45;&gt;pl3 -->
<g id="edge8" class="edge"><title>tr2&#45;&gt;pl3</title>
<path fill="none" stroke="black" d="M435.155,-83.1353C444.946,-89.1404 457.16,-96.6314 467.754,-103.129"/>
<polygon fill="black" stroke="black" points="466.191,-106.276 476.545,-108.521 469.851,-100.309 466.191,-106.276"/>
</g>
<!-- tr3&#45;&gt;pl2 -->
<g id="edge24" class="edge"><title>tr3&#45;&gt;pl2</title>
<path fill="none" stroke="black" d="M242.216,-128.088C235.994,-133.944 228.476,-140.139 222,-146 211.709,-155.313 200.804,-166.04 191.509,-174.851"/>
<polygon fill="black" stroke="black" points="189.058,-172.351 184.128,-181.729 193.83,-177.472 189.058,-172.351"/>
</g>
<!-- tr3&#45;&gt;pl4 -->
<g id="edge20" class="edge"><title>tr3&#45;&gt;pl4</title>
<path fill="none" stroke="black" d="M276.06,-117.194C289.674,-124.481 307.325,-135.437 320.938,-145.049"/>
<polygon fill="black" stroke="black" points="319.084,-148.029 329.218,-151.119 323.223,-142.384 319.084,-148.029"/>
</g>
<!-- tr4 -->
<g id="node13" class="node"><title>tr4</title>
<polygon fill="none" stroke="black" points="288,-236 222,-236 222,-200 288,-200 288,-236"/>
<text text-anchor="middle" x="255" y="-213.9" font-family="Times Roman,serif" font-size="14.00">NEG(p)</text>
</g>
<!-- tr4&#45;&gt;pl4 -->
<g id="edge18" class="edge"><title>tr4&#45;&gt;pl4</title>
<path fill="none" stroke="black" d="M284.454,-199.718C295.282,-192.997 307.411,-185.469 317.732,-179.063"/>
<polygon fill="black" stroke="black" points="319.607,-182.019 326.258,-173.771 315.915,-176.071 319.607,-182.019"/>
</g>
<!-- tr5 -->
<g id="node14" class="node"><title>tr5</title>
<polygon fill="none" stroke="black" points="435,-36 399,-36 399,-1.77636e-14 435,-3.55271e-15 435,-36"/>
<text text-anchor="middle" x="417" y="-13.9" font-family="Times Roman,serif" font-size="14.00">q</text>
</g>
<!-- tr5&#45;&gt;pl3 -->
<g id="edge32" class="edge"><title>tr5&#45;&gt;pl3</title>
<path fill="none" stroke="black" d="M431.293,-36.2538C433.549,-39.1701 435.847,-42.1613 438,-45 450.624,-61.6413 464.646,-80.612 475.237,-95.0429"/>
<polygon fill="black" stroke="black" points="472.612,-97.3817 481.345,-103.38 478.258,-93.2447 472.612,-97.3817"/>
</g>
<!-- tr6 -->
<g id="node15" class="node"><title>tr6</title>
<polygon fill="none" stroke="black" points="288,-182 222,-182 222,-146 288,-146 288,-182"/>
<text text-anchor="middle" x="255" y="-159.9" font-family="Times Roman,serif" font-size="14.00">NEG(p)</text>
</g>
<!-- tr6&#45;&gt;pl4 -->
<g id="edge34" class="edge"><title>tr6&#45;&gt;pl4</title>
<path fill="none" stroke="black" d="M288.388,-164C296.784,-164 305.712,-164 313.825,-164"/>
<polygon fill="black" stroke="black" points="313.908,-167.5 323.908,-164 313.907,-160.5 313.908,-167.5"/>
</g>
<!-- tr7&#45;&gt;pl0 -->
<g id="edge48" class="edge"><title>tr7&#45;&gt;pl0</title>
<path fill="none" stroke="black" d="M71.9587,-305.135C63.7589,-305.789 54.2494,-305.921 45.5184,-305.533"/>
<polygon fill="black" stroke="black" points="45.6214,-302.031 35.395,-304.801 45.1165,-309.013 45.6214,-302.031"/>
</g>
<!-- tr7&#45;&gt;pl5 -->
<g id="edge44" class="edge"><title>tr7&#45;&gt;pl5</title>
<path fill="none" stroke="black" d="M114.291,-292.845C122.543,-292.2 132.091,-292.079 140.827,-292.483"/>
<polygon fill="black" stroke="black" points="140.708,-295.984 150.94,-293.235 141.227,-289.003 140.708,-295.984"/>
</g>
<!-- tr8 -->
<g id="node17" class="node"><title>tr8</title>
<polygon fill="none" stroke="black" points="111,-263 75,-263 75,-227 111,-227 111,-263"/>
<text text-anchor="middle" x="93" y="-240.9" font-family="Times Roman,serif" font-size="14.00">q</text>
</g>
<!-- tr8&#45;&gt;pl5 -->
<g id="edge42" class="edge"><title>tr8&#45;&gt;pl5</title>
<path fill="none" stroke="black" d="M111.155,-258.072C121.281,-265.362 133.998,-274.518 144.834,-282.321"/>
<polygon fill="black" stroke="black" points="142.876,-285.224 153.037,-288.226 146.966,-279.543 142.876,-285.224"/>
</g>
</g>
</svg>
