<?xml version="1.0" encoding="UTF-8" standalone="no"?>
<!DOCTYPE svg PUBLIC "-//W3C//DTD SVG 1.1//EN"
 "http://www.w3.org/Graphics/SVG/1.1/DTD/svg11.dtd">
<!-- Generated by graphviz version 2.26.3 (20100126.1600)
 -->
<!-- Title: G Pages: 1 -->
<svg width="63pt" height="368pt"
 viewBox="0.00 0.00 62.60 368.00" xmlns="http://www.w3.org/2000/svg" xmlns:xlink="http://www.w3.org/1999/xlink">
<g id="graph1" class="graph" transform="scale(1 1) rotate(0) translate(4 364)">
<title>G</title>
<polygon fill="white" stroke="white" points="-4,5 -4,-364 59.599,-364 59.599,5 -4,5"/>
<!-- null -->
<g id="node2" class="node"><title>null</title>
<ellipse fill="none" stroke="black" cx="27.1446" cy="-18" rx="18" ry="18"/>
<text text-anchor="middle" x="27.1446" y="-13.9" font-family="Times Roman,serif" font-size="14.00">q</text>
</g>
<!-- null&#45;&gt;null -->
<g id="edge4" class="edge"><title>null&#45;&gt;null</title>
<path fill="none" stroke="black" d="M25.6974,-36.1527C25.4747,-45.5391 25.9571,-54 27.1446,-54 27.8683,-54 28.3301,-50.8581 28.5301,-46.2796"/>
<polygon fill="black" stroke="black" points="32.0307,-46.1739 28.5919,-36.1527 25.0308,-46.1311 32.0307,-46.1739"/>
</g>
<!-- null&#45;&gt;null -->
<g id="edge6" class="edge"><title>null&#45;&gt;null</title>
<path fill="none" stroke="black" d="M24.7395,-35.9782C23.4523,-53.1996 24.254,-72 27.1446,-72 29.5836,-72 30.5354,-58.6158 30.0001,-44.0887"/>
<ellipse fill="black" stroke="black" cx="29.7715" cy="-39.9721" rx="4" ry="4"/>
</g>
<!-- null&#45;&gt;null -->
<g id="edge24" class="edge"><title>null&#45;&gt;null</title>
<path fill="none" stroke="black" d="M22.5002,-35.6109C5.27227,-111.102 6.82041,-234 27.1446,-234 46.5955,-234 48.8493,-121.437 33.9058,-45.5913"/>
<polygon fill="black" stroke="black" points="37.2877,-44.6671 31.789,-35.6109 30.4401,-46.1195 37.2877,-44.6671"/>
</g>
<!-- null&#45;&gt;null -->
<g id="edge26" class="edge"><title>null&#45;&gt;null</title>
<path fill="none" stroke="black" d="M22.4381,-35.5286C3.26328,-117.166 4.83212,-252 27.1446,-252 48.7163,-252 50.8989,-125.971 33.6926,-43.8296"/>
<ellipse fill="black" stroke="black" cx="32.7175" cy="-39.4337" rx="4.00001" ry="4.00001"/>
</g>
<!-- null&#45;&gt;null -->
<g id="edge28" class="edge"><title>null&#45;&gt;null</title>
<path fill="none" stroke="black" d="M22.375,-35.4965C1.25593,-123.265 2.8458,-270 27.1446,-270 50.5417,-270 52.884,-133.954 34.1716,-45.5007"/>
<polygon fill="black" stroke="black" points="37.5295,-44.4809 31.9142,-35.4965 30.7012,-46.0217 37.5295,-44.4809"/>
</g>
<!-- null&#45;&gt;null -->
<g id="edge30" class="edge"><title>null&#45;&gt;null</title>
<path fill="none" stroke="black" d="M22.2946,-35.5704C-0.749392,-129.467 0.867281,-288 27.1446,-288 52.5238,-288 54.8993,-140.119 34.2711,-45.4161"/>
<polygon fill="black" stroke="black" points="37.6575,-44.5249 31.9946,-35.5704 30.8374,-46.1019 37.6575,-44.5249"/>
</g>
<!-- null&#45;&gt;null -->
<g id="edge32" class="edge"><title>null&#45;&gt;null</title>
<path fill="none" stroke="black" d="M22.2579,-35.4947C-2.75578,-135.488 -1.12686,-306 27.1446,-306 54.505,-306 56.9124,-146.301 34.3667,-45.3737"/>
<polygon fill="black" stroke="black" points="37.7381,-44.4213 32.0314,-35.4947 30.9259,-46.0317 37.7381,-44.4213"/>
</g>
<!-- null&#45;&gt;null -->
<g id="edge34" class="edge"><title>null&#45;&gt;null</title>
<path fill="none" stroke="black" d="M22.1817,-35.5995C-4.75967,-141.702 -3.10538,-324 27.1446,-324 56.4789,-324 58.9226,-152.573 34.4757,-45.4381"/>
<polygon fill="black" stroke="black" points="37.8506,-44.5027 32.1075,-35.5995 31.045,-46.1409 37.8506,-44.5027"/>
</g>
<!-- null&#45;&gt;null -->
<g id="edge36" class="edge"><title>null&#45;&gt;null</title>
<path fill="none" stroke="black" d="M22.1386,-35.5926C-6.76429,-147.781 -5.09561,-342 27.1446,-342 58.4718,-342 60.9345,-158.626 34.5327,-45.3153"/>
<polygon fill="black" stroke="black" points="37.9298,-44.4724 32.1507,-35.5926 31.1309,-46.1382 37.9298,-44.4724"/>
</g>
<!-- null&#45;&gt;null -->
<g id="edge38" class="edge"><title>null&#45;&gt;null</title>
<path fill="none" stroke="black" d="M22.1287,-35.4748C-8.76954,-153.722 -7.09756,-360 27.1446,-360 60.6177,-360 62.9673,-162.884 34.1933,-43.5725"/>
<ellipse fill="black" stroke="black" cx="33.1345" cy="-39.3544" rx="4.00001" ry="4.00001"/>
</g>
<!-- null&#45;&gt;null -->
<g id="edge8" class="edge"><title>null&#45;&gt;null</title>
<path fill="none" stroke="black" d="M24.1083,-36.0781C21.4216,-60.4094 22.4337,-90 27.1446,-90 31.2115,-90 32.5218,-67.9475 31.0755,-46.2636"/>
<polygon fill="black" stroke="black" points="34.5425,-45.7335 30.181,-36.0781 27.5694,-46.346 34.5425,-45.7335"/>
</g>
<!-- null&#45;&gt;null -->
<g id="edge10" class="edge"><title>null&#45;&gt;null</title>
<path fill="none" stroke="black" d="M23.6675,-36.1124C19.3918,-67.2398 20.5509,-108 27.1446,-108 33.0429,-108 34.5925,-75.3843 31.7933,-46.2236"/>
<polygon fill="black" stroke="black" points="35.2495,-45.6431 30.6218,-36.1124 28.296,-46.4488 35.2495,-45.6431"/>
</g>
<!-- null&#45;&gt;null -->
<g id="edge12" class="edge"><title>null&#45;&gt;null</title>
<path fill="none" stroke="black" d="M23.3938,-35.7983C17.3592,-73.5488 18.6095,-126 27.1446,-126 34.9463,-126 36.6614,-82.1765 32.2898,-45.8139"/>
<polygon fill="black" stroke="black" points="35.741,-45.2201 30.8954,-35.7983 28.8079,-46.1854 35.741,-45.2201"/>
</g>
<!-- null&#45;&gt;null -->
<g id="edge14" class="edge"><title>null&#45;&gt;null</title>
<path fill="none" stroke="black" d="M23.1545,-35.769C15.338,-79.9743 16.6681,-144 27.1446,-144 36.8436,-144 38.7034,-89.1254 32.724,-45.9049"/>
<polygon fill="black" stroke="black" points="36.1416,-45.1062 31.1347,-35.769 29.2261,-46.1905 36.1416,-45.1062"/>
</g>
<!-- null&#45;&gt;null -->
<g id="edge16" class="edge"><title>null&#45;&gt;null</title>
<path fill="none" stroke="black" d="M22.9894,-35.6173C13.3181,-86.1852 14.7032,-162 27.1446,-162 38.7841,-162 40.7466,-95.6432 33.0321,-45.6826"/>
<polygon fill="black" stroke="black" points="36.4453,-44.8788 31.2999,-35.6173 29.5467,-46.0661 36.4453,-44.8788"/>
</g>
<!-- null&#45;&gt;null -->
<g id="edge18" class="edge"><title>null&#45;&gt;null</title>
<path fill="none" stroke="black" d="M22.8396,-35.584C11.3034,-92.444 12.7384,-180 27.1446,-180 40.7349,-180 42.7817,-102.082 33.285,-45.5197"/>
<polygon fill="black" stroke="black" points="36.708,-44.7818 31.4496,-35.584 29.8245,-46.0534 36.708,-44.7818"/>
</g>
<!-- null&#45;&gt;null -->
<g id="edge20" class="edge"><title>null&#45;&gt;null</title>
<path fill="none" stroke="black" d="M22.7289,-35.4943C9.28992,-98.5939 10.7618,-198 27.1446,-198 42.6955,-198 44.8114,-108.433 33.4923,-45.3702"/>
<polygon fill="black" stroke="black" points="36.9152,-44.6363 31.5603,-35.4943 30.0454,-45.9802 36.9152,-44.6363"/>
</g>
<!-- null&#45;&gt;null -->
<g id="edge22" class="edge"><title>null&#45;&gt;null</title>
<path fill="none" stroke="black" d="M22.6265,-35.4653C7.27921,-104.768 8.78525,-216 27.1446,-216 44.6434,-216 46.8318,-114.952 33.7099,-45.4716"/>
<polygon fill="black" stroke="black" points="37.0961,-44.5608 31.6628,-35.4653 30.2382,-45.9639 37.0961,-44.5608"/>
</g>
</g>
</svg>
