<?xml version="1.0" encoding="UTF-8" standalone="no"?>
<!DOCTYPE svg PUBLIC "-//W3C//DTD SVG 1.1//EN"
 "http://www.w3.org/Graphics/SVG/1.1/DTD/svg11.dtd">
<!-- Generated by graphviz version 2.26.3 (20100126.1600)
 -->
<!-- Title: G Pages: 1 -->
<svg width="83pt" height="494pt"
 viewBox="0.00 0.00 83.38 494.00" xmlns="http://www.w3.org/2000/svg" xmlns:xlink="http://www.w3.org/1999/xlink">
<g id="graph1" class="graph" transform="scale(1 1) rotate(0) translate(4 490)">
<title>G</title>
<polygon fill="white" stroke="white" points="-4,5 -4,-490 80.3756,-490 80.3756,5 -4,5"/>
<!-- null -->
<g id="node2" class="node"><title>null</title>
<ellipse fill="none" stroke="black" cx="37.6687" cy="-18" rx="18" ry="18"/>
<text text-anchor="middle" x="37.6687" y="-13.9" font-family="Times Roman,serif" font-size="14.00">r</text>
</g>
<!-- null&#45;&gt;null -->
<g id="edge4" class="edge"><title>null&#45;&gt;null</title>
<path fill="none" stroke="black" d="M36.2214,-36.1527C35.9988,-45.5391 36.4812,-54 37.6687,-54 38.3923,-54 38.8542,-50.8581 39.0541,-46.2796"/>
<polygon fill="black" stroke="black" points="42.5548,-46.1739 39.116,-36.1527 35.5549,-46.1311 42.5548,-46.1739"/>
</g>
<!-- null&#45;&gt;null -->
<g id="edge6" class="edge"><title>null&#45;&gt;null</title>
<path fill="none" stroke="black" d="M35.2636,-35.9782C33.9764,-53.1996 34.7781,-72 37.6687,-72 40.1077,-72 41.0595,-58.6158 40.5242,-44.0887"/>
<ellipse fill="black" stroke="black" cx="40.2956" cy="-39.9721" rx="4" ry="4"/>
</g>
<!-- null&#45;&gt;null -->
<g id="edge24" class="edge"><title>null&#45;&gt;null</title>
<path fill="none" stroke="black" d="M33.0243,-35.6109C15.7964,-111.102 17.3445,-234 37.6687,-234 57.1196,-234 59.3734,-121.437 44.4299,-45.5913"/>
<polygon fill="black" stroke="black" points="47.8118,-44.6671 42.3131,-35.6109 40.9642,-46.1195 47.8118,-44.6671"/>
</g>
<!-- null&#45;&gt;null -->
<g id="edge26" class="edge"><title>null&#45;&gt;null</title>
<path fill="none" stroke="black" d="M32.9622,-35.5286C13.7874,-117.166 15.3562,-252 37.6687,-252 59.1096,-252 61.3958,-127.494 44.5273,-45.3279"/>
<polygon fill="black" stroke="black" points="47.9389,-44.5451 42.3753,-35.5286 41.1019,-46.0467 47.9389,-44.5451"/>
</g>
<!-- null&#45;&gt;null -->
<g id="edge28" class="edge"><title>null&#45;&gt;null</title>
<path fill="none" stroke="black" d="M32.8991,-35.4965C11.78,-123.265 13.3699,-270 37.6687,-270 61.0658,-270 63.4081,-133.954 44.6956,-45.5007"/>
<polygon fill="black" stroke="black" points="48.0536,-44.4809 42.4383,-35.4965 41.2253,-46.0217 48.0536,-44.4809"/>
</g>
<!-- null&#45;&gt;null -->
<g id="edge30" class="edge"><title>null&#45;&gt;null</title>
<path fill="none" stroke="black" d="M32.8187,-35.5704C9.77469,-129.467 11.3914,-288 37.6687,-288 63.0479,-288 65.4234,-140.119 44.7952,-45.4161"/>
<polygon fill="black" stroke="black" points="48.1816,-44.5249 42.5187,-35.5704 41.3615,-46.1019 48.1816,-44.5249"/>
</g>
<!-- null&#45;&gt;null -->
<g id="edge32" class="edge"><title>null&#45;&gt;null</title>
<path fill="none" stroke="black" d="M32.7819,-35.4947C7.7683,-135.488 9.39723,-306 37.6687,-306 65.0291,-306 67.4365,-146.301 44.8908,-45.3737"/>
<polygon fill="black" stroke="black" points="48.2622,-44.4213 42.5555,-35.4947 41.45,-46.0317 48.2622,-44.4213"/>
</g>
<!-- null&#45;&gt;null -->
<g id="edge34" class="edge"><title>null&#45;&gt;null</title>
<path fill="none" stroke="black" d="M32.7058,-35.5995C5.76441,-141.702 7.41871,-324 37.6687,-324 67.0029,-324 69.4466,-152.573 44.9998,-45.4381"/>
<polygon fill="black" stroke="black" points="48.3747,-44.5027 42.6316,-35.5995 41.5691,-46.1409 48.3747,-44.5027"/>
</g>
<!-- null&#45;&gt;null -->
<g id="edge36" class="edge"><title>null&#45;&gt;null</title>
<path fill="none" stroke="black" d="M32.6627,-35.5926C3.75979,-147.781 5.42848,-342 37.6687,-342 68.9959,-342 71.4586,-158.626 45.0568,-45.3153"/>
<polygon fill="black" stroke="black" points="48.4539,-44.4724 42.6748,-35.5926 41.655,-46.1382 48.4539,-44.4724"/>
</g>
<!-- null&#45;&gt;null -->
<g id="edge38" class="edge"><title>null&#45;&gt;null</title>
<path fill="none" stroke="black" d="M32.6528,-35.4748C1.75454,-153.722 3.42652,-360 37.6687,-360 70.9746,-360 73.4671,-164.849 45.1462,-45.3662"/>
<polygon fill="black" stroke="black" points="48.4961,-44.3336 42.6847,-35.4748 41.7033,-46.0241 48.4961,-44.3336"/>
</g>
<!-- null&#45;&gt;null -->
<g id="edge40" class="edge"><title>null&#45;&gt;null</title>
<path fill="none" stroke="black" d="M32.5754,-35.6289C-0.247793,-159.973 1.44996,-378 37.6687,-378 73.1447,-378 75.5011,-168.823 44.7378,-43.3945"/>
<ellipse fill="black" stroke="black" cx="43.7483" cy="-39.5054" rx="4.00001" ry="4.00001"/>
</g>
<!-- null&#45;&gt;null -->
<g id="edge42" class="edge"><title>null&#45;&gt;null</title>
<path fill="none" stroke="black" d="M32.627,-35.3092C-2.25404,-165.662 -0.573477,-396 37.6687,-396 74.9773,-396 77.4876,-176.771 45.1998,-45.0305"/>
<polygon fill="black" stroke="black" points="48.5818,-44.1284 42.7104,-35.3092 41.8006,-45.8649 48.5818,-44.1284"/>
</g>
<!-- null&#45;&gt;null -->
<g id="edge8" class="edge"><title>null&#45;&gt;null</title>
<path fill="none" stroke="black" d="M34.6324,-36.0781C31.9457,-60.4094 32.9578,-90 37.6687,-90 41.7356,-90 43.0459,-67.9475 41.5996,-46.2636"/>
<polygon fill="black" stroke="black" points="45.0666,-45.7335 40.7051,-36.0781 38.0935,-46.346 45.0666,-45.7335"/>
</g>
<!-- null&#45;&gt;null -->
<g id="edge44" class="edge"><title>null&#45;&gt;null</title>
<path fill="none" stroke="black" d="M32.5999,-35.2979C-4.25723,-171.706 -2.56762,-414 37.6687,-414 76.962,-414 79.4943,-182.931 45.2655,-45.0591"/>
<polygon fill="black" stroke="black" points="48.633,-44.101 42.7375,-35.2979 41.8565,-45.856 48.633,-44.101"/>
</g>
<!-- null&#45;&gt;null -->
<g id="edge46" class="edge"><title>null&#45;&gt;null</title>
<path fill="none" stroke="black" d="M32.4767,-35.6484C-6.25727,-178.176 -4.5266,-432 37.6687,-432 78.9163,-432 81.4965,-189.45 45.4095,-45.4166"/>
<polygon fill="black" stroke="black" points="48.7721,-44.4407 42.8607,-35.6484 41.9989,-46.2081 48.7721,-44.4407"/>
</g>
<!-- null&#45;&gt;null -->
<g id="edge48" class="edge"><title>null&#45;&gt;null</title>
<path fill="none" stroke="black" d="M32.4887,-35.5084C-8.2611,-184.061 -6.53441,-450 37.6687,-450 80.9222,-450 83.5047,-195.365 45.4164,-45.2418"/>
<polygon fill="black" stroke="black" points="48.7838,-44.2849 42.8488,-35.5084 42.0153,-46.0704 48.7838,-44.2849"/>
</g>
<!-- null&#45;&gt;null -->
<g id="edge50" class="edge"><title>null&#45;&gt;null</title>
<path fill="none" stroke="black" d="M32.5233,-35.2959C-10.2652,-189.852 -8.55004,-468 37.6687,-468 82.8945,-468 85.5084,-201.676 45.5104,-45.4247"/>
<polygon fill="black" stroke="black" points="48.7688,-44.0591 42.8142,-35.2959 42.0044,-45.8598 48.7688,-44.0591"/>
</g>
<!-- null&#45;&gt;null -->
<g id="edge52" class="edge"><title>null&#45;&gt;null</title>
<path fill="none" stroke="black" d="M32.4446,-35.4991C-12.266,-196.14 -10.5246,-486 37.6687,-486 85.062,-486 87.5328,-205.684 45.0812,-43.6047"/>
<ellipse fill="black" stroke="black" cx="43.9354" cy="-39.3608" rx="4.00001" ry="4.00001"/>
</g>
<!-- null&#45;&gt;null -->
<g id="edge10" class="edge"><title>null&#45;&gt;null</title>
<path fill="none" stroke="black" d="M34.1915,-36.1124C29.9159,-67.2398 31.075,-108 37.6687,-108 43.567,-108 45.1166,-75.3843 42.3174,-46.2236"/>
<polygon fill="black" stroke="black" points="45.7736,-45.6431 41.1459,-36.1124 38.8201,-46.4488 45.7736,-45.6431"/>
</g>
<!-- null&#45;&gt;null -->
<g id="edge12" class="edge"><title>null&#45;&gt;null</title>
<path fill="none" stroke="black" d="M33.9179,-35.7983C27.8833,-73.5488 29.1336,-126 37.6687,-126 45.4704,-126 47.1854,-82.1765 42.8139,-45.8139"/>
<polygon fill="black" stroke="black" points="46.2651,-45.2201 41.4195,-35.7983 39.332,-46.1854 46.2651,-45.2201"/>
</g>
<!-- null&#45;&gt;null -->
<g id="edge14" class="edge"><title>null&#45;&gt;null</title>
<path fill="none" stroke="black" d="M33.6786,-35.769C25.8621,-79.9743 27.1921,-144 37.6687,-144 47.3677,-144 49.2275,-89.1254 43.2481,-45.9049"/>
<polygon fill="black" stroke="black" points="46.6657,-45.1062 41.6588,-35.769 39.7502,-46.1905 46.6657,-45.1062"/>
</g>
<!-- null&#45;&gt;null -->
<g id="edge16" class="edge"><title>null&#45;&gt;null</title>
<path fill="none" stroke="black" d="M33.5135,-35.6173C23.8422,-86.1852 25.2273,-162 37.6687,-162 49.3082,-162 51.2707,-95.6432 43.5562,-45.6826"/>
<polygon fill="black" stroke="black" points="46.9694,-44.8788 41.8239,-35.6173 40.0708,-46.0661 46.9694,-44.8788"/>
</g>
<!-- null&#45;&gt;null -->
<g id="edge18" class="edge"><title>null&#45;&gt;null</title>
<path fill="none" stroke="black" d="M33.3637,-35.584C21.8275,-92.444 23.2625,-180 37.6687,-180 51.3997,-180 53.3469,-100.46 43.5105,-43.7701"/>
<ellipse fill="black" stroke="black" cx="42.7118" cy="-39.5153" rx="4.00001" ry="4.00001"/>
</g>
<!-- null&#45;&gt;null -->
<g id="edge20" class="edge"><title>null&#45;&gt;null</title>
<path fill="none" stroke="black" d="M33.253,-35.4943C19.814,-98.5939 21.2859,-198 37.6687,-198 53.2196,-198 55.3355,-108.433 44.0164,-45.3702"/>
<polygon fill="black" stroke="black" points="47.4392,-44.6363 42.0844,-35.4943 40.5695,-45.9802 47.4392,-44.6363"/>
</g>
<!-- null&#45;&gt;null -->
<g id="edge22" class="edge"><title>null&#45;&gt;null</title>
<path fill="none" stroke="black" d="M33.1506,-35.4653C17.8033,-104.768 19.3093,-216 37.6687,-216 55.1675,-216 57.3559,-114.952 44.234,-45.4716"/>
<polygon fill="black" stroke="black" points="47.6202,-44.5608 42.1868,-35.4653 40.7623,-45.9639 47.6202,-44.5608"/>
</g>
</g>
</svg>
