<?xml version="1.0" encoding="UTF-8" standalone="no"?>
<!DOCTYPE svg PUBLIC "-//W3C//DTD SVG 1.1//EN"
 "http://www.w3.org/Graphics/SVG/1.1/DTD/svg11.dtd">
<!-- Generated by graphviz version 2.26.3 (20100126.1600)
 -->
<!-- Title: G Pages: 1 -->
<svg width="344pt" height="171pt"
 viewBox="0.00 0.00 344.00 171.00" xmlns="http://www.w3.org/2000/svg" xmlns:xlink="http://www.w3.org/1999/xlink">
<g id="graph1" class="graph" transform="scale(1 1) rotate(0) translate(4 167)">
<title>G</title>
<polygon fill="white" stroke="white" points="-4,5 -4,-167 341,-167 341,5 -4,5"/>
<!-- pl0 -->
<g id="node2" class="node"><title>pl0</title>
<ellipse fill="none" stroke="black" cx="18" cy="-44" rx="18" ry="18"/>
<text text-anchor="middle" x="18" y="-39.9" font-family="Times Roman,serif" font-size="14.00">XOR(AND(POS(p), POS(q)), POS(q))</text>
</g>
<!-- tr0 -->
<g id="node8" class="node"><title>tr0</title>
<polygon fill="none" stroke="black" points="114,-90 72,-90 72,-54 114,-54 114,-90"/>
<text text-anchor="middle" x="93" y="-67.9" font-family="Times Roman,serif" font-size="14.00">null</text>
</g>
<!-- pl0&#45;&gt;tr0 -->
<g id="edge22" class="edge"><title>pl0&#45;&gt;tr0</title>
<path fill="none" stroke="black" d="M36.1554,-44.8998C44.6389,-47.2268 54.9414,-50.8401 64.4331,-54.7582"/>
<ellipse fill="black" stroke="black" cx="68.1487" cy="-56.3619" rx="4.00002" ry="4.00002"/>
</g>
<!-- tr2 -->
<g id="node10" class="node"><title>tr2</title>
<polygon fill="none" stroke="black" points="264,-36 222,-36 222,-1.77636e-14 264,-3.55271e-15 264,-36"/>
<text text-anchor="middle" x="243" y="-13.9" font-family="Times Roman,serif" font-size="14.00">null</text>
</g>
<!-- pl0&#45;&gt;tr2 -->
<g id="edge30" class="edge"><title>pl0&#45;&gt;tr2</title>
<path fill="none" stroke="black" d="M35.2818,-38.1947C73.6264,-30.1744 166.18,-19.1746 213.728,-16.6602"/>
<ellipse fill="black" stroke="black" cx="217.788" cy="-16.4795" rx="4" ry="4"/>
</g>
<!-- pl1 -->
<g id="node3" class="node"><title>pl1</title>
<ellipse fill="none" stroke="black" cx="168" cy="-110" rx="18" ry="18"/>
<text text-anchor="middle" x="168" y="-105.9" font-family="Times Roman,serif" font-size="14.00">AND(POS(p), POS(q))</text>
</g>
<!-- pl1&#45;&gt;tr0 -->
<g id="edge18" class="edge"><title>pl1&#45;&gt;tr0</title>
<path fill="none" stroke="black" d="M149.958,-106.726C141.909,-103.451 132.204,-98.7895 123.105,-93.8853"/>
<polygon fill="black" stroke="black" points="124.725,-90.7812 114.291,-88.9427 121.302,-96.8867 124.725,-90.7812"/>
</g>
<!-- tr1 -->
<g id="node9" class="node"><title>tr1</title>
<polygon fill="none" stroke="black" points="264,-128 222,-128 222,-92 264,-92 264,-128"/>
<text text-anchor="middle" x="243" y="-105.9" font-family="Times Roman,serif" font-size="14.00">null</text>
</g>
<!-- pl1&#45;&gt;tr1 -->
<g id="edge14" class="edge"><title>pl1&#45;&gt;tr1</title>
<path fill="none" stroke="black" d="M185.395,-104.199C193.829,-103.316 204.19,-103.049 213.788,-103.399"/>
<ellipse fill="black" stroke="black" cx="217.965" cy="-103.637" rx="4" ry="4"/>
</g>
<!-- pl1&#45;&gt;tr2 -->
<g id="edge34" class="edge"><title>pl1&#45;&gt;tr2</title>
<path fill="none" stroke="black" d="M179.391,-96.0272C190.895,-81.9155 208.907,-59.8206 222.832,-42.7396"/>
<ellipse fill="black" stroke="black" cx="225.609" cy="-39.3333" rx="4.00002" ry="4.00002"/>
</g>
<!-- pl2 -->
<g id="node4" class="node"><title>pl2</title>
<ellipse fill="none" stroke="black" cx="318" cy="-145" rx="18" ry="18"/>
<text text-anchor="middle" x="318" y="-140.9" font-family="Times Roman,serif" font-size="14.00">POS(p)</text>
</g>
<!-- pl2&#45;&gt;tr1 -->
<g id="edge6" class="edge"><title>pl2&#45;&gt;tr1</title>
<path fill="none" stroke="black" d="M299.958,-142.447C291.992,-139.526 282.406,-135.31 273.39,-130.823"/>
<polygon fill="black" stroke="black" points="274.778,-127.6 264.291,-126.091 271.548,-133.81 274.778,-127.6"/>
</g>
<!-- pl3 -->
<g id="node5" class="node"><title>pl3</title>
<ellipse fill="none" stroke="black" cx="318" cy="-91" rx="18" ry="18"/>
<text text-anchor="middle" x="318" y="-86.9" font-family="Times Roman,serif" font-size="14.00">POS(q)</text>
</g>
<!-- pl3&#45;&gt;tr1 -->
<g id="edge10" class="edge"><title>pl3&#45;&gt;tr1</title>
<path fill="none" stroke="black" d="M302.38,-100.559C294.189,-103.611 283.855,-106.582 274.114,-108.78"/>
<polygon fill="black" stroke="black" points="273.402,-105.353 264.291,-110.761 274.786,-112.215 273.402,-105.353"/>
</g>
<!-- pl4 -->
<g id="node6" class="node"><title>pl4</title>
<ellipse fill="none" stroke="black" cx="318" cy="-18" rx="18" ry="18"/>
<text text-anchor="middle" x="318" y="-13.9" font-family="Times Roman,serif" font-size="14.00">POS(q)</text>
</g>
<!-- pl4&#45;&gt;tr0 -->
<g id="edge32" class="edge"><title>pl4&#45;&gt;tr0</title>
<path fill="none" stroke="black" d="M302.476,-27.3684C291.967,-33.3015 277.575,-40.6497 264,-45 215.715,-60.4738 156.808,-67.2787 122.248,-70.1203"/>
<ellipse fill="black" stroke="black" cx="117.995" cy="-70.4505" rx="4" ry="4"/>
</g>
<!-- pl4&#45;&gt;tr2 -->
<g id="edge26" class="edge"><title>pl4&#45;&gt;tr2</title>
<path fill="none" stroke="black" d="M300.94,-23.7652C293.127,-24.6039 283.608,-24.9069 274.562,-24.6742"/>
<polygon fill="black" stroke="black" points="274.455,-21.1644 264.291,-24.1551 274.102,-28.1555 274.455,-21.1644"/>
</g>
<!-- tr0&#45;&gt;pl0 -->
<g id="edge20" class="edge"><title>tr0&#45;&gt;pl0</title>
<path fill="none" stroke="black" d="M71.7712,-70.2248C62.3461,-67.4461 51.2198,-63.3475 41.5408,-59.1044"/>
<polygon fill="black" stroke="black" points="43.0017,-55.9239 32.4608,-54.8567 40.0355,-62.2644 43.0017,-55.9239"/>
</g>
<!-- tr0&#45;&gt;pl1 -->
<g id="edge16" class="edge"><title>tr0&#45;&gt;pl1</title>
<path fill="none" stroke="black" d="M114.291,-76.6325C124.006,-80.7954 135.517,-86.5951 145.386,-92.2892"/>
<polygon fill="black" stroke="black" points="143.868,-95.4621 154.233,-97.6591 147.501,-89.4782 143.868,-95.4621"/>
</g>
<!-- tr1&#45;&gt;pl1 -->
<g id="edge12" class="edge"><title>tr1&#45;&gt;pl1</title>
<path fill="none" stroke="black" d="M221.959,-116.135C213.759,-116.789 204.249,-116.921 195.518,-116.533"/>
<polygon fill="black" stroke="black" points="195.621,-113.031 185.395,-115.801 195.117,-120.013 195.621,-113.031"/>
</g>
<!-- tr1&#45;&gt;pl2 -->
<g id="edge4" class="edge"><title>tr1&#45;&gt;pl2</title>
<path fill="none" stroke="black" d="M264.291,-113.781C274.006,-117.555 285.517,-122.894 295.386,-128.194"/>
<polygon fill="black" stroke="black" points="293.808,-131.322 304.233,-133.21 297.26,-125.233 293.808,-131.322"/>
</g>
<!-- tr1&#45;&gt;pl3 -->
<g id="edge8" class="edge"><title>tr1&#45;&gt;pl3</title>
<path fill="none" stroke="black" d="M264.291,-98.4511C272.296,-95.7977 281.522,-93.3283 290.043,-91.5306"/>
<polygon fill="black" stroke="black" points="290.758,-94.9579 299.958,-89.7037 289.489,-88.0737 290.758,-94.9579"/>
</g>
<!-- tr2&#45;&gt;pl0 -->
<g id="edge28" class="edge"><title>tr2&#45;&gt;pl0</title>
<path fill="none" stroke="black" d="M221.969,-24.5653C181.303,-32.5699 91.8752,-43.0755 46.1415,-45.3984"/>
<polygon fill="black" stroke="black" points="45.8879,-41.9055 36.0324,-45.7938 46.1615,-48.9002 45.8879,-41.9055"/>
</g>
<!-- tr2&#45;&gt;pl4 -->
<g id="edge24" class="edge"><title>tr2&#45;&gt;pl4</title>
<path fill="none" stroke="black" d="M264.291,-11.8449C272.543,-11.2002 282.091,-11.0795 290.827,-11.4829"/>
<polygon fill="black" stroke="black" points="290.708,-14.9836 300.94,-12.2348 291.227,-8.00284 290.708,-14.9836"/>
</g>
</g>
</svg>
