<?xml version="1.0" encoding="UTF-8" standalone="no"?>
<!DOCTYPE svg PUBLIC "-//W3C//DTD SVG 1.1//EN"
 "http://www.w3.org/Graphics/SVG/1.1/DTD/svg11.dtd">
<!-- Generated by graphviz version 2.26.3 (20100126.1600)
 -->
<!-- Title: G Pages: 1 -->
<svg width="218pt" height="152pt"
 viewBox="0.00 0.00 218.00 152.00" xmlns="http://www.w3.org/2000/svg" xmlns:xlink="http://www.w3.org/1999/xlink">
<g id="graph1" class="graph" transform="scale(1 1) rotate(0) translate(4 148)">
<title>G</title>
<polygon fill="white" stroke="white" points="-4,5 -4,-148 215,-148 215,5 -4,5"/>
<!-- pl0 -->
<g id="node2" class="node"><title>pl0</title>
<ellipse fill="none" stroke="black" cx="18" cy="-72" rx="18" ry="18"/>
<text text-anchor="middle" x="18" y="-67.9" font-family="Times Roman,serif" font-size="14.00">PAR(POS(p), POS(q))</text>
</g>
<!-- tr0 -->
<g id="node6" class="node"><title>tr0</title>
<polygon fill="none" stroke="black" points="126,-90 84,-90 84,-54 126,-54 126,-90"/>
<text text-anchor="middle" x="105" y="-67.9" font-family="Times Roman,serif" font-size="14.00">null</text>
</g>
<!-- pl0&#45;&gt;tr0 -->
<g id="edge18" class="edge"><title>pl0&#45;&gt;tr0</title>
<path fill="none" stroke="black" d="M35.1884,-66.4963C46.753,-65.2354 62.2917,-64.9312 75.7733,-65.5839"/>
<ellipse fill="black" stroke="black" cx="79.8563" cy="-65.8519" rx="4" ry="4"/>
</g>
<!-- pl1 -->
<g id="node3" class="node"><title>pl1</title>
<ellipse fill="none" stroke="black" cx="192" cy="-99" rx="18" ry="18"/>
<text text-anchor="middle" x="192" y="-94.9" font-family="Times Roman,serif" font-size="14.00">POS(p)</text>
</g>
<!-- pl1&#45;&gt;tr0 -->
<g id="edge8" class="edge"><title>pl1&#45;&gt;tr0</title>
<path fill="none" stroke="black" d="M173.785,-98.9592C162.69,-96.6495 148.233,-92.4494 135.438,-87.9181"/>
<polygon fill="black" stroke="black" points="136.653,-84.6358 126.06,-84.4142 134.203,-91.193 136.653,-84.6358"/>
</g>
<!-- pl2 -->
<g id="node4" class="node"><title>pl2</title>
<ellipse fill="none" stroke="black" cx="192" cy="-45" rx="18" ry="18"/>
<text text-anchor="middle" x="192" y="-40.9" font-family="Times Roman,serif" font-size="14.00">POS(q)</text>
</g>
<!-- pl2&#45;&gt;tr0 -->
<g id="edge14" class="edge"><title>pl2&#45;&gt;tr0</title>
<path fill="none" stroke="black" d="M176.858,-54.9645C165.549,-59.881 149.707,-65.2044 135.775,-68.9355"/>
<polygon fill="black" stroke="black" points="134.925,-65.5402 126.06,-71.3423 136.609,-72.3348 134.925,-65.5402"/>
</g>
<!-- tr0&#45;&gt;pl0 -->
<g id="edge16" class="edge"><title>tr0&#45;&gt;pl0</title>
<path fill="none" stroke="black" d="M83.8478,-77.8861C72.2966,-78.8666 57.8591,-79.0125 45.4489,-78.3238"/>
<polygon fill="black" stroke="black" points="45.4355,-74.8116 35.1884,-77.5037 44.8777,-81.7894 45.4355,-74.8116"/>
</g>
<!-- tr0&#45;&gt;pl1 -->
<g id="edge6" class="edge"><title>tr0&#45;&gt;pl1</title>
<path fill="none" stroke="black" d="M126.06,-72.6577C138.563,-75.4705 154.472,-80.3206 167.531,-85.2667"/>
<polygon fill="black" stroke="black" points="166.275,-88.5341 176.858,-89.0355 168.898,-82.0439 166.275,-88.5341"/>
</g>
<!-- tr0&#45;&gt;pl2 -->
<g id="edge12" class="edge"><title>tr0&#45;&gt;pl2</title>
<path fill="none" stroke="black" d="M126.06,-59.5858C137.454,-55.0771 151.676,-50.5048 163.992,-47.338"/>
<polygon fill="black" stroke="black" points="164.849,-50.7321 173.785,-45.0408 163.25,-43.9171 164.849,-50.7321"/>
</g>
<!-- tr1 -->
<g id="node7" class="node"><title>tr1</title>
<polygon fill="none" stroke="black" points="137,-144 73,-144 73,-108 137,-108 137,-144"/>
<text text-anchor="middle" x="105" y="-121.9" font-family="Times Roman,serif" font-size="14.00">POS(p)</text>
</g>
<!-- tr1&#45;&gt;pl1 -->
<g id="edge4" class="edge"><title>tr1&#45;&gt;pl1</title>
<path fill="none" stroke="black" d="M137.891,-115.792C146.785,-113.032 156.31,-110.076 164.851,-107.426"/>
<polygon fill="black" stroke="black" points="166.159,-110.685 174.672,-104.378 164.084,-103.999 166.159,-110.685"/>
</g>
<!-- tr2 -->
<g id="node8" class="node"><title>tr2</title>
<polygon fill="none" stroke="black" points="137,-36 73,-36 73,-1.77636e-14 137,-3.55271e-15 137,-36"/>
<text text-anchor="middle" x="105" y="-13.9" font-family="Times Roman,serif" font-size="14.00">POS(q)</text>
</g>
<!-- tr2&#45;&gt;pl2 -->
<g id="edge10" class="edge"><title>tr2&#45;&gt;pl2</title>
<path fill="none" stroke="black" d="M137.891,-28.2075C146.785,-30.9679 156.31,-33.9238 164.851,-36.5744"/>
<polygon fill="black" stroke="black" points="164.084,-40.0009 174.672,-39.6223 166.159,-33.3155 164.084,-40.0009"/>
</g>
</g>
</svg>
