<?xml version="1.0" encoding="UTF-8" standalone="no"?>
<!DOCTYPE svg PUBLIC "-//W3C//DTD SVG 1.1//EN"
 "http://www.w3.org/Graphics/SVG/1.1/DTD/svg11.dtd">
<!-- Generated by graphviz version 2.26.3 (20100126.1600)
 -->
<!-- Title: G Pages: 1 -->
<svg width="194pt" height="98pt"
 viewBox="0.00 0.00 194.00 98.00" xmlns="http://www.w3.org/2000/svg" xmlns:xlink="http://www.w3.org/1999/xlink">
<g id="graph1" class="graph" transform="scale(1 1) rotate(0) translate(4 94)">
<title>G</title>
<polygon fill="white" stroke="white" points="-4,5 -4,-94 191,-94 191,5 -4,5"/>
<!-- pl0 -->
<g id="node2" class="node"><title>pl0</title>
<ellipse fill="none" stroke="black" cx="18" cy="-45" rx="18" ry="18"/>
<text text-anchor="middle" x="18" y="-40.9" font-family="Times Roman,serif" font-size="14.00">AND(POS(p), POS(q))</text>
</g>
<!-- tr0 -->
<g id="node6" class="node"><title>tr0</title>
<polygon fill="none" stroke="black" points="114,-63 72,-63 72,-27 114,-27 114,-63"/>
<text text-anchor="middle" x="93" y="-40.9" font-family="Times Roman,serif" font-size="14.00">null</text>
</g>
<!-- pl0&#45;&gt;tr0 -->
<g id="edge14" class="edge"><title>pl0&#45;&gt;tr0</title>
<path fill="none" stroke="black" d="M35.395,-39.1992C43.8292,-38.3159 54.1898,-38.0491 63.7879,-38.3987"/>
<ellipse fill="black" stroke="black" cx="67.9652" cy="-38.6369" rx="4" ry="4"/>
</g>
<!-- pl1 -->
<g id="node3" class="node"><title>pl1</title>
<ellipse fill="none" stroke="black" cx="168" cy="-72" rx="18" ry="18"/>
<text text-anchor="middle" x="168" y="-67.9" font-family="Times Roman,serif" font-size="14.00">POS(p)</text>
</g>
<!-- pl1&#45;&gt;tr0 -->
<g id="edge6" class="edge"><title>pl1&#45;&gt;tr0</title>
<path fill="none" stroke="black" d="M149.958,-71.3719C142.076,-69.3216 132.608,-66.1739 123.675,-62.6925"/>
<polygon fill="black" stroke="black" points="124.87,-59.3997 114.291,-58.82 122.2,-65.8703 124.87,-59.3997"/>
</g>
<!-- pl2 -->
<g id="node4" class="node"><title>pl2</title>
<ellipse fill="none" stroke="black" cx="168" cy="-18" rx="18" ry="18"/>
<text text-anchor="middle" x="168" y="-13.9" font-family="Times Roman,serif" font-size="14.00">POS(q)</text>
</g>
<!-- pl2&#45;&gt;tr0 -->
<g id="edge10" class="edge"><title>pl2&#45;&gt;tr0</title>
<path fill="none" stroke="black" d="M153.317,-28.7727C144.978,-32.8397 134.211,-37.1073 124.087,-40.47"/>
<polygon fill="black" stroke="black" points="122.816,-37.1993 114.291,-43.4902 124.879,-43.8886 122.816,-37.1993"/>
</g>
<!-- tr0&#45;&gt;pl0 -->
<g id="edge12" class="edge"><title>tr0&#45;&gt;pl0</title>
<path fill="none" stroke="black" d="M71.9587,-51.1354C63.7589,-51.7887 54.2494,-51.9212 45.5184,-51.5328"/>
<polygon fill="black" stroke="black" points="45.6214,-48.0312 35.395,-50.8008 45.1165,-55.013 45.6214,-48.0312"/>
</g>
<!-- tr0&#45;&gt;pl1 -->
<g id="edge4" class="edge"><title>tr0&#45;&gt;pl1</title>
<path fill="none" stroke="black" d="M114.291,-46.5098C123.548,-49.119 134.437,-52.9751 143.981,-57.007"/>
<polygon fill="black" stroke="black" points="142.763,-60.297 153.317,-61.2273 145.646,-53.9185 142.763,-60.297"/>
</g>
<!-- tr0&#45;&gt;pl2 -->
<g id="edge8" class="edge"><title>tr0&#45;&gt;pl2</title>
<path fill="none" stroke="black" d="M114.291,-31.18C122.384,-27.6342 131.725,-24.1434 140.323,-21.4238"/>
<polygon fill="black" stroke="black" points="141.33,-24.7763 149.958,-18.6281 139.379,-18.0536 141.33,-24.7763"/>
</g>
</g>
</svg>
