<?xml version="1.0" encoding="UTF-8" standalone="no"?>
<!DOCTYPE svg PUBLIC "-//W3C//DTD SVG 1.1//EN"
 "http://www.w3.org/Graphics/SVG/1.1/DTD/svg11.dtd">
<!-- Generated by graphviz version 2.26.3 (20100126.1600)
 -->
<!-- Title: G Pages: 1 -->
<svg width="344pt" height="260pt"
 viewBox="0.00 0.00 344.00 260.00" xmlns="http://www.w3.org/2000/svg" xmlns:xlink="http://www.w3.org/1999/xlink">
<g id="graph1" class="graph" transform="scale(1 1) rotate(0) translate(4 256)">
<title>G</title>
<polygon fill="white" stroke="white" points="-4,5 -4,-256 341,-256 341,5 -4,5"/>
<!-- pl0 -->
<g id="node2" class="node"><title>pl0</title>
<ellipse fill="none" stroke="black" cx="18" cy="-126" rx="18" ry="18"/>
<text text-anchor="middle" x="18" y="-121.9" font-family="Times Roman,serif" font-size="14.00">SEQ(q, PAR(p, q))</text>
</g>
<!-- tr2 -->
<g id="node11" class="node"><title>tr2</title>
<polygon fill="none" stroke="black" points="114,-144 72,-144 72,-108 114,-108 114,-144"/>
<text text-anchor="middle" x="93" y="-121.9" font-family="Times Roman,serif" font-size="14.00">null</text>
</g>
<!-- pl0&#45;&gt;tr2 -->
<g id="edge42" class="edge"><title>pl0&#45;&gt;tr2</title>
<path fill="none" stroke="black" d="M35.395,-120.199C43.8292,-119.316 54.1898,-119.049 63.7879,-119.399"/>
<ellipse fill="black" stroke="black" cx="67.9652" cy="-119.637" rx="4" ry="4"/>
</g>
<!-- pl1 -->
<g id="node3" class="node"><title>pl1</title>
<ellipse fill="none" stroke="black" cx="18" cy="-72" rx="18" ry="18"/>
<text text-anchor="middle" x="18" y="-67.9" font-family="Times Roman,serif" font-size="14.00">null</text>
</g>
<!-- tr0 -->
<g id="node9" class="node"><title>tr0</title>
<polygon fill="none" stroke="black" points="114,-90 72,-90 72,-54 114,-54 114,-90"/>
<text text-anchor="middle" x="93" y="-67.9" font-family="Times Roman,serif" font-size="14.00">null</text>
</g>
<!-- pl1&#45;&gt;tr0 -->
<g id="edge6" class="edge"><title>pl1&#45;&gt;tr0</title>
<path fill="none" stroke="black" d="M35.395,-66.1992C43.8292,-65.3159 54.1898,-65.0491 63.7879,-65.3987"/>
<ellipse fill="black" stroke="black" cx="67.9652" cy="-65.6369" rx="4" ry="4"/>
</g>
<!-- pl1&#45;&gt;tr2 -->
<g id="edge14" class="edge"><title>pl1&#45;&gt;tr2</title>
<path fill="none" stroke="black" d="M32.8176,-82.6687C41.6431,-89.023 53.1534,-97.3105 63.7416,-104.934"/>
<polygon fill="black" stroke="black" points="61.806,-107.853 71.9665,-110.856 65.8962,-102.172 61.806,-107.853"/>
</g>
<!-- pl2 -->
<g id="node4" class="node"><title>pl2</title>
<ellipse fill="none" stroke="black" cx="168" cy="-72" rx="18" ry="18"/>
<text text-anchor="middle" x="168" y="-67.9" font-family="Times Roman,serif" font-size="14.00">q</text>
</g>
<!-- pl2&#45;&gt;tr0 -->
<g id="edge12" class="edge"><title>pl2&#45;&gt;tr0</title>
<path fill="none" stroke="black" d="M150.94,-77.7652C143.127,-78.6039 133.608,-78.9069 124.562,-78.6742"/>
<polygon fill="black" stroke="black" points="124.455,-75.1644 114.291,-78.1551 124.102,-82.1555 124.455,-75.1644"/>
</g>
<!-- pl3 -->
<g id="node5" class="node"><title>pl3</title>
<ellipse fill="none" stroke="black" cx="168" cy="-126" rx="18" ry="18"/>
<text text-anchor="middle" x="168" y="-121.9" font-family="Times Roman,serif" font-size="14.00">PAR(p, q)</text>
</g>
<!-- pl3&#45;&gt;tr2 -->
<g id="edge38" class="edge"><title>pl3&#45;&gt;tr2</title>
<path fill="none" stroke="black" d="M150.94,-131.765C143.127,-132.604 133.608,-132.907 124.562,-132.674"/>
<polygon fill="black" stroke="black" points="124.455,-129.164 114.291,-132.155 124.102,-136.156 124.455,-129.164"/>
</g>
<!-- tr3 -->
<g id="node12" class="node"><title>tr3</title>
<polygon fill="none" stroke="black" points="264,-144 222,-144 222,-108 264,-108 264,-144"/>
<text text-anchor="middle" x="243" y="-121.9" font-family="Times Roman,serif" font-size="14.00">null</text>
</g>
<!-- pl3&#45;&gt;tr3 -->
<g id="edge30" class="edge"><title>pl3&#45;&gt;tr3</title>
<path fill="none" stroke="black" d="M185.395,-120.199C193.829,-119.316 204.19,-119.049 213.788,-119.399"/>
<ellipse fill="black" stroke="black" cx="217.965" cy="-119.637" rx="4" ry="4"/>
</g>
<!-- pl4 -->
<g id="node6" class="node"><title>pl4</title>
<ellipse fill="none" stroke="black" cx="318" cy="-166" rx="18" ry="18"/>
<text text-anchor="middle" x="318" y="-161.9" font-family="Times Roman,serif" font-size="14.00">p</text>
</g>
<!-- pl4&#45;&gt;tr3 -->
<g id="edge20" class="edge"><title>pl4&#45;&gt;tr3</title>
<path fill="none" stroke="black" d="M299.958,-162.245C291.909,-158.755 282.204,-153.835 273.105,-148.688"/>
<polygon fill="black" stroke="black" points="274.687,-145.558 264.291,-143.51 271.141,-151.593 274.687,-145.558"/>
</g>
<!-- pl5 -->
<g id="node7" class="node"><title>pl5</title>
<ellipse fill="none" stroke="black" cx="318" cy="-85" rx="18" ry="18"/>
<text text-anchor="middle" x="318" y="-80.9" font-family="Times Roman,serif" font-size="14.00">q</text>
</g>
<!-- pl5&#45;&gt;tr3 -->
<g id="edge26" class="edge"><title>pl5&#45;&gt;tr3</title>
<path fill="none" stroke="black" d="M304.683,-97.5827C296.026,-103.54 284.37,-110.359 273.521,-115.96"/>
<polygon fill="black" stroke="black" points="271.709,-112.951 264.291,-120.516 274.808,-119.228 271.709,-112.951"/>
</g>
<!-- tr0&#45;&gt;pl1 -->
<g id="edge4" class="edge"><title>tr0&#45;&gt;pl1</title>
<path fill="none" stroke="black" d="M71.9587,-78.1354C63.7589,-78.7887 54.2494,-78.9212 45.5184,-78.5328"/>
<polygon fill="black" stroke="black" points="45.6214,-75.0312 35.395,-77.8008 45.1165,-82.013 45.6214,-75.0312"/>
</g>
<!-- tr0&#45;&gt;pl2 -->
<g id="edge10" class="edge"><title>tr0&#45;&gt;pl2</title>
<path fill="none" stroke="black" d="M114.291,-65.8449C122.543,-65.2002 132.091,-65.0795 140.827,-65.4829"/>
<polygon fill="black" stroke="black" points="140.708,-68.9836 150.94,-66.2348 141.227,-62.0028 140.708,-68.9836"/>
</g>
<!-- tr1 -->
<g id="node10" class="node"><title>tr1</title>
<polygon fill="none" stroke="black" points="111,-36 75,-36 75,-1.77636e-14 111,-3.55271e-15 111,-36"/>
<text text-anchor="middle" x="93" y="-13.9" font-family="Times Roman,serif" font-size="14.00">q</text>
</g>
<!-- tr1&#45;&gt;pl2 -->
<g id="edge8" class="edge"><title>tr1&#45;&gt;pl2</title>
<path fill="none" stroke="black" d="M111.155,-31.0719C121.281,-38.3623 133.998,-47.5183 144.834,-55.3207"/>
<polygon fill="black" stroke="black" points="142.876,-58.2236 153.037,-61.2264 146.966,-52.5429 142.876,-58.2236"/>
</g>
<!-- tr2&#45;&gt;pl0 -->
<g id="edge40" class="edge"><title>tr2&#45;&gt;pl0</title>
<path fill="none" stroke="black" d="M71.9587,-132.135C63.7589,-132.789 54.2494,-132.921 45.5184,-132.533"/>
<polygon fill="black" stroke="black" points="45.6214,-129.031 35.395,-131.801 45.1165,-136.013 45.6214,-129.031"/>
</g>
<!-- tr2&#45;&gt;pl3 -->
<g id="edge36" class="edge"><title>tr2&#45;&gt;pl3</title>
<path fill="none" stroke="black" d="M114.291,-119.845C122.543,-119.2 132.091,-119.079 140.827,-119.483"/>
<polygon fill="black" stroke="black" points="140.708,-122.984 150.94,-120.235 141.227,-116.003 140.708,-122.984"/>
</g>
<!-- tr3&#45;&gt;pl3 -->
<g id="edge28" class="edge"><title>tr3&#45;&gt;pl3</title>
<path fill="none" stroke="black" d="M221.959,-132.135C213.759,-132.789 204.249,-132.921 195.518,-132.533"/>
<polygon fill="black" stroke="black" points="195.621,-129.031 185.395,-131.801 195.117,-136.013 195.621,-129.031"/>
</g>
<!-- tr3&#45;&gt;pl4 -->
<g id="edge18" class="edge"><title>tr3&#45;&gt;pl4</title>
<path fill="none" stroke="black" d="M264.291,-131.2C274.238,-135.728 286.07,-142.023 296.093,-148.114"/>
<polygon fill="black" stroke="black" points="294.37,-151.167 304.683,-153.595 298.135,-145.266 294.37,-151.167"/>
</g>
<!-- tr3&#45;&gt;pl5 -->
<g id="edge24" class="edge"><title>tr3&#45;&gt;pl5</title>
<path fill="none" stroke="black" d="M264.291,-108.206C272.56,-103.039 282.131,-97.6872 290.883,-93.3093"/>
<polygon fill="black" stroke="black" points="292.429,-96.4499 299.958,-88.996 289.424,-90.1277 292.429,-96.4499"/>
</g>
<!-- tr4 -->
<g id="node13" class="node"><title>tr4</title>
<polygon fill="none" stroke="black" points="261,-252 225,-252 225,-216 261,-216 261,-252"/>
<text text-anchor="middle" x="243" y="-229.9" font-family="Times Roman,serif" font-size="14.00">p</text>
</g>
<!-- tr4&#45;&gt;pl4 -->
<g id="edge16" class="edge"><title>tr4&#45;&gt;pl4</title>
<path fill="none" stroke="black" d="M261.155,-217.539C271.9,-207.797 285.562,-195.41 296.8,-185.221"/>
<polygon fill="black" stroke="black" points="299.42,-187.57 304.478,-178.26 294.718,-182.384 299.42,-187.57"/>
</g>
<!-- tr5 -->
<g id="node14" class="node"><title>tr5</title>
<polygon fill="none" stroke="black" points="261,-90 225,-90 225,-54 261,-54 261,-90"/>
<text text-anchor="middle" x="243" y="-67.9" font-family="Times Roman,serif" font-size="14.00">q</text>
</g>
<!-- tr5&#45;&gt;pl5 -->
<g id="edge22" class="edge"><title>tr5&#45;&gt;pl5</title>
<path fill="none" stroke="black" d="M261.155,-75.1469C269.815,-76.6479 280.37,-78.4775 290.023,-80.1507"/>
<polygon fill="black" stroke="black" points="289.561,-83.6227 300.012,-81.882 290.756,-76.7255 289.561,-83.6227"/>
</g>
<!-- tr6 -->
<g id="node15" class="node"><title>tr6</title>
<polygon fill="none" stroke="black" points="261,-198 225,-198 225,-162 261,-162 261,-198"/>
<text text-anchor="middle" x="243" y="-175.9" font-family="Times Roman,serif" font-size="14.00">p</text>
</g>
<!-- tr6&#45;&gt;pl4 -->
<g id="edge32" class="edge"><title>tr6&#45;&gt;pl4</title>
<path fill="none" stroke="black" d="M261.155,-176.611C269.879,-174.983 280.525,-172.995 290.236,-171.183"/>
<polygon fill="black" stroke="black" points="291.083,-174.585 300.271,-169.309 289.798,-167.704 291.083,-174.585"/>
</g>
<!-- tr7 -->
<g id="node16" class="node"><title>tr7</title>
<polygon fill="none" stroke="black" points="261,-36 225,-36 225,-1.77636e-14 261,-3.55271e-15 261,-36"/>
<text text-anchor="middle" x="243" y="-13.9" font-family="Times Roman,serif" font-size="14.00">q</text>
</g>
<!-- tr7&#45;&gt;pl5 -->
<g id="edge34" class="edge"><title>tr7&#45;&gt;pl5</title>
<path fill="none" stroke="black" d="M261.155,-34.2188C271.9,-43.8174 285.562,-56.0224 296.8,-66.0613"/>
<polygon fill="black" stroke="black" points="294.688,-68.8682 304.478,-72.9201 299.352,-63.6478 294.688,-68.8682"/>
</g>
</g>
</svg>
