<?xml version="1.0" encoding="UTF-8" standalone="no"?>
<!DOCTYPE svg PUBLIC "-//W3C//DTD SVG 1.1//EN"
 "http://www.w3.org/Graphics/SVG/1.1/DTD/svg11.dtd">
<!-- Generated by graphviz version 2.26.3 (20100126.1600)
 -->
<!-- Title: G Pages: 1 -->
<svg width="718pt" height="179pt"
 viewBox="0.00 0.00 718.00 179.00" xmlns="http://www.w3.org/2000/svg" xmlns:xlink="http://www.w3.org/1999/xlink">
<g id="graph1" class="graph" transform="scale(1 1) rotate(0) translate(4 175)">
<title>G</title>
<polygon fill="white" stroke="white" points="-4,5 -4,-175 715,-175 715,5 -4,5"/>
<!-- _p0 -->
<g id="node2" class="node"><title>_p0</title>
<ellipse fill="none" stroke="black" cx="392" cy="-45" rx="18" ry="18"/>
<text text-anchor="middle" x="392" y="-40.9" font-family="Times Roman,serif" font-size="14.00">ALT(q, NEG(p))</text>
</g>
<!-- _t1 -->
<g id="node14" class="node"><title>_t1</title>
<polygon fill="none" stroke="black" points="482,-90 446,-90 446,-54 482,-54 482,-90"/>
<text text-anchor="middle" x="464" y="-67.9" font-family="Times Roman,serif" font-size="14.00">q</text>
</g>
<!-- _p0&#45;&gt;_t1 -->
<g id="edge8" class="edge"><title>_p0&#45;&gt;_t1</title>
<path fill="none" stroke="black" d="M409.063,-51.3986C417.186,-54.4449 427.108,-58.1655 436.273,-61.6025"/>
<polygon fill="black" stroke="black" points="435.209,-64.9412 445.801,-65.1753 437.666,-58.3869 435.209,-64.9412"/>
</g>
<!-- _p1 -->
<g id="node3" class="node"><title>_p1</title>
<ellipse fill="none" stroke="black" cx="536" cy="-126" rx="18" ry="18"/>
<text text-anchor="middle" x="536" y="-121.9" font-family="Times Roman,serif" font-size="14.00">q</text>
</g>
<!-- _t2 -->
<g id="node15" class="node"><title>_t2</title>
<polygon fill="none" stroke="black" points="638,-117 590,-117 590,-81 638,-81 638,-117"/>
<text text-anchor="middle" x="614" y="-94.9" font-family="Times Roman,serif" font-size="14.00">AND</text>
</g>
<!-- _p1&#45;&gt;_t2 -->
<g id="edge16" class="edge"><title>_p1&#45;&gt;_t2</title>
<path fill="none" stroke="black" d="M553.311,-120.008C561.305,-117.24 571.083,-113.856 580.435,-110.619"/>
<polygon fill="black" stroke="black" points="581.629,-113.909 589.934,-107.33 579.34,-107.294 581.629,-113.909"/>
</g>
<!-- _p2 -->
<g id="node4" class="node"><title>_p2</title>
<ellipse fill="none" stroke="black" cx="536" cy="-72" rx="18" ry="18"/>
<text text-anchor="middle" x="536" y="-67.9" font-family="Times Roman,serif" font-size="14.00">SEQ(ALT(q, NEG(p)), q)</text>
</g>
<!-- _p2&#45;&gt;_t2 -->
<g id="edge14" class="edge"><title>_p2&#45;&gt;_t2</title>
<path fill="none" stroke="black" d="M553.311,-77.9922C561.305,-80.7595 571.083,-84.144 580.435,-87.3813"/>
<polygon fill="black" stroke="black" points="579.34,-90.7059 589.934,-90.6696 581.629,-84.091 579.34,-90.7059"/>
</g>
<!-- _p3 -->
<g id="node5" class="node"><title>_p3</title>
<ellipse fill="none" stroke="black" cx="692" cy="-99" rx="18" ry="18"/>
<text text-anchor="middle" x="692" y="-94.9" font-family="Times Roman,serif" font-size="14.00">AND(SEQ(ALT(q, NEG(p)), q), q)</text>
</g>
<!-- _p4 -->
<g id="node6" class="node"><title>_p4</title>
<ellipse fill="none" stroke="black" cx="164" cy="-45" rx="18" ry="18"/>
<text text-anchor="middle" x="164" y="-40.9" font-family="Times Roman,serif" font-size="14.00">OR(NEG(q, NEG(p)), NULL(q, NEG(p)))</text>
</g>
<!-- _t0 -->
<g id="node13" class="node"><title>_t0</title>
<polygon fill="none" stroke="black" points="337,-63 219,-63 219,-27 337,-27 337,-63"/>
<text text-anchor="middle" x="278" y="-40.9" font-family="Times Roman,serif" font-size="14.00">ALT(q, NEG(p))</text>
</g>
<!-- _p4&#45;&gt;_t0 -->
<g id="edge4" class="edge"><title>_p4&#45;&gt;_t0</title>
<path fill="none" stroke="black" d="M182.064,-45C189.426,-45 198.448,-45 207.984,-45"/>
<polygon fill="black" stroke="black" points="208.059,-48.5001 218.059,-45 208.059,-41.5001 208.059,-48.5001"/>
</g>
<!-- _p5 -->
<g id="node7" class="node"><title>_p5</title>
<ellipse fill="none" stroke="black" cx="18" cy="-72" rx="18" ry="18"/>
<text text-anchor="middle" x="18" y="-67.9" font-family="Times Roman,serif" font-size="14.00">q</text>
</g>
<!-- _t3 -->
<g id="node16" class="node"><title>_t3</title>
<polygon fill="none" stroke="black" points="110,-63 72,-63 72,-27 110,-27 110,-63"/>
<text text-anchor="middle" x="91" y="-40.9" font-family="Times Roman,serif" font-size="14.00">OR</text>
</g>
<!-- _p5&#45;&gt;_t3 -->
<g id="edge22" class="edge"><title>_p5&#45;&gt;_t3</title>
<path fill="none" stroke="black" d="M34.9312,-65.7378C43.0351,-62.7404 52.9663,-59.0672 62.207,-55.6495"/>
<polygon fill="black" stroke="black" points="63.6791,-58.8368 71.844,-52.0851 61.2508,-52.2715 63.6791,-58.8368"/>
</g>
<!-- _p6 -->
<g id="node8" class="node"><title>_p6</title>
<ellipse fill="none" stroke="black" cx="18" cy="-18" rx="18" ry="18"/>
<text text-anchor="middle" x="18" y="-13.9" font-family="Times Roman,serif" font-size="14.00">NEG(p)</text>
</g>
<!-- _p6&#45;&gt;_t3 -->
<g id="edge24" class="edge"><title>_p6&#45;&gt;_t3</title>
<path fill="none" stroke="black" d="M34.9312,-24.2622C43.0351,-27.2596 52.9663,-30.9328 62.207,-34.3505"/>
<polygon fill="black" stroke="black" points="61.2508,-37.7285 71.844,-37.9149 63.6791,-31.1632 61.2508,-37.7285"/>
</g>
<!-- _p7 -->
<g id="node9" class="node"><title>_p7</title>
<ellipse fill="none" stroke="black" cx="392" cy="-99" rx="18" ry="18"/>
<text text-anchor="middle" x="392" y="-94.9" font-family="Times Roman,serif" font-size="14.00">OR(NEG(q), NULL(q))</text>
</g>
<!-- _p7&#45;&gt;_t1 -->
<g id="edge10" class="edge"><title>_p7&#45;&gt;_t1</title>
<path fill="none" stroke="black" d="M409.063,-92.6014C417.186,-89.5551 427.108,-85.8345 436.273,-82.3975"/>
<polygon fill="black" stroke="black" points="437.666,-85.6131 445.801,-78.8247 435.209,-79.0588 437.666,-85.6131"/>
</g>
<!-- _p8 -->
<g id="node10" class="node"><title>_p8</title>
<ellipse fill="none" stroke="black" cx="164" cy="-153" rx="18" ry="18"/>
<text text-anchor="middle" x="164" y="-148.9" font-family="Times Roman,serif" font-size="14.00">NEG(q)</text>
</g>
<!-- _t4 -->
<g id="node17" class="node"><title>_t4</title>
<polygon fill="none" stroke="black" points="297,-117 259,-117 259,-81 297,-81 297,-117"/>
<text text-anchor="middle" x="278" y="-94.9" font-family="Times Roman,serif" font-size="14.00">OR</text>
</g>
<!-- _p8&#45;&gt;_t4 -->
<g id="edge28" class="edge"><title>_p8&#45;&gt;_t4</title>
<path fill="none" stroke="black" d="M180.333,-145.263C198.353,-136.727 227.687,-122.832 249.511,-112.495"/>
<polygon fill="black" stroke="black" points="251.106,-115.612 258.645,-108.168 248.11,-109.286 251.106,-115.612"/>
</g>
<!-- _p9 -->
<g id="node11" class="node"><title>_p9</title>
<ellipse fill="none" stroke="black" cx="164" cy="-99" rx="18" ry="18"/>
<text text-anchor="middle" x="164" y="-94.9" font-family="Times Roman,serif" font-size="14.00">NULL(q)</text>
</g>
<!-- _p9&#45;&gt;_t4 -->
<g id="edge30" class="edge"><title>_p9&#45;&gt;_t4</title>
<path fill="none" stroke="black" d="M182.064,-99C200.002,-99 227.797,-99 248.86,-99"/>
<polygon fill="black" stroke="black" points="248.88,-102.5 258.88,-99 248.88,-95.5001 248.88,-102.5"/>
</g>
<!-- _t0&#45;&gt;_p0 -->
<g id="edge6" class="edge"><title>_t0&#45;&gt;_p0</title>
<path fill="none" stroke="black" d="M337.671,-45C346.708,-45 355.655,-45 363.602,-45"/>
<polygon fill="black" stroke="black" points="363.731,-48.5001 373.731,-45 363.731,-41.5001 363.731,-48.5001"/>
</g>
<!-- _t1&#45;&gt;_p2 -->
<g id="edge12" class="edge"><title>_t1&#45;&gt;_p2</title>
<path fill="none" stroke="black" d="M482.169,-72C489.869,-72 499.026,-72 507.583,-72"/>
<polygon fill="black" stroke="black" points="507.587,-75.5001 517.587,-72 507.587,-68.5001 507.587,-75.5001"/>
</g>
<!-- _t2&#45;&gt;_p3 -->
<g id="edge18" class="edge"><title>_t2&#45;&gt;_p3</title>
<path fill="none" stroke="black" d="M638.252,-99C646.302,-99 655.335,-99 663.664,-99"/>
<polygon fill="black" stroke="black" points="663.713,-102.5 673.712,-99 663.712,-95.5001 663.713,-102.5"/>
</g>
<!-- _t3&#45;&gt;_p4 -->
<g id="edge20" class="edge"><title>_t3&#45;&gt;_p4</title>
<path fill="none" stroke="black" d="M110.18,-45C117.903,-45 126.972,-45 135.442,-45"/>
<polygon fill="black" stroke="black" points="135.703,-48.5001 145.703,-45 135.703,-41.5001 135.703,-48.5001"/>
</g>
<!-- _t4&#45;&gt;_p7 -->
<g id="edge26" class="edge"><title>_t4&#45;&gt;_p7</title>
<path fill="none" stroke="black" d="M297.081,-99C315.325,-99 343.054,-99 363.838,-99"/>
<polygon fill="black" stroke="black" points="363.987,-102.5 373.986,-99 363.986,-95.5001 363.987,-102.5"/>
</g>
</g>
</svg>
