<?xml version="1.0" encoding="UTF-8" standalone="no"?>
<!DOCTYPE svg PUBLIC "-//W3C//DTD SVG 1.1//EN"
 "http://www.w3.org/Graphics/SVG/1.1/DTD/svg11.dtd">
<!-- Generated by graphviz version 2.26.3 (20100126.1600)
 -->
<!-- Title: G Pages: 1 -->
<svg width="57pt" height="332pt"
 viewBox="0.00 0.00 56.77 332.00" xmlns="http://www.w3.org/2000/svg" xmlns:xlink="http://www.w3.org/1999/xlink">
<g id="graph1" class="graph" transform="scale(1 1) rotate(0) translate(4 328)">
<title>G</title>
<polygon fill="white" stroke="white" points="-4,5 -4,-328 53.7704,-328 53.7704,5 -4,5"/>
<!-- null -->
<g id="node2" class="node"><title>null</title>
<ellipse fill="none" stroke="black" cx="24.3418" cy="-18" rx="18" ry="18"/>
<text text-anchor="middle" x="24.3418" y="-13.9" font-family="Times Roman,serif" font-size="14.00">null</text>
</g>
<!-- null&#45;&gt;null -->
<g id="edge4" class="edge"><title>null&#45;&gt;null</title>
<path fill="none" stroke="black" d="M22.8945,-36.1527C22.6719,-45.5391 23.1543,-54 24.3418,-54 25.0654,-54 25.5272,-50.8581 25.7272,-46.2796"/>
<polygon fill="black" stroke="black" points="29.2278,-46.1739 25.7891,-36.1527 22.228,-46.1311 29.2278,-46.1739"/>
</g>
<!-- null&#45;&gt;null -->
<g id="edge6" class="edge"><title>null&#45;&gt;null</title>
<path fill="none" stroke="black" d="M21.9367,-35.9782C20.6495,-53.1996 21.4512,-72 24.3418,-72 26.6678,-72 27.6413,-59.8264 27.2621,-46.0978"/>
<polygon fill="black" stroke="black" points="30.7509,-45.7873 26.7469,-35.9782 23.7599,-46.1433 30.7509,-45.7873"/>
</g>
<!-- null&#45;&gt;null -->
<g id="edge24" class="edge"><title>null&#45;&gt;null</title>
<path fill="none" stroke="black" d="M19.6974,-35.6109C2.46944,-111.102 4.01758,-234 24.3418,-234 43.7927,-234 46.0464,-121.437 31.103,-45.5913"/>
<polygon fill="black" stroke="black" points="34.4849,-44.6671 28.9862,-35.6109 27.6372,-46.1195 34.4849,-44.6671"/>
</g>
<!-- null&#45;&gt;null -->
<g id="edge26" class="edge"><title>null&#45;&gt;null</title>
<path fill="none" stroke="black" d="M19.6353,-35.5286C0.460449,-117.166 2.0293,-252 24.3418,-252 45.7827,-252 48.0689,-127.494 31.2004,-45.3279"/>
<polygon fill="black" stroke="black" points="34.612,-44.5451 29.0483,-35.5286 27.775,-46.0467 34.612,-44.5451"/>
</g>
<!-- null&#45;&gt;null -->
<g id="edge28" class="edge"><title>null&#45;&gt;null</title>
<path fill="none" stroke="black" d="M19.5722,-35.4965C-1.5469,-123.265 0.0429688,-270 24.3418,-270 47.7389,-270 50.0812,-133.954 31.3687,-45.5007"/>
<polygon fill="black" stroke="black" points="34.7267,-44.4809 29.1114,-35.4965 27.8983,-46.0217 34.7267,-44.4809"/>
</g>
<!-- null&#45;&gt;null -->
<g id="edge30" class="edge"><title>null&#45;&gt;null</title>
<path fill="none" stroke="black" d="M19.4918,-35.5704C-3.55222,-129.467 -1.93555,-288 24.3418,-288 49.9006,-288 52.129,-138.018 31.0268,-43.4133"/>
<ellipse fill="black" stroke="black" cx="30.1031" cy="-39.4653" rx="4.00001" ry="4.00001"/>
</g>
<!-- null&#45;&gt;null -->
<g id="edge32" class="edge"><title>null&#45;&gt;null</title>
<path fill="none" stroke="black" d="M19.455,-35.4947C-5.55861,-135.488 -3.92969,-306 24.3418,-306 51.8678,-306 54.1378,-144.361 31.1516,-43.547"/>
<ellipse fill="black" stroke="black" cx="30.1578" cy="-39.3853" rx="4.00001" ry="4.00001"/>
</g>
<!-- null&#45;&gt;null -->
<g id="edge34" class="edge"><title>null&#45;&gt;null</title>
<path fill="none" stroke="black" d="M19.3789,-35.5995C-7.5625,-141.702 -5.9082,-324 24.3418,-324 53.8533,-324 56.1483,-150.495 31.2268,-43.5032"/>
<ellipse fill="black" stroke="black" cx="30.2499" cy="-39.4862" rx="4.00001" ry="4.00001"/>
</g>
<!-- null&#45;&gt;null -->
<g id="edge8" class="edge"><title>null&#45;&gt;null</title>
<path fill="none" stroke="black" d="M21.3055,-36.0781C18.6187,-60.4094 19.6309,-90 24.3418,-90 28.4087,-90 29.719,-67.9475 28.2727,-46.2636"/>
<polygon fill="black" stroke="black" points="31.7397,-45.7335 27.3781,-36.0781 24.7665,-46.346 31.7397,-45.7335"/>
</g>
<!-- null&#45;&gt;null -->
<g id="edge10" class="edge"><title>null&#45;&gt;null</title>
<path fill="none" stroke="black" d="M20.8646,-36.1124C16.589,-67.2398 17.748,-108 24.3418,-108 30.2401,-108 31.7897,-75.3843 28.9904,-46.2236"/>
<polygon fill="black" stroke="black" points="32.4467,-45.6431 27.819,-36.1124 25.4932,-46.4488 32.4467,-45.6431"/>
</g>
<!-- null&#45;&gt;null -->
<g id="edge12" class="edge"><title>null&#45;&gt;null</title>
<path fill="none" stroke="black" d="M20.591,-35.7983C14.5564,-73.5488 15.8066,-126 24.3418,-126 32.1435,-126 33.8585,-82.1765 29.487,-45.8139"/>
<polygon fill="black" stroke="black" points="32.9382,-45.2201 28.0926,-35.7983 26.005,-46.1854 32.9382,-45.2201"/>
</g>
<!-- null&#45;&gt;null -->
<g id="edge14" class="edge"><title>null&#45;&gt;null</title>
<path fill="none" stroke="black" d="M20.3517,-35.769C12.5352,-79.9743 13.8652,-144 24.3418,-144 34.2045,-144 35.9611,-87.2575 29.6117,-43.7268"/>
<ellipse fill="black" stroke="black" cx="28.9671" cy="-39.7183" rx="4.00001" ry="4.00001"/>
</g>
<!-- null&#45;&gt;null -->
<g id="edge16" class="edge"><title>null&#45;&gt;null</title>
<path fill="none" stroke="black" d="M20.1866,-35.6173C10.5153,-86.1852 11.9004,-162 24.3418,-162 35.9813,-162 37.9438,-95.6432 30.2293,-45.6826"/>
<polygon fill="black" stroke="black" points="33.6425,-44.8788 28.497,-35.6173 26.7439,-46.0661 33.6425,-44.8788"/>
</g>
<!-- null&#45;&gt;null -->
<g id="edge18" class="edge"><title>null&#45;&gt;null</title>
<path fill="none" stroke="black" d="M20.0368,-35.584C8.50055,-92.444 9.93555,-180 24.3418,-180 37.9321,-180 39.9789,-102.082 30.4822,-45.5197"/>
<polygon fill="black" stroke="black" points="33.9052,-44.7818 28.6468,-35.584 27.0217,-46.0534 33.9052,-44.7818"/>
</g>
<!-- null&#45;&gt;null -->
<g id="edge20" class="edge"><title>null&#45;&gt;null</title>
<path fill="none" stroke="black" d="M19.9261,-35.4943C6.48709,-98.5939 7.95898,-198 24.3418,-198 39.8927,-198 42.0086,-108.433 30.6895,-45.3702"/>
<polygon fill="black" stroke="black" points="34.1123,-44.6363 28.7575,-35.4943 27.2425,-45.9802 34.1123,-44.6363"/>
</g>
<!-- null&#45;&gt;null -->
<g id="edge22" class="edge"><title>null&#45;&gt;null</title>
<path fill="none" stroke="black" d="M19.8237,-35.4653C4.47638,-104.768 5.98242,-216 24.3418,-216 42.0199,-216 44.0722,-112.87 30.4989,-43.346"/>
<ellipse fill="black" stroke="black" cx="29.6744" cy="-39.3815" rx="4.00001" ry="4.00001"/>
</g>
</g>
</svg>
