<?xml version="1.0" encoding="UTF-8" standalone="no"?>
<!DOCTYPE svg PUBLIC "-//W3C//DTD SVG 1.1//EN"
 "http://www.w3.org/Graphics/SVG/1.1/DTD/svg11.dtd">
<!-- Generated by graphviz version 2.26.3 (20100126.1600)
 -->
<!-- Title: G Pages: 1 -->
<svg width="548pt" height="44pt"
 viewBox="0.00 0.00 548.00 44.00" xmlns="http://www.w3.org/2000/svg" xmlns:xlink="http://www.w3.org/1999/xlink">
<g id="graph1" class="graph" transform="scale(1 1) rotate(0) translate(4 40)">
<title>G</title>
<polygon fill="white" stroke="white" points="-4,5 -4,-40 545,-40 545,5 -4,5"/>
<!-- pl0 -->
<g id="node2" class="node"><title>pl0</title>
<ellipse fill="none" stroke="black" cx="96" cy="-18" rx="18" ry="18"/>
<text text-anchor="middle" x="96" y="-13.9" font-family="Times Roman,serif" font-size="14.00">null</text>
</g>
<!-- tr1 -->
<g id="node7" class="node"><title>tr1</title>
<polygon fill="none" stroke="black" points="215,-36 151,-36 151,-1.77636e-14 215,-3.55271e-15 215,-36"/>
<text text-anchor="middle" x="183" y="-13.9" font-family="Times Roman,serif" font-size="14.00">POS(p)</text>
</g>
<!-- pl0&#45;&gt;tr1 -->
<g id="edge6" class="edge"><title>pl0&#45;&gt;tr1</title>
<path fill="none" stroke="black" d="M114.026,-18C121.62,-18 130.814,-18 139.979,-18"/>
<polygon fill="black" stroke="black" points="140.227,-21.5001 150.227,-18 140.227,-14.5001 140.227,-21.5001"/>
</g>
<!-- pl1 -->
<g id="node3" class="node"><title>pl1</title>
<ellipse fill="none" stroke="black" cx="270" cy="-18" rx="18" ry="18"/>
<text text-anchor="middle" x="270" y="-13.9" font-family="Times Roman,serif" font-size="14.00">null</text>
</g>
<!-- tr2 -->
<g id="node8" class="node"><title>tr2</title>
<polygon fill="none" stroke="black" points="389,-36 325,-36 325,-1.77636e-14 389,-3.55271e-15 389,-36"/>
<text text-anchor="middle" x="357" y="-13.9" font-family="Times Roman,serif" font-size="14.00">POS(q)</text>
</g>
<!-- pl1&#45;&gt;tr2 -->
<g id="edge10" class="edge"><title>pl1&#45;&gt;tr2</title>
<path fill="none" stroke="black" d="M288.026,-18C295.62,-18 304.814,-18 313.979,-18"/>
<polygon fill="black" stroke="black" points="314.227,-21.5001 324.227,-18 314.227,-14.5001 314.227,-21.5001"/>
</g>
<!-- pl2 -->
<g id="node4" class="node"><title>pl2</title>
<ellipse fill="none" stroke="black" cx="444" cy="-18" rx="18" ry="18"/>
<text text-anchor="middle" x="444" y="-13.9" font-family="Times Roman,serif" font-size="14.00">null</text>
</g>
<!-- tr3 -->
<g id="node9" class="node"><title>tr3</title>
<polygon fill="none" stroke="black" points="540,-36 498,-36 498,-1.77636e-14 540,-3.55271e-15 540,-36"/>
<text text-anchor="middle" x="519" y="-13.9" font-family="Times Roman,serif" font-size="14.00">null</text>
</g>
<!-- pl2&#45;&gt;tr3 -->
<g id="edge14" class="edge"><title>pl2&#45;&gt;tr3</title>
<path fill="none" stroke="black" d="M462.155,-18C469.799,-18 478.919,-18 487.593,-18"/>
<polygon fill="black" stroke="black" points="487.821,-21.5001 497.821,-18 487.821,-14.5001 487.821,-21.5001"/>
</g>
<!-- tr0 -->
<g id="node6" class="node"><title>tr0</title>
<polygon fill="none" stroke="black" points="42,-36 2.13163e-14,-36 0,-1.77636e-14 42,-3.55271e-15 42,-36"/>
<text text-anchor="middle" x="21" y="-13.9" font-family="Times Roman,serif" font-size="14.00">null</text>
</g>
<!-- tr0&#45;&gt;pl0 -->
<g id="edge4" class="edge"><title>tr0&#45;&gt;pl0</title>
<path fill="none" stroke="black" d="M42.2914,-18C50.2085,-18 59.3191,-18 67.7617,-18"/>
<polygon fill="black" stroke="black" points="67.9581,-21.5001 77.9581,-18 67.9581,-14.5001 67.9581,-21.5001"/>
</g>
<!-- tr1&#45;&gt;pl1 -->
<g id="edge8" class="edge"><title>tr1&#45;&gt;pl1</title>
<path fill="none" stroke="black" d="M215.891,-18C224.322,-18 233.32,-18 241.509,-18"/>
<polygon fill="black" stroke="black" points="241.692,-21.5001 251.692,-18 241.692,-14.5001 241.692,-21.5001"/>
</g>
<!-- tr2&#45;&gt;pl2 -->
<g id="edge12" class="edge"><title>tr2&#45;&gt;pl2</title>
<path fill="none" stroke="black" d="M389.891,-18C398.322,-18 407.32,-18 415.509,-18"/>
<polygon fill="black" stroke="black" points="415.692,-21.5001 425.692,-18 415.692,-14.5001 415.692,-21.5001"/>
</g>
</g>
</svg>
