<?xml version="1.0" encoding="UTF-8" standalone="no"?>
<!DOCTYPE svg PUBLIC "-//W3C//DTD SVG 1.1//EN"
 "http://www.w3.org/Graphics/SVG/1.1/DTD/svg11.dtd">
<!-- Generated by graphviz version 2.26.3 (20100126.1600)
 -->
<!-- Title: G Pages: 1 -->
<svg width="44pt" height="188pt"
 viewBox="0.00 0.00 44.00 188.00" xmlns="http://www.w3.org/2000/svg" xmlns:xlink="http://www.w3.org/1999/xlink">
<g id="graph1" class="graph" transform="scale(1 1) rotate(0) translate(4 184)">
<title>G</title>
<polygon fill="white" stroke="white" points="-4,5 -4,-184 41,-184 41,5 -4,5"/>
<!-- null -->
<g id="node2" class="node"><title>null</title>
<ellipse fill="none" stroke="black" cx="18" cy="-18" rx="18" ry="18"/>
<text text-anchor="middle" x="18" y="-13.9" font-family="Times Roman,serif" font-size="14.00">q</text>
</g>
<!-- null&#45;&gt;null -->
<g id="edge4" class="edge"><title>null&#45;&gt;null</title>
<path fill="none" stroke="black" d="M16.5527,-36.1527C16.3301,-45.5391 16.8125,-54 18,-54 18.7236,-54 19.1854,-50.8581 19.3854,-46.2796"/>
<polygon fill="black" stroke="black" points="22.886,-46.1739 19.4473,-36.1527 15.8862,-46.1311 22.886,-46.1739"/>
</g>
<!-- null&#45;&gt;null -->
<g id="edge6" class="edge"><title>null&#45;&gt;null</title>
<path fill="none" stroke="black" d="M15.5949,-35.9782C14.3077,-53.1996 15.1094,-72 18,-72 20.326,-72 21.2995,-59.8264 20.9203,-46.0978"/>
<polygon fill="black" stroke="black" points="24.4091,-45.7873 20.4051,-35.9782 17.4181,-46.1433 24.4091,-45.7873"/>
</g>
<!-- null&#45;&gt;null -->
<g id="edge8" class="edge"><title>null&#45;&gt;null</title>
<path fill="none" stroke="black" d="M14.9637,-36.0781C12.2769,-60.4094 13.2891,-90 18,-90 22.0669,-90 23.3772,-67.9475 21.9309,-46.2636"/>
<polygon fill="black" stroke="black" points="25.3979,-45.7335 21.0363,-36.0781 18.4248,-46.346 25.3979,-45.7335"/>
</g>
<!-- null&#45;&gt;null -->
<g id="edge10" class="edge"><title>null&#45;&gt;null</title>
<path fill="none" stroke="black" d="M14.5228,-36.1124C10.2472,-67.2398 11.4062,-108 18,-108 23.8983,-108 25.4479,-75.3843 22.6486,-46.2236"/>
<polygon fill="black" stroke="black" points="26.1049,-45.6431 21.4772,-36.1124 19.1514,-46.4488 26.1049,-45.6431"/>
</g>
<!-- null&#45;&gt;null -->
<g id="edge12" class="edge"><title>null&#45;&gt;null</title>
<path fill="none" stroke="black" d="M14.2492,-35.7983C8.21458,-73.5488 9.46484,-126 18,-126 25.8017,-126 27.5167,-82.1765 23.1452,-45.8139"/>
<polygon fill="black" stroke="black" points="26.5964,-45.2201 21.7508,-35.7983 19.6632,-46.1854 26.5964,-45.2201"/>
</g>
<!-- null&#45;&gt;null -->
<g id="edge14" class="edge"><title>null&#45;&gt;null</title>
<path fill="none" stroke="black" d="M14.0099,-35.769C6.19341,-79.9743 7.52344,-144 18,-144 27.699,-144 29.5588,-89.1254 23.5793,-45.9049"/>
<polygon fill="black" stroke="black" points="26.997,-45.1062 21.9901,-35.769 20.0814,-46.1905 26.997,-45.1062"/>
</g>
<!-- null&#45;&gt;null -->
<g id="edge16" class="edge"><title>null&#45;&gt;null</title>
<path fill="none" stroke="black" d="M13.8448,-35.6173C4.17352,-86.1852 5.55859,-162 18,-162 29.6395,-162 31.602,-95.6432 23.8875,-45.6826"/>
<polygon fill="black" stroke="black" points="27.3007,-44.8788 22.1552,-35.6173 20.4021,-46.0661 27.3007,-44.8788"/>
</g>
<!-- null&#45;&gt;null -->
<g id="edge18" class="edge"><title>null&#45;&gt;null</title>
<path fill="none" stroke="black" d="M13.695,-35.584C2.15875,-92.444 3.59375,-180 18,-180 31.5903,-180 33.6371,-102.082 24.1404,-45.5197"/>
<polygon fill="black" stroke="black" points="27.5634,-44.7818 22.305,-35.584 20.6799,-46.0534 27.5634,-44.7818"/>
</g>
</g>
</svg>
