<?xml version="1.0" encoding="UTF-8" standalone="no"?>
<!DOCTYPE svg PUBLIC "-//W3C//DTD SVG 1.1//EN"
 "http://www.w3.org/Graphics/SVG/1.1/DTD/svg11.dtd">
<!-- Generated by graphviz version 2.26.3 (20100126.1600)
 -->
<!-- Title: G Pages: 1 -->
<svg width="374pt" height="98pt"
 viewBox="0.00 0.00 374.00 98.00" xmlns="http://www.w3.org/2000/svg" xmlns:xlink="http://www.w3.org/1999/xlink">
<g id="graph1" class="graph" transform="scale(1 1) rotate(0) translate(4 94)">
<title>G</title>
<polygon fill="white" stroke="white" points="-4,5 -4,-94 371,-94 371,5 -4,5"/>
<!-- pl0 -->
<g id="node2" class="node"><title>pl0</title>
<ellipse fill="none" stroke="black" cx="96" cy="-45" rx="18" ry="18"/>
<text text-anchor="middle" x="96" y="-40.9" font-family="Times Roman,serif" font-size="14.00">null</text>
</g>
<!-- tr2 -->
<g id="node7" class="node"><title>tr2</title>
<polygon fill="none" stroke="black" points="215,-90 151,-90 151,-54 215,-54 215,-90"/>
<text text-anchor="middle" x="183" y="-67.9" font-family="Times Roman,serif" font-size="14.00">POS(q)</text>
</g>
<!-- pl0&#45;&gt;tr2 -->
<g id="edge8" class="edge"><title>pl0&#45;&gt;tr2</title>
<path fill="none" stroke="black" d="M113.606,-50.4639C121.418,-52.8884 130.982,-55.8566 140.484,-58.8054"/>
<polygon fill="black" stroke="black" points="139.699,-62.2264 150.287,-61.8478 141.774,-55.541 139.699,-62.2264"/>
</g>
<!-- tr3 -->
<g id="node8" class="node"><title>tr3</title>
<polygon fill="none" stroke="black" points="216,-36 150,-36 150,-1.77636e-14 216,-3.55271e-15 216,-36"/>
<text text-anchor="middle" x="183" y="-13.9" font-family="Times Roman,serif" font-size="14.00">NEG(p)</text>
</g>
<!-- pl0&#45;&gt;tr3 -->
<g id="edge12" class="edge"><title>pl0&#45;&gt;tr3</title>
<path fill="none" stroke="black" d="M113.606,-39.5361C121.344,-37.1345 130.802,-34.1993 140.215,-31.278"/>
<polygon fill="black" stroke="black" points="141.421,-34.5685 149.935,-28.2617 139.346,-27.883 141.421,-34.5685"/>
</g>
<!-- pl1 -->
<g id="node3" class="node"><title>pl1</title>
<ellipse fill="none" stroke="black" cx="270" cy="-45" rx="18" ry="18"/>
<text text-anchor="middle" x="270" y="-40.9" font-family="Times Roman,serif" font-size="14.00">null</text>
</g>
<!-- tr1 -->
<g id="node6" class="node"><title>tr1</title>
<polygon fill="none" stroke="black" points="366,-63 324,-63 324,-27 366,-27 366,-63"/>
<text text-anchor="middle" x="345" y="-40.9" font-family="Times Roman,serif" font-size="14.00">null</text>
</g>
<!-- pl1&#45;&gt;tr1 -->
<g id="edge4" class="edge"><title>pl1&#45;&gt;tr1</title>
<path fill="none" stroke="black" d="M288.155,-45C295.799,-45 304.919,-45 313.593,-45"/>
<polygon fill="black" stroke="black" points="313.821,-48.5001 323.821,-45 313.821,-41.5001 313.821,-48.5001"/>
</g>
<!-- tr0 -->
<g id="node5" class="node"><title>tr0</title>
<polygon fill="none" stroke="black" points="42,-63 2.13163e-14,-63 0,-27 42,-27 42,-63"/>
<text text-anchor="middle" x="21" y="-40.9" font-family="Times Roman,serif" font-size="14.00">null</text>
</g>
<!-- tr0&#45;&gt;pl0 -->
<g id="edge6" class="edge"><title>tr0&#45;&gt;pl0</title>
<path fill="none" stroke="black" d="M42.2914,-45C50.2085,-45 59.3191,-45 67.7617,-45"/>
<polygon fill="black" stroke="black" points="67.9581,-48.5001 77.9581,-45 67.9581,-41.5001 67.9581,-48.5001"/>
</g>
<!-- tr2&#45;&gt;pl1 -->
<g id="edge10" class="edge"><title>tr2&#45;&gt;pl1</title>
<path fill="none" stroke="black" d="M215.891,-61.7925C224.785,-59.0321 234.31,-56.0762 242.851,-53.4256"/>
<polygon fill="black" stroke="black" points="244.159,-56.6845 252.672,-50.3777 242.084,-49.9991 244.159,-56.6845"/>
</g>
<!-- tr3&#45;&gt;pl1 -->
<g id="edge14" class="edge"><title>tr3&#45;&gt;pl1</title>
<path fill="none" stroke="black" d="M216.388,-28.3617C225.109,-31.0683 234.404,-33.953 242.764,-36.5473"/>
<polygon fill="black" stroke="black" points="241.806,-39.9148 252.394,-39.5361 243.881,-33.2294 241.806,-39.9148"/>
</g>
</g>
</svg>
