<?xml version="1.0" encoding="UTF-8" standalone="no"?>
<!DOCTYPE svg PUBLIC "-//W3C//DTD SVG 1.1//EN"
 "http://www.w3.org/Graphics/SVG/1.1/DTD/svg11.dtd">
<!-- Generated by graphviz version 2.26.3 (20100126.1600)
 -->
<!-- Title: G Pages: 1 -->
<svg width="374pt" height="98pt"
 viewBox="0.00 0.00 374.00 98.00" xmlns="http://www.w3.org/2000/svg" xmlns:xlink="http://www.w3.org/1999/xlink">
<g id="graph1" class="graph" transform="scale(1 1) rotate(0) translate(4 94)">
<title>G</title>
<polygon fill="white" stroke="white" points="-4,5 -4,-94 371,-94 371,5 -4,5"/>
<!-- pl0 -->
<g id="node2" class="node"><title>pl0</title>
<ellipse fill="none" stroke="black" cx="96" cy="-72" rx="18" ry="18"/>
<text text-anchor="middle" x="96" y="-67.9" font-family="Times Roman,serif" font-size="14.00">null</text>
</g>
<!-- tr2 -->
<g id="node9" class="node"><title>tr2</title>
<polygon fill="none" stroke="black" points="215,-90 151,-90 151,-54 215,-54 215,-90"/>
<text text-anchor="middle" x="183" y="-67.9" font-family="Times Roman,serif" font-size="14.00">POS(p)</text>
</g>
<!-- pl0&#45;&gt;tr2 -->
<g id="edge6" class="edge"><title>pl0&#45;&gt;tr2</title>
<path fill="none" stroke="black" d="M114.026,-72C121.62,-72 130.814,-72 139.979,-72"/>
<polygon fill="black" stroke="black" points="140.227,-75.5001 150.227,-72 140.227,-68.5001 140.227,-75.5001"/>
</g>
<!-- pl1 -->
<g id="node3" class="node"><title>pl1</title>
<ellipse fill="none" stroke="black" cx="270" cy="-72" rx="18" ry="18"/>
<text text-anchor="middle" x="270" y="-67.9" font-family="Times Roman,serif" font-size="14.00">null</text>
</g>
<!-- tr1 -->
<g id="node8" class="node"><title>tr1</title>
<polygon fill="none" stroke="black" points="366,-63 324,-63 324,-27 366,-27 366,-63"/>
<text text-anchor="middle" x="345" y="-40.9" font-family="Times Roman,serif" font-size="14.00">null</text>
</g>
<!-- pl1&#45;&gt;tr1 -->
<g id="edge10" class="edge"><title>pl1&#45;&gt;tr1</title>
<path fill="none" stroke="black" d="M287.019,-65.8733C295.102,-62.9633 305.017,-59.394 314.346,-56.0353"/>
<polygon fill="black" stroke="black" points="315.532,-59.3284 323.756,-52.648 313.161,-52.7421 315.532,-59.3284"/>
</g>
<!-- pl2 -->
<g id="node4" class="node"><title>pl2</title>
<ellipse fill="none" stroke="black" cx="96" cy="-18" rx="18" ry="18"/>
<text text-anchor="middle" x="96" y="-13.9" font-family="Times Roman,serif" font-size="14.00">null</text>
</g>
<!-- tr3 -->
<g id="node10" class="node"><title>tr3</title>
<polygon fill="none" stroke="black" points="215,-36 151,-36 151,-1.77636e-14 215,-3.55271e-15 215,-36"/>
<text text-anchor="middle" x="183" y="-13.9" font-family="Times Roman,serif" font-size="14.00">POS(q)</text>
</g>
<!-- pl2&#45;&gt;tr3 -->
<g id="edge14" class="edge"><title>pl2&#45;&gt;tr3</title>
<path fill="none" stroke="black" d="M114.026,-18C121.62,-18 130.814,-18 139.979,-18"/>
<polygon fill="black" stroke="black" points="140.227,-21.5001 150.227,-18 140.227,-14.5001 140.227,-21.5001"/>
</g>
<!-- pl3 -->
<g id="node5" class="node"><title>pl3</title>
<ellipse fill="none" stroke="black" cx="270" cy="-18" rx="18" ry="18"/>
<text text-anchor="middle" x="270" y="-13.9" font-family="Times Roman,serif" font-size="14.00">null</text>
</g>
<!-- pl3&#45;&gt;tr1 -->
<g id="edge18" class="edge"><title>pl3&#45;&gt;tr1</title>
<path fill="none" stroke="black" d="M287.019,-24.1267C295.102,-27.0367 305.017,-30.606 314.346,-33.9647"/>
<polygon fill="black" stroke="black" points="313.161,-37.2579 323.756,-37.352 315.532,-30.6716 313.161,-37.2579"/>
</g>
<!-- tr0 -->
<g id="node7" class="node"><title>tr0</title>
<polygon fill="none" stroke="black" points="42,-63 2.13163e-14,-63 0,-27 42,-27 42,-63"/>
<text text-anchor="middle" x="21" y="-40.9" font-family="Times Roman,serif" font-size="14.00">null</text>
</g>
<!-- tr0&#45;&gt;pl0 -->
<g id="edge4" class="edge"><title>tr0&#45;&gt;pl0</title>
<path fill="none" stroke="black" d="M42.2914,-52.6649C50.7241,-55.7007 60.5109,-59.2239 69.4022,-62.4248"/>
<polygon fill="black" stroke="black" points="68.3459,-65.7644 78.9403,-65.8585 70.717,-59.1781 68.3459,-65.7644"/>
</g>
<!-- tr0&#45;&gt;pl2 -->
<g id="edge12" class="edge"><title>tr0&#45;&gt;pl2</title>
<path fill="none" stroke="black" d="M42.2914,-37.3351C50.7241,-34.2993 60.5109,-30.7761 69.4022,-27.5752"/>
<polygon fill="black" stroke="black" points="70.717,-30.8219 78.9403,-24.1415 68.3459,-24.2356 70.717,-30.8219"/>
</g>
<!-- tr2&#45;&gt;pl1 -->
<g id="edge8" class="edge"><title>tr2&#45;&gt;pl1</title>
<path fill="none" stroke="black" d="M215.891,-72C224.322,-72 233.32,-72 241.509,-72"/>
<polygon fill="black" stroke="black" points="241.692,-75.5001 251.692,-72 241.692,-68.5001 241.692,-75.5001"/>
</g>
<!-- tr3&#45;&gt;pl3 -->
<g id="edge16" class="edge"><title>tr3&#45;&gt;pl3</title>
<path fill="none" stroke="black" d="M215.891,-18C224.322,-18 233.32,-18 241.509,-18"/>
<polygon fill="black" stroke="black" points="241.692,-21.5001 251.692,-18 241.692,-14.5001 241.692,-21.5001"/>
</g>
</g>
</svg>
