<?xml version="1.0" encoding="UTF-8" standalone="no"?>
<!DOCTYPE svg PUBLIC "-//W3C//DTD SVG 1.1//EN"
 "http://www.w3.org/Graphics/SVG/1.1/DTD/svg11.dtd">
<!-- Generated by graphviz version 2.26.3 (20100126.1600)
 -->
<!-- Title: G Pages: 1 -->
<svg width="674pt" height="304pt"
 viewBox="0.00 0.00 674.00 304.00" xmlns="http://www.w3.org/2000/svg" xmlns:xlink="http://www.w3.org/1999/xlink">
<g id="graph1" class="graph" transform="scale(1 1) rotate(0) translate(4 300)">
<title>G</title>
<polygon fill="white" stroke="white" points="-4,5 -4,-300 671,-300 671,5 -4,5"/>
<g id="graph2" class="cluster"><title>cluster_0</title>
<polygon fill="none" stroke="lightblue" points="8,-8 8,-288 658,-288 658,-8 8,-8"/>
<text text-anchor="middle" x="333" y="-271.4" font-family="Times Roman,serif" font-size="14.00">SEQ(p, q)</text>
</g>
<g id="graph5" class="cluster"><title>cluster0_0</title>
<polygon fill="none" stroke="lightblue" points="16,-16 16,-255 214,-255 214,-16 16,-16"/>
<text text-anchor="middle" x="115" y="-238.4" font-family="Times Roman,serif" font-size="14.00">OR(NEG(p), NULL(p))</text>
</g>
<!-- _p0_0 -->
<g id="node3" class="node"><title>_p0_0</title>
<ellipse fill="none" stroke="black" cx="332" cy="-102" rx="18" ry="18"/>
<text text-anchor="middle" x="332" y="-97.9" font-family="Times Roman,serif" font-size="14.00">p</text>
</g>
<!-- _t1_0 -->
<g id="node9" class="node"><title>_t1_0</title>
<polygon fill="none" stroke="black" points="422,-142 386,-142 386,-106 422,-106 422,-142"/>
<text text-anchor="middle" x="404" y="-119.9" font-family="Times Roman,serif" font-size="14.00">q</text>
</g>
<!-- _p0_0&#45;&gt;_t1_0 -->
<g id="edge23" class="edge"><title>_p0_0&#45;&gt;_t1_0</title>
<path fill="none" stroke="black" d="M349.429,-107.326C357.473,-109.783 367.219,-112.761 376.237,-115.517"/>
<polygon fill="black" stroke="black" points="375.393,-118.919 385.979,-118.494 377.439,-112.224 375.393,-118.919"/>
</g>
<!-- _p1_0 -->
<g id="node4" class="node"><title>_p1_0</title>
<ellipse fill="none" stroke="black" cx="476" cy="-70" rx="18" ry="18"/>
<text text-anchor="middle" x="476" y="-65.9" font-family="Times Roman,serif" font-size="14.00">q</text>
</g>
<!-- _t2_0 -->
<g id="node10" class="node"><title>_t2_0</title>
<polygon fill="none" stroke="black" points="578,-115 530,-115 530,-79 578,-79 578,-115"/>
<text text-anchor="middle" x="554" y="-92.9" font-family="Times Roman,serif" font-size="14.00">AND</text>
</g>
<!-- _p1_0&#45;&gt;_t2_0 -->
<g id="edge31" class="edge"><title>_p1_0&#45;&gt;_t2_0</title>
<path fill="none" stroke="black" d="M493.311,-75.9922C501.305,-78.7595 511.083,-82.144 520.435,-85.3813"/>
<polygon fill="black" stroke="black" points="519.34,-88.7059 529.934,-88.6696 521.629,-82.091 519.34,-88.7059"/>
</g>
<!-- _p2_0 -->
<g id="node5" class="node"><title>_p2_0</title>
<ellipse fill="none" stroke="black" cx="476" cy="-124" rx="18" ry="18"/>
<text text-anchor="middle" x="476" y="-119.9" font-family="Times Roman,serif" font-size="14.00">SEQ(p, q)</text>
</g>
<!-- _p2_0&#45;&gt;_t2_0 -->
<g id="edge29" class="edge"><title>_p2_0&#45;&gt;_t2_0</title>
<path fill="none" stroke="black" d="M493.311,-118.008C501.305,-115.24 511.083,-111.856 520.435,-108.619"/>
<polygon fill="black" stroke="black" points="521.629,-111.909 529.934,-105.33 519.34,-105.294 521.629,-111.909"/>
</g>
<!-- _p3_0 -->
<g id="node6" class="node"><title>_p3_0</title>
<ellipse fill="none" stroke="black" cx="632" cy="-97" rx="18" ry="18"/>
<text text-anchor="middle" x="632" y="-92.9" font-family="Times Roman,serif" font-size="14.00">AND(SEQ(p, q), q)</text>
</g>
<!-- _t0_0 -->
<g id="node8" class="node"><title>_t0_0</title>
<polygon fill="none" stroke="black" points="278,-116 242,-116 242,-80 278,-80 278,-116"/>
<text text-anchor="middle" x="260" y="-93.9" font-family="Times Roman,serif" font-size="14.00">p</text>
</g>
<!-- _t0_0&#45;&gt;_p0_0 -->
<g id="edge21" class="edge"><title>_t0_0&#45;&gt;_p0_0</title>
<path fill="none" stroke="black" d="M278.169,-99.0094C285.869,-99.4372 295.026,-99.9459 303.583,-100.421"/>
<polygon fill="black" stroke="black" points="303.408,-103.917 313.587,-100.977 303.796,-96.9276 303.408,-103.917"/>
</g>
<!-- _t1_0&#45;&gt;_p2_0 -->
<g id="edge27" class="edge"><title>_t1_0&#45;&gt;_p2_0</title>
<path fill="none" stroke="black" d="M422.169,-124C429.869,-124 439.026,-124 447.583,-124"/>
<polygon fill="black" stroke="black" points="447.587,-127.5 457.587,-124 447.587,-120.5 447.587,-127.5"/>
</g>
<!-- _t2_0&#45;&gt;_p3_0 -->
<g id="edge33" class="edge"><title>_t2_0&#45;&gt;_p3_0</title>
<path fill="none" stroke="black" d="M578.252,-97C586.302,-97 595.335,-97 603.664,-97"/>
<polygon fill="black" stroke="black" points="603.713,-100.5 613.712,-97 603.712,-93.5001 603.713,-100.5"/>
</g>
<!-- _p0_00 -->
<g id="node12" class="node"><title>_p0_00</title>
<ellipse fill="none" stroke="black" cx="188" cy="-96" rx="18" ry="18"/>
<text text-anchor="middle" x="188" y="-91.9" font-family="Times Roman,serif" font-size="14.00">OR(NEG(p), NULL(p))</text>
</g>
<!-- _p0_00&#45;&gt;_t0_0 -->
<g id="edge19" class="edge"><title>_p0_00&#45;&gt;_t0_0</title>
<path fill="none" stroke="black" d="M206.169,-96.5047C213.869,-96.7186 223.026,-96.9729 231.583,-97.2106"/>
<polygon fill="black" stroke="black" points="231.493,-100.709 241.587,-97.4885 231.688,-93.7121 231.493,-100.709"/>
</g>
<!-- _p1_00 -->
<g id="node13" class="node"><title>_p1_00</title>
<ellipse fill="none" stroke="black" cx="42" cy="-96" rx="18" ry="18"/>
<text text-anchor="middle" x="42" y="-91.9" font-family="Times Roman,serif" font-size="14.00">NEG(p)</text>
</g>
<!-- _t0_00 -->
<g id="node15" class="node"><title>_t0_00</title>
<polygon fill="none" stroke="black" points="134,-114 96,-114 96,-78 134,-78 134,-114"/>
<text text-anchor="middle" x="115" y="-91.9" font-family="Times Roman,serif" font-size="14.00">OR</text>
</g>
<!-- _p1_00&#45;&gt;_t0_00 -->
<g id="edge8" class="edge"><title>_p1_00&#45;&gt;_t0_00</title>
<path fill="none" stroke="black" d="M60.0449,-96C67.7893,-96 77.0378,-96 85.7189,-96"/>
<polygon fill="black" stroke="black" points="85.8872,-99.5001 95.8872,-96 85.8871,-92.5001 85.8872,-99.5001"/>
</g>
<!-- _p2_00 -->
<g id="node14" class="node"><title>_p2_00</title>
<ellipse fill="none" stroke="black" cx="42" cy="-42" rx="18" ry="18"/>
<text text-anchor="middle" x="42" y="-37.9" font-family="Times Roman,serif" font-size="14.00">NULL(p)</text>
</g>
<!-- _p2_00&#45;&gt;_t0_00 -->
<g id="edge10" class="edge"><title>_p2_00&#45;&gt;_t0_00</title>
<path fill="none" stroke="black" d="M56.7726,-52.9277C65.6485,-59.4934 77.2196,-68.0528 87.706,-75.8099"/>
<polygon fill="black" stroke="black" points="85.6902,-78.6723 95.8112,-81.8055 89.8531,-73.0446 85.6902,-78.6723"/>
</g>
<!-- _t0_00&#45;&gt;_p0_00 -->
<g id="edge6" class="edge"><title>_t0_00&#45;&gt;_p0_00</title>
<path fill="none" stroke="black" d="M134.18,-96C141.903,-96 150.972,-96 159.442,-96"/>
<polygon fill="black" stroke="black" points="159.703,-99.5001 169.703,-96 159.703,-92.5001 159.703,-99.5001"/>
</g>
<!-- _p0_01 -->
<g id="node20" class="node"><title>_p0_01</title>
<ellipse fill="none" stroke="black" cx="188" cy="-150" rx="18" ry="18"/>
<text text-anchor="middle" x="188" y="-145.9" font-family="Times Roman,serif" font-size="14.00">OR(NEG(q), NULL(q))</text>
</g>
<!-- _p0_01&#45;&gt;_t1_0 -->
<g id="edge25" class="edge"><title>_p0_01&#45;&gt;_t1_0</title>
<path fill="none" stroke="black" d="M206.045,-147.828C243.686,-143.297 330.813,-132.81 375.875,-127.385"/>
<polygon fill="black" stroke="black" points="376.345,-130.854 385.855,-126.184 375.508,-123.904 376.345,-130.854"/>
</g>
<!-- _p1_01 -->
<g id="node21" class="node"><title>_p1_01</title>
<ellipse fill="none" stroke="black" cx="42" cy="-204" rx="18" ry="18"/>
<text text-anchor="middle" x="42" y="-199.9" font-family="Times Roman,serif" font-size="14.00">NEG(q)</text>
</g>
<!-- _t0_01 -->
<g id="node23" class="node"><title>_t0_01</title>
<polygon fill="none" stroke="black" points="134,-168 96,-168 96,-132 134,-132 134,-168"/>
<text text-anchor="middle" x="115" y="-145.9" font-family="Times Roman,serif" font-size="14.00">OR</text>
</g>
<!-- _p1_01&#45;&gt;_t0_01 -->
<g id="edge15" class="edge"><title>_p1_01&#45;&gt;_t0_01</title>
<path fill="none" stroke="black" d="M56.7726,-193.072C65.6485,-186.507 77.2196,-177.947 87.706,-170.19"/>
<polygon fill="black" stroke="black" points="89.8531,-172.955 95.8112,-164.194 85.6902,-167.328 89.8531,-172.955"/>
</g>
<!-- _p2_01 -->
<g id="node22" class="node"><title>_p2_01</title>
<ellipse fill="none" stroke="black" cx="42" cy="-150" rx="18" ry="18"/>
<text text-anchor="middle" x="42" y="-145.9" font-family="Times Roman,serif" font-size="14.00">NULL(q)</text>
</g>
<!-- _p2_01&#45;&gt;_t0_01 -->
<g id="edge17" class="edge"><title>_p2_01&#45;&gt;_t0_01</title>
<path fill="none" stroke="black" d="M60.0449,-150C67.7893,-150 77.0378,-150 85.7189,-150"/>
<polygon fill="black" stroke="black" points="85.8872,-153.5 95.8872,-150 85.8871,-146.5 85.8872,-153.5"/>
</g>
<!-- _t0_01&#45;&gt;_p0_01 -->
<g id="edge13" class="edge"><title>_t0_01&#45;&gt;_p0_01</title>
<path fill="none" stroke="black" d="M134.18,-150C141.903,-150 150.972,-150 159.442,-150"/>
<polygon fill="black" stroke="black" points="159.703,-153.5 169.703,-150 159.703,-146.5 159.703,-153.5"/>
</g>
</g>
</svg>
