<?xml version="1.0" encoding="UTF-8" standalone="no"?>
<!DOCTYPE svg PUBLIC "-//W3C//DTD SVG 1.1//EN"
 "http://www.w3.org/Graphics/SVG/1.1/DTD/svg11.dtd">
<!-- Generated by graphviz version 2.26.3 (20100126.1600)
 -->
<!-- Title: G Pages: 1 -->
<svg width="194pt" height="196pt"
 viewBox="0.00 0.00 194.00 196.00" xmlns="http://www.w3.org/2000/svg" xmlns:xlink="http://www.w3.org/1999/xlink">
<g id="graph1" class="graph" transform="scale(1 1) rotate(0) translate(4 192)">
<title>G</title>
<polygon fill="white" stroke="white" points="-4,5 -4,-192 191,-192 191,5 -4,5"/>
<g id="graph2" class="cluster"><title>cluster_0</title>
<polygon fill="none" stroke="lightblue" points="8,-8 8,-180 178,-180 178,-8 8,-8"/>
<text text-anchor="middle" x="93" y="-163.4" font-family="Times Roman,serif" font-size="14.00">IMPLIES(a, b)</text>
</g>
<g id="graph4" class="cluster"><title>cluster0_0</title>
<polygon fill="none" stroke="lightblue" points="118,-16 118,-147 170,-147 170,-16 118,-16"/>
<text text-anchor="middle" x="144" y="-130.4" font-family="Times Roman,serif" font-size="14.00">a</text>
</g>
<!-- _t0_0 -->
<g id="node3" class="node"><title>_t0_0</title>
<polygon fill="none" stroke="black" points="89,-87 17,-87 17,-51 89,-51 89,-87"/>
<text text-anchor="middle" x="53" y="-64.9" font-family="Times Roman,serif" font-size="14.00">IMPLIES</text>
</g>
<!-- _p0_01 -->
<g id="node8" class="node"><title>_p0_01</title>
<ellipse fill="none" stroke="black" cx="144" cy="-42" rx="18" ry="18"/>
<text text-anchor="middle" x="144" y="-37.9" font-family="Times Roman,serif" font-size="14.00">b</text>
</g>
<!-- _t0_0&#45;&gt;_p0_01 -->
<g id="edge9" class="edge"><title>_t0_0&#45;&gt;_p0_01</title>
<path fill="none" stroke="black" d="M89.7509,-58.0959C98.7285,-55.4322 108.178,-52.6284 116.63,-50.1206"/>
<polygon fill="black" stroke="black" points="117.755,-53.4378 126.346,-47.2379 115.764,-46.727 117.755,-53.4378"/>
</g>
<!-- _p0_00 -->
<g id="node6" class="node"><title>_p0_00</title>
<ellipse fill="none" stroke="black" cx="144" cy="-96" rx="18" ry="18"/>
<text text-anchor="middle" x="144" y="-91.9" font-family="Times Roman,serif" font-size="14.00">a</text>
</g>
<!-- _p0_00&#45;&gt;_t0_0 -->
<g id="edge7" class="edge"><title>_p0_00&#45;&gt;_t0_0</title>
<path fill="none" stroke="black" d="M126.346,-90.7621C118.624,-88.4708 109.162,-85.6635 99.634,-82.8365"/>
<polygon fill="black" stroke="black" points="100.333,-79.3932 89.7509,-79.9041 98.3422,-86.1041 100.333,-79.3932"/>
</g>
</g>
</svg>
