<?xml version="1.0" encoding="UTF-8" standalone="no"?>
<!DOCTYPE svg PUBLIC "-//W3C//DTD SVG 1.1//EN"
 "http://www.w3.org/Graphics/SVG/1.1/DTD/svg11.dtd">
<!-- Generated by graphviz version 2.26.3 (20100126.1600)
 -->
<!-- Title: G Pages: 1 -->
<svg width="390pt" height="335pt"
 viewBox="0.00 0.00 390.00 335.00" xmlns="http://www.w3.org/2000/svg" xmlns:xlink="http://www.w3.org/1999/xlink">
<g id="graph1" class="graph" transform="scale(1 1) rotate(0) translate(4 331)">
<title>G</title>
<polygon fill="white" stroke="white" points="-4,5 -4,-331 387,-331 387,5 -4,5"/>
<g id="graph2" class="cluster"><title>cluster_0</title>
<polygon fill="none" stroke="lightblue" points="8,-8 8,-319 374,-319 374,-8 8,-8"/>
<text text-anchor="middle" x="191" y="-302.4" font-family="Times Roman,serif" font-size="14.00">CAUSES(OCCURS(a), b)</text>
</g>
<g id="graph4" class="cluster"><title>cluster0_0</title>
<polygon fill="none" stroke="lightblue" points="16,-16 16,-242 366,-242 366,-16 16,-16"/>
<text text-anchor="middle" x="191" y="-225.4" font-family="Times Roman,serif" font-size="14.00">OCCURS(a)</text>
</g>
<g id="graph6" class="cluster"><title>cluster00_0</title>
<polygon fill="none" stroke="lightblue" points="24,-24 24,-209 222,-209 222,-24 24,-24"/>
<text text-anchor="middle" x="123" y="-192.4" font-family="Times Roman,serif" font-size="14.00">OR(NEG(a), NULL(a))</text>
</g>
<!-- _p0_0 -->
<g id="node3" class="node"><title>_p0_0</title>
<ellipse fill="none" stroke="black" cx="123" cy="-268" rx="18" ry="18"/>
<text text-anchor="middle" x="123" y="-263.9" font-family="Times Roman,serif" font-size="14.00">b</text>
</g>
<!-- _p0_00 -->
<g id="node5" class="node"><title>_p0_00</title>
<ellipse fill="none" stroke="black" cx="340" cy="-134" rx="18" ry="18"/>
<text text-anchor="middle" x="340" y="-129.9" font-family="Times Roman,serif" font-size="14.00">OCCURS(a)</text>
</g>
<!-- _t0_01 -->
<g id="node19" class="node"><title>_t0_01</title>
<polygon fill="none" stroke="black" points="68,-176 32,-176 32,-140 68,-140 68,-176"/>
<text text-anchor="middle" x="50" y="-153.9" font-family="Times Roman,serif" font-size="14.00">b</text>
</g>
<!-- _p0_00&#45;&gt;_t0_01 -->
<g id="edge18" class="edge"><title>_p0_00&#45;&gt;_t0_01</title>
<path fill="none" stroke="black" d="M322.03,-136.59C311.539,-138.037 298.039,-139.787 286,-141 211.05,-148.551 122.38,-154.007 78.1047,-156.495"/>
<polygon fill="black" stroke="black" points="77.8821,-153.002 68.0909,-157.049 78.2691,-159.991 77.8821,-153.002"/>
</g>
<!-- _t0_00 -->
<g id="node7" class="node"><title>_t0_00</title>
<polygon fill="none" stroke="black" points="286,-132 250,-132 250,-96 286,-96 286,-132"/>
<text text-anchor="middle" x="268" y="-109.9" font-family="Times Roman,serif" font-size="14.00">a</text>
</g>
<!-- _t0_00&#45;&gt;_p0_00 -->
<g id="edge13" class="edge"><title>_t0_00&#45;&gt;_p0_00</title>
<path fill="none" stroke="black" d="M286.169,-119.047C294.193,-121.276 303.799,-123.944 312.661,-126.406"/>
<polygon fill="black" stroke="black" points="312.01,-129.858 322.582,-129.162 313.884,-123.113 312.01,-129.858"/>
</g>
<!-- _p0_000 -->
<g id="node9" class="node"><title>_p0_000</title>
<ellipse fill="none" stroke="black" cx="196" cy="-112" rx="18" ry="18"/>
<text text-anchor="middle" x="196" y="-107.9" font-family="Times Roman,serif" font-size="14.00">OR(NEG(a), NULL(a))</text>
</g>
<!-- _p0_000&#45;&gt;_t0_00 -->
<g id="edge15" class="edge"><title>_p0_000&#45;&gt;_t0_00</title>
<path fill="none" stroke="black" d="M214.169,-112.505C221.869,-112.719 231.026,-112.973 239.583,-113.211"/>
<polygon fill="black" stroke="black" points="239.493,-116.709 249.587,-113.489 239.688,-109.712 239.493,-116.709"/>
</g>
<!-- _p1_000 -->
<g id="node10" class="node"><title>_p1_000</title>
<ellipse fill="none" stroke="black" cx="50" cy="-104" rx="18" ry="18"/>
<text text-anchor="middle" x="50" y="-99.9" font-family="Times Roman,serif" font-size="14.00">NEG(a)</text>
</g>
<!-- _t0_000 -->
<g id="node12" class="node"><title>_t0_000</title>
<polygon fill="none" stroke="black" points="142,-122 104,-122 104,-86 142,-86 142,-122"/>
<text text-anchor="middle" x="123" y="-99.9" font-family="Times Roman,serif" font-size="14.00">OR</text>
</g>
<!-- _p1_000&#45;&gt;_t0_000 -->
<g id="edge9" class="edge"><title>_p1_000&#45;&gt;_t0_000</title>
<path fill="none" stroke="black" d="M68.0449,-104C75.7893,-104 85.0378,-104 93.7189,-104"/>
<polygon fill="black" stroke="black" points="93.8872,-107.5 103.887,-104 93.8871,-100.5 93.8872,-107.5"/>
</g>
<!-- _p2_000 -->
<g id="node11" class="node"><title>_p2_000</title>
<ellipse fill="none" stroke="black" cx="50" cy="-50" rx="18" ry="18"/>
<text text-anchor="middle" x="50" y="-45.9" font-family="Times Roman,serif" font-size="14.00">NULL(a)</text>
</g>
<!-- _p2_000&#45;&gt;_t0_000 -->
<g id="edge11" class="edge"><title>_p2_000&#45;&gt;_t0_000</title>
<path fill="none" stroke="black" d="M64.7726,-60.9277C73.6485,-67.4934 85.2196,-76.0528 95.706,-83.8099"/>
<polygon fill="black" stroke="black" points="93.6902,-86.6723 103.811,-89.8055 97.8531,-81.0446 93.6902,-86.6723"/>
</g>
<!-- _t0_000&#45;&gt;_p0_000 -->
<g id="edge7" class="edge"><title>_t0_000&#45;&gt;_p0_000</title>
<path fill="none" stroke="black" d="M142.18,-106.102C149.988,-106.958 159.173,-107.964 167.724,-108.901"/>
<polygon fill="black" stroke="black" points="167.381,-112.385 177.703,-109.995 168.143,-105.426 167.381,-112.385"/>
</g>
<!-- _t0_01&#45;&gt;_p0_0 -->
<g id="edge20" class="edge"><title>_t0_01&#45;&gt;_p0_0</title>
<path fill="none" stroke="black" d="M59.9443,-176.077C70.21,-194.262 87.0717,-222.849 104,-246 104.063,-246.087 104.127,-246.173 104.191,-246.26"/>
<polygon fill="black" stroke="black" points="101.627,-248.66 110.587,-254.314 107.109,-244.306 101.627,-248.66"/>
</g>
</g>
</svg>
